<svg width="53" height="16" viewBox="0 0 53 16" fill="none" xmlns="http://www.w3.org/2000/svg">
<path fill-rule="evenodd" clip-rule="evenodd" d="M19.2905 10.7931C21.1543 10.7931 22.3489 10.0721 22.3489 6.82885C22.3489 3.57101 21.1543 2.86424 19.2905 2.86424H17.4903V10.7931H19.2905ZM19.4019 1.63916C22.3489 1.63916 24.0855 3.00882 24.0855 6.82886C24.0855 10.6489 22.3489 12.018 19.4019 12.018H15.8655V1.63916H19.4019Z" fill="#F2F1F0"/>
<path fill-rule="evenodd" clip-rule="evenodd" d="M27.0052 2.63967C27.0052 3.17913 26.5674 3.61626 26.0272 3.61626C25.4875 3.61626 25.0498 3.17913 25.0498 2.63967C25.0498 2.10113 25.4875 1.66382 26.0272 1.66382C26.5674 1.66382 27.0052 2.10113 27.0052 2.63967ZM26.8892 11.9157C26.8892 11.9157 26.6184 12.018 26.0927 12.018C25.5351 12.018 25.2964 11.9157 25.2964 11.9157V4.41223C25.2964 4.41223 25.5351 4.30955 26.0927 4.30955C26.6184 4.30955 26.8892 4.41223 26.8892 4.41223V11.9157Z" fill="#F2F1F0"/>
<path fill-rule="evenodd" clip-rule="evenodd" d="M31.1902 4.60658C30.2345 4.60658 29.5814 5.16333 29.5814 6.35639C29.5814 7.54908 30.2345 8.08962 31.1902 8.08962C32.1459 8.08962 32.7831 7.54908 32.7831 6.35639C32.7831 5.16333 32.1459 4.60658 31.1902 4.60658ZM30.1378 12.0679C29.7395 12.3859 29.2305 12.8771 29.2305 13.4657C29.2305 14.2609 29.8203 14.8653 31.126 14.8653C32.7673 14.8653 33.6596 14.2766 33.6596 13.4338C33.6596 12.13 31.5717 12.5132 30.1378 12.0679ZM35.1666 3.56208C35.3098 3.89616 35.3324 4.39993 35.1889 4.74949L33.9208 4.76988C34.2238 5.21502 34.3127 5.68838 34.3127 6.35637C34.3127 8.13766 33.2453 9.21911 31.1902 9.21911C30.9354 9.21911 30.6964 9.20327 30.4892 9.17141C30.3141 9.40991 30.1548 9.74382 30.1867 10.0939C30.3619 11.557 35.173 9.99852 35.173 13.2749C35.173 14.8335 33.6596 15.9947 31.0788 15.9947C28.689 15.9947 27.6857 15.056 27.6857 13.784C27.6857 12.5751 28.6733 11.8432 29.1035 11.5888C28.8805 11.3662 28.7532 11.0641 28.7532 10.6665C28.7532 9.96648 28.9392 9.21948 29.3054 8.78981C28.3494 8.34449 28.0679 7.5649 28.0679 6.35637C28.0679 4.57471 29.1518 3.53076 31.1909 3.53076C31.9079 3.53076 32.2719 3.55188 32.7451 3.56936L35.1666 3.56208Z" fill="#F2F1F0"/>
<path fill-rule="evenodd" clip-rule="evenodd" d="M39.1555 4.74937C38.1199 4.74937 37.3872 5.43339 37.2595 7.19905H40.6689C40.6847 7.07197 40.717 6.81745 40.717 6.48336C40.717 5.54499 40.3342 4.74937 39.1555 4.74937ZM37.2595 8.32838C37.3872 10.2211 38.152 10.8254 39.4744 10.8254C40.6052 10.8254 41.354 10.3642 41.354 10.3642C41.6406 10.6187 41.8478 11.0479 41.8638 11.5092C41.8638 11.5092 40.9555 12.1774 39.2193 12.1774C36.7661 12.1774 35.6189 10.6664 35.6189 7.78766C35.6189 4.78126 37.0367 3.49316 39.1555 3.49316C41.1151 3.49316 42.3097 4.57462 42.3097 6.69C42.3097 7.69208 42.1346 8.32838 42.1346 8.32838H37.2595Z" fill="#F2F1F0"/>
<path fill-rule="evenodd" clip-rule="evenodd" d="M49.3007 4.84513H45.4481V9.01221C45.4481 10.4598 45.9104 10.8891 47.0411 10.8891C47.3597 10.8891 47.7102 10.8254 47.7102 10.8254C47.7102 10.8254 47.8214 11.0958 47.8214 11.4617C47.8214 11.8273 47.7423 12.0341 47.7423 12.0341C47.4553 12.1139 47.0251 12.1774 46.5949 12.1774C44.6355 12.1774 43.8549 11.112 43.8549 9.09178V4.84513H42.6283C42.6283 4.84513 42.5326 4.62246 42.5326 4.25652C42.5326 3.8587 42.6283 3.65243 42.6283 3.65243H43.8549V2.20483C44.2693 1.95031 44.8585 1.83907 45.4481 1.88677V3.65243H48.8849" fill="#F2F1F0"/>
<path fill-rule="evenodd" clip-rule="evenodd" d="M50.6255 9.01214C50.6255 10.4597 51.0876 10.889 52.2185 10.889C52.5369 10.889 52.8876 10.8253 52.8876 10.8253C52.8876 10.8253 52.9992 11.0957 52.9992 11.4616C52.9992 11.8272 52.9193 12.034 52.9193 12.034C52.6327 12.1138 52.2027 12.1773 51.7725 12.1773C49.8129 12.1773 49.0328 11.1119 49.0328 9.0917V4.8451H47.8057C47.8057 4.8451 47.7103 4.62244 47.7103 4.25649C47.7103 3.85868 47.8057 3.65241 47.8057 3.65241H49.0328V2.20483C49.4465 1.95031 50.0361 1.83907 50.6255 1.88677V3.65241H52.6965C52.6965 3.65241 52.792 3.85868 52.792 4.24047C52.792 4.60641 52.6965 4.8451 52.6965 4.8451H50.6255V9.01214Z" fill="#F2F1F0"/>
<path fill-rule="evenodd" clip-rule="evenodd" d="M14.1872 6.87161C14.1872 10.6666 11.1069 13.743 7.30702 13.743C3.50732 13.743 0.427087 10.6666 0.427087 6.87161C0.427087 3.07641 3.50732 0 7.30702 0C11.1069 0 14.1872 3.07641 14.1872 6.87161Z" fill="#F04F46"/>
<path fill-rule="evenodd" clip-rule="evenodd" d="M0.917605 9.42463C0.917605 9.42463 2.1471 12.2029 0.00598145 13.743C0.00598145 13.743 3.49938 12.6914 4.70932 13.2363L0.917605 9.42463Z" fill="#F04F46"/>
<path fill-rule="evenodd" clip-rule="evenodd" d="M12.3663 6.13734C11.7687 5.14452 10.8183 5.47678 10.7746 5.48566C10.3163 5.56858 9.82304 6.15668 9.82304 6.15668C9.82304 6.15668 9.7098 6.29231 9.69142 6.31225C9.4426 6.59456 9.1762 6.63444 9.03252 6.668C8.88825 6.70176 8.47145 6.69149 8.42521 6.69149C8.35861 6.69248 8.31868 6.66267 8.29319 6.62516C8.21611 6.25895 7.92659 5.97072 7.559 5.8951C7.53568 5.87102 7.52204 5.83667 7.52204 5.78218C7.52322 5.71703 7.57757 5.12241 7.57757 5.12241C7.57757 5.12241 7.62243 4.7635 7.89082 4.52285C7.95287 4.46994 8.01097 4.4196 8.07145 4.37696C8.37343 4.16454 8.62224 3.76023 8.64616 3.69429C9.04478 2.8294 8.44793 2.18542 8.43153 2.16667C7.61512 1.26999 6.69101 1.83106 6.67184 1.84231C5.67796 2.4393 6.01057 3.38849 6.01946 3.43291C6.10246 3.89013 6.69101 4.38288 6.69101 4.38288C6.69101 4.38288 6.82717 4.49581 6.84694 4.51436C7.12974 4.76291 7.16947 5.02903 7.20326 5.17275C7.23706 5.31687 7.22638 5.73302 7.22638 5.77902C7.22757 5.83233 7.208 5.86865 7.18093 5.89432C6.80425 5.96953 6.508 6.26803 6.43764 6.64628C6.41353 6.67056 6.37816 6.68497 6.32243 6.68517C6.25721 6.68379 5.66195 6.6297 5.66195 6.6297C5.66195 6.6297 5.30226 6.58488 5.06194 6.31659C5.00839 6.2546 4.95819 6.19676 4.9155 6.13635C4.70285 5.83489 4.2983 5.58595 4.23229 5.56206C3.36648 5.16387 2.72201 5.76027 2.70303 5.77646C1.8056 6.59199 2.36706 7.51492 2.37813 7.53427C2.97596 8.52748 3.92656 8.19503 3.97043 8.18595C4.42854 8.10303 4.92163 7.51492 4.92163 7.51492C4.92163 7.51492 5.03487 7.37969 5.05305 7.35955C5.30226 7.07705 5.56827 7.03737 5.71234 7.00381C5.85622 6.97024 6.27361 6.98051 6.31907 6.98051C6.38172 6.97952 6.42124 7.00538 6.44654 7.03954C6.53014 7.39351 6.81314 7.67049 7.17065 7.7461C7.20781 7.76998 7.23073 7.80749 7.23093 7.87778C7.22994 7.94253 7.1754 8.53774 7.1754 8.53774C7.1754 8.53774 7.13053 8.89685 6.86215 9.13711C6.80029 9.19041 6.74239 9.24055 6.68172 9.2832C6.37974 9.49581 6.13073 9.89993 6.10681 9.96606C5.70819 10.8306 6.30503 11.4745 6.32183 11.4935C7.13785 12.3902 8.06157 11.8293 8.08153 11.8178C9.07521 11.2209 8.7424 10.2713 8.73351 10.2278C8.6505 9.76983 8.06196 9.27747 8.06196 9.27747C8.06196 9.27747 7.92599 9.16415 7.90643 9.14559C7.62342 8.89724 7.5837 8.63132 7.5501 8.4874C7.51631 8.34368 7.52639 7.92713 7.52658 7.88133C7.5252 7.79644 7.57421 7.75399 7.62481 7.7309C7.65129 7.72339 7.67678 7.7151 7.70228 7.70563L7.70761 7.70444L7.70702 7.70405C7.94971 7.61047 8.14398 7.42056 8.24279 7.18069L8.24319 7.18109L8.24477 7.17576C8.26038 7.13746 8.27362 7.09778 8.2841 7.05711C8.30781 7.01407 8.34556 6.98702 8.42204 6.98683C8.48706 6.98801 9.08272 7.0423 9.08272 7.0423C9.08272 7.0423 9.44221 7.08712 9.68292 7.35501C9.73589 7.417 9.78648 7.47504 9.82897 7.53545C10.0416 7.83691 10.4464 8.08585 10.5124 8.10974C11.3784 8.50793 12.0225 7.91173 12.0416 7.89515C12.9393 7.07961 12.3776 6.15688 12.3663 6.13734Z" fill="#F2F1F0"/>
</svg>
