<svg width="27" height="27" viewBox="0 0 27 27" fill="none" xmlns="http://www.w3.org/2000/svg">
<path fill-rule="evenodd" clip-rule="evenodd" d="M13.5 0C6.04416 0 0 6.04416 0 13.5C0 20.9558 6.04416 27 13.5 27C20.9558 27 27 20.9558 27 13.5C27 6.04416 20.9558 0 13.5 0ZM10.532 6.34361C11.3 6.30866 11.5454 6.30011 13.5008 6.30011H13.4985C15.4546 6.30011 15.6991 6.30866 16.4671 6.34361C17.2336 6.37871 17.7571 6.50006 18.2161 6.67811C18.6901 6.86187 19.0906 7.10787 19.4911 7.50837C19.8916 7.90858 20.1376 8.31028 20.3221 8.78384C20.4991 9.24164 20.6206 9.76485 20.6566 10.5314C20.6911 11.2994 20.7001 11.5448 20.7001 13.5002C20.7001 15.4556 20.6911 15.7004 20.6566 16.4684C20.6206 17.2346 20.4991 17.758 20.3221 18.2159C20.1376 18.6893 19.8916 19.091 19.4911 19.4912C19.091 19.8918 18.6899 20.1384 18.2165 20.3223C17.7584 20.5003 17.2346 20.6217 16.4681 20.6568C15.7001 20.6917 15.4555 20.7003 13.4999 20.7003C11.5446 20.7003 11.2994 20.6917 10.5314 20.6568C9.765 20.6217 9.24164 20.5003 8.78354 20.3223C8.31028 20.1384 7.90858 19.8918 7.50852 19.4912C7.10817 19.091 6.86217 18.6893 6.67811 18.2158C6.50021 17.758 6.37886 17.2348 6.34361 16.4683C6.30881 15.7003 6.30011 15.4556 6.30011 13.5002C6.30011 11.5448 6.30911 11.2992 6.34346 10.5312C6.37796 9.765 6.49946 9.24164 6.67796 8.78369C6.86247 8.31028 7.10847 7.90858 7.50897 7.50837C7.90918 7.10802 8.31088 6.86202 8.78444 6.67811C9.24224 6.50006 9.76545 6.37871 10.532 6.34361Z" fill="#887E7E"/>
<path fill-rule="evenodd" clip-rule="evenodd" d="M12.8549 7.59738C12.9803 7.59718 13.1153 7.59725 13.2609 7.59731L13.5008 7.59738C15.4232 7.59738 15.6511 7.60428 16.4103 7.63878C17.1123 7.67088 17.4933 7.78818 17.7471 7.88673C18.0831 8.01724 18.3226 8.17324 18.5745 8.42524C18.8265 8.67724 18.9825 8.91724 19.1133 9.25325C19.2118 9.50675 19.3293 9.88776 19.3612 10.5898C19.3957 11.3488 19.4032 11.5768 19.4032 13.4983C19.4032 15.4198 19.3957 15.6478 19.3612 16.4068C19.3291 17.1088 19.2118 17.4898 19.1133 17.7433C18.9828 18.0793 18.8265 18.3186 18.5745 18.5704C18.3225 18.8224 18.0832 18.9784 17.7471 19.109C17.4936 19.208 17.1123 19.325 16.4103 19.3571C15.6513 19.3916 15.4232 19.3991 13.5008 19.3991C11.5783 19.3991 11.3504 19.3916 10.5914 19.3571C9.88939 19.3247 9.50839 19.2074 9.25443 19.1088C8.91843 18.9783 8.67843 18.8223 8.42643 18.5703C8.17442 18.3183 8.01842 18.0789 7.88762 17.7427C7.78907 17.4892 7.67162 17.1082 7.63967 16.4062C7.60517 15.6472 7.59827 15.4192 7.59827 13.4965C7.59827 11.5738 7.60517 11.347 7.63967 10.588C7.67177 9.88596 7.78907 9.50495 7.88762 9.25115C8.01812 8.91514 8.17442 8.67514 8.42643 8.42314C8.67843 8.17114 8.91843 8.01514 9.25443 7.88433C9.50824 7.78533 9.88939 7.66833 10.5914 7.63608C11.2556 7.60608 11.513 7.59708 12.8549 7.59558V7.59738ZM17.3441 8.79293C16.8671 8.79293 16.4801 9.17948 16.4801 9.65664C16.4801 10.1336 16.8671 10.5206 17.3441 10.5206C17.8211 10.5206 18.2081 10.1336 18.2081 9.65664C18.2081 9.17963 17.8211 8.79263 17.3441 8.79263V8.79293ZM9.8033 13.4999C9.8033 11.458 11.4588 9.80243 13.5007 9.80235C15.5427 9.80235 17.1978 11.4579 17.1978 13.4999C17.1978 15.5419 15.5428 17.1967 13.5008 17.1967C11.4589 17.1967 9.8033 15.5419 9.8033 13.4999Z" fill="#887E7E"/>
<path fill-rule="evenodd" clip-rule="evenodd" d="M13.5006 11.1001C14.826 11.1001 15.9006 12.1746 15.9006 13.5001C15.9006 14.8255 14.826 15.9001 13.5006 15.9001C12.175 15.9001 11.1006 14.8255 11.1006 13.5001C11.1006 12.1746 12.175 11.1001 13.5006 11.1001V11.1001Z" fill="#887E7E"/>
</svg>
