<svg width="28" height="27" viewBox="0 0 28 27" fill="none" xmlns="http://www.w3.org/2000/svg">
<path fill-rule="evenodd" clip-rule="evenodd" d="M14.4422 0C6.95451 0 0.884521 6.04416 0.884521 13.5C0.884521 20.9558 6.95451 27 14.4422 27C21.9299 27 27.9999 20.9558 27.9999 13.5C27.9999 6.04416 21.9299 0 14.4422 0ZM7.39307 11.1814H10.4655V20.3736H7.39307V11.1814ZM10.668 8.33777C10.648 7.43648 10.0007 6.75 8.94968 6.75C7.8986 6.75 7.21145 7.43648 7.21145 8.33777C7.21145 9.22039 7.87829 9.92663 8.90979 9.92663H8.92943C10.0007 9.92663 10.668 9.22039 10.668 8.33777ZM18.0085 10.9653C20.0303 10.9653 21.5461 12.2794 21.5461 15.1029L21.546 20.3734H18.4736V15.4556C18.4736 14.2203 18.029 13.3774 16.9168 13.3774C16.0679 13.3774 15.5623 13.9456 15.3403 14.4945C15.259 14.6912 15.2391 14.9652 15.2391 15.24V20.3736H12.1663C12.1663 20.3736 12.2068 12.044 12.1663 11.1814H15.2391V12.4834C15.6469 11.8575 16.3772 10.9653 18.0085 10.9653Z" fill="white"/>
</svg>
