<svg width="124" height="186" viewBox="0 0 124 186" fill="none" xmlns="http://www.w3.org/2000/svg">
<path d="M0 0H124V62H0V0Z" fill="#C1B098"/>
<path d="M27.181 40V25.42H33.301V27.292H29.845V31.486H32.563V33.34H29.845V38.164H33.337V40H27.181Z" fill="#F7F7F7"/>
<path d="M38.5522 40.198C37.6762 40.198 36.9442 40.03 36.3562 39.694C35.7682 39.346 35.3242 38.842 35.0242 38.182C34.7242 37.522 34.5562 36.712 34.5202 35.752L36.8062 35.302C36.8302 35.866 36.8962 36.364 37.0042 36.796C37.1242 37.228 37.2982 37.564 37.5262 37.804C37.7662 38.032 38.0782 38.146 38.4622 38.146C38.8942 38.146 39.2002 38.02 39.3802 37.768C39.5602 37.504 39.6502 37.174 39.6502 36.778C39.6502 36.142 39.5062 35.62 39.2182 35.212C38.9302 34.804 38.5463 34.396 38.0662 33.988L36.2302 32.368C35.7142 31.924 35.3002 31.432 34.9882 30.892C34.6882 30.34 34.5382 29.662 34.5382 28.858C34.5382 27.706 34.8742 26.818 35.5462 26.194C36.2182 25.57 37.1362 25.258 38.3002 25.258C38.9842 25.258 39.5543 25.366 40.0103 25.582C40.4662 25.786 40.8263 26.074 41.0903 26.446C41.3663 26.818 41.5702 27.244 41.7022 27.724C41.8342 28.192 41.9183 28.69 41.9543 29.218L39.6862 29.614C39.6622 29.158 39.6082 28.75 39.5243 28.39C39.4523 28.03 39.3142 27.748 39.1102 27.544C38.9182 27.34 38.6302 27.238 38.2462 27.238C37.8502 27.238 37.5442 27.37 37.3282 27.634C37.1242 27.886 37.0222 28.204 37.0222 28.588C37.0222 29.08 37.1242 29.488 37.3282 29.812C37.5322 30.124 37.8262 30.448 38.2102 30.784L40.0282 32.386C40.6283 32.89 41.1382 33.484 41.5582 34.168C41.9902 34.84 42.2062 35.656 42.2062 36.616C42.2062 37.312 42.0502 37.93 41.7382 38.47C41.4382 39.01 41.0122 39.436 40.4602 39.748C39.9202 40.048 39.2843 40.198 38.5522 40.198Z" fill="#F7F7F7"/>
<path d="M45.2328 40V27.382H42.9108V25.42H50.1828V27.382H47.8968V40H45.2328Z" fill="#F7F7F7"/>
<path d="M51.2572 40V37.534H53.6332V40H51.2572Z" fill="#F7F7F7"/>
<path d="M59.4285 40V38.236L63.0285 32.674C63.2925 32.266 63.5385 31.876 63.7665 31.504C64.0065 31.132 64.1985 30.748 64.3425 30.352C64.4985 29.944 64.5765 29.5 64.5765 29.02C64.5765 28.48 64.4805 28.066 64.2885 27.778C64.0965 27.49 63.7965 27.346 63.3885 27.346C63.0045 27.346 62.7045 27.454 62.4885 27.67C62.2725 27.886 62.1225 28.168 62.0385 28.516C61.9665 28.864 61.9305 29.248 61.9305 29.668V30.28H59.4825V29.632C59.4825 28.768 59.6085 28.012 59.8605 27.364C60.1245 26.704 60.5385 26.188 61.1025 25.816C61.6665 25.444 62.4045 25.258 63.3165 25.258C64.5645 25.258 65.5005 25.594 66.1245 26.266C66.7485 26.938 67.0605 27.874 67.0605 29.074C67.0605 29.674 66.9765 30.22 66.8085 30.712C66.6405 31.192 66.4185 31.654 66.1425 32.098C65.8665 32.542 65.5665 32.998 65.2425 33.466L62.2545 38.002H66.6825V40H59.4285Z" fill="#F7F7F7"/>
<path d="M72.4437 40.216C71.5917 40.216 70.8837 40.036 70.3197 39.676C69.7677 39.316 69.3477 38.818 69.0597 38.182C68.7837 37.546 68.6457 36.814 68.6457 35.986V29.524C68.6457 28.672 68.7777 27.928 69.0417 27.292C69.3177 26.644 69.7317 26.14 70.2837 25.78C70.8477 25.42 71.5677 25.24 72.4437 25.24C73.3197 25.24 74.0337 25.42 74.5857 25.78C75.1497 26.14 75.5637 26.644 75.8277 27.292C76.1037 27.928 76.2417 28.672 76.2417 29.524V35.986C76.2417 36.814 76.0977 37.546 75.8097 38.182C75.5337 38.818 75.1137 39.316 74.5497 39.676C73.9977 40.036 73.2957 40.216 72.4437 40.216ZM72.4437 38.074C72.8157 38.074 73.0917 37.96 73.2717 37.732C73.4517 37.504 73.5717 37.228 73.6317 36.904C73.6917 36.58 73.7217 36.262 73.7217 35.95V29.56C73.7217 29.224 73.6917 28.894 73.6317 28.57C73.5837 28.234 73.4697 27.952 73.2897 27.724C73.1097 27.496 72.8277 27.382 72.4437 27.382C72.0597 27.382 71.7777 27.496 71.5977 27.724C71.4177 27.952 71.2977 28.234 71.2377 28.57C71.1897 28.894 71.1657 29.224 71.1657 29.56V35.95C71.1657 36.262 71.1957 36.58 71.2557 36.904C71.3277 37.228 71.4537 37.504 71.6337 37.732C71.8137 37.96 72.0837 38.074 72.4437 38.074Z" fill="#F7F7F7"/>
<path d="M82.059 40.216C81.207 40.216 80.499 40.036 79.935 39.676C79.383 39.316 78.963 38.818 78.675 38.182C78.399 37.546 78.261 36.814 78.261 35.986V29.524C78.261 28.672 78.393 27.928 78.657 27.292C78.933 26.644 79.347 26.14 79.899 25.78C80.463 25.42 81.183 25.24 82.059 25.24C82.935 25.24 83.649 25.42 84.201 25.78C84.765 26.14 85.179 26.644 85.443 27.292C85.719 27.928 85.857 28.672 85.857 29.524V35.986C85.857 36.814 85.713 37.546 85.425 38.182C85.149 38.818 84.729 39.316 84.165 39.676C83.613 40.036 82.911 40.216 82.059 40.216ZM82.059 38.074C82.431 38.074 82.707 37.96 82.887 37.732C83.067 37.504 83.187 37.228 83.247 36.904C83.307 36.58 83.337 36.262 83.337 35.95V29.56C83.337 29.224 83.307 28.894 83.247 28.57C83.199 28.234 83.085 27.952 82.905 27.724C82.725 27.496 82.443 27.382 82.059 27.382C81.675 27.382 81.393 27.496 81.213 27.724C81.033 27.952 80.913 28.234 80.853 28.57C80.805 28.894 80.781 29.224 80.781 29.56V35.95C80.781 36.262 80.811 36.58 80.871 36.904C80.943 37.228 81.069 37.504 81.249 37.732C81.429 37.96 81.699 38.074 82.059 38.074Z" fill="#F7F7F7"/>
<path d="M89.5862 40V28.174C89.5142 28.21 89.3702 28.264 89.1542 28.336C88.9502 28.408 88.7222 28.48 88.4702 28.552C88.2182 28.612 87.9842 28.672 87.7682 28.732C87.5642 28.792 87.4202 28.84 87.3362 28.876V27.022C87.5042 26.962 87.7142 26.878 87.9662 26.77C88.2182 26.662 88.4822 26.542 88.7582 26.41C89.0462 26.266 89.3102 26.11 89.5502 25.942C89.8022 25.774 90.0062 25.6 90.1622 25.42H92.0702V40H89.5862Z" fill="#F7F7F7"/>
<path d="M0 95.1407V186H62.589H124V62H0V95.1407Z" fill="#AA4042"/>
<path d="M110.809 109.906C98.6714 109.526 86.5117 109.615 74.3746 109.906C69.7273 98.4611 66.6818 86.3457 61.3802 75.1915C57.703 86.9492 52.8527 98.2822 48.9047 109.951C36.0908 109.816 23.2769 109.951 10.5532 109.682C21.066 116.969 31.6465 124.055 41.9112 131.633C37.3993 143.435 33.2257 155.417 29.2101 167.398C40.3546 159.999 51.093 151.997 62.4631 145.045C73.4046 152.958 84.5942 160.692 96.3027 167.532C90.9109 155.73 87.2788 143.257 82.3156 131.298C91.5651 123.876 101.694 117.551 110.809 109.906ZM72.457 112.32C82.451 112.566 92.4675 111.895 102.461 112.633C89.1512 117.238 75.5477 120.971 61.9893 124.704C65.5312 120.635 69.0731 116.522 72.4345 112.32H72.457ZM20.1185 113.013C33.6544 117.148 47.1902 120.836 60.726 125.016C55.7845 127.228 50.5978 128.856 45.2726 129.867C36.4298 124.94 28.0094 119.303 20.096 113.013H20.1185ZM61.6735 141.692C52.9203 147.906 44.4379 154.567 35.1659 160.088C43.9416 148.688 52.4015 137.042 61.6961 126.045C61.6735 131.342 61.7186 136.461 61.6735 141.692ZM61.6735 124.368C57.8377 120.589 54.3005 116.524 51.093 112.208C54.7702 102.842 57.3195 93.074 61.5833 83.9092C61.8765 97.4104 61.6961 110.912 61.6284 124.368H61.6735ZM90.0987 159.775C80.2176 148.599 71.2614 136.618 61.8991 124.994C67.4037 127.051 73.179 128.392 78.661 130.56C83.2631 139.948 86.3989 150.007 90.0987 159.775Z" fill="#C1B098"/>
</svg>
