<svg width="124" height="186" viewBox="0 0 124 186" fill="none" xmlns="http://www.w3.org/2000/svg">
<path d="M0 124H124V186H0V124Z" fill="#C1B098"/>
<path d="M27.181 164V149.42H33.301V151.292H29.845V155.486H32.563V157.34H29.845V162.164H33.337V164H27.181Z" fill="#F7F7F7"/>
<path d="M38.5522 164.198C37.6762 164.198 36.9442 164.03 36.3562 163.694C35.7682 163.346 35.3242 162.842 35.0242 162.182C34.7242 161.522 34.5562 160.712 34.5202 159.752L36.8062 159.302C36.8302 159.866 36.8962 160.364 37.0042 160.796C37.1242 161.228 37.2982 161.564 37.5262 161.804C37.7662 162.032 38.0782 162.146 38.4622 162.146C38.8942 162.146 39.2002 162.02 39.3802 161.768C39.5602 161.504 39.6502 161.174 39.6502 160.778C39.6502 160.142 39.5062 159.62 39.2182 159.212C38.9302 158.804 38.5463 158.396 38.0662 157.988L36.2302 156.368C35.7142 155.924 35.3002 155.432 34.9882 154.892C34.6882 154.34 34.5382 153.662 34.5382 152.858C34.5382 151.706 34.8742 150.818 35.5462 150.194C36.2182 149.57 37.1362 149.258 38.3002 149.258C38.9842 149.258 39.5543 149.366 40.0103 149.582C40.4662 149.786 40.8263 150.074 41.0903 150.446C41.3663 150.818 41.5702 151.244 41.7022 151.724C41.8342 152.192 41.9183 152.69 41.9543 153.218L39.6862 153.614C39.6622 153.158 39.6082 152.75 39.5243 152.39C39.4523 152.03 39.3142 151.748 39.1102 151.544C38.9182 151.34 38.6302 151.238 38.2462 151.238C37.8502 151.238 37.5442 151.37 37.3282 151.634C37.1242 151.886 37.0222 152.204 37.0222 152.588C37.0222 153.08 37.1242 153.488 37.3282 153.812C37.5322 154.124 37.8262 154.448 38.2102 154.784L40.0282 156.386C40.6283 156.89 41.1382 157.484 41.5582 158.168C41.9902 158.84 42.2062 159.656 42.2062 160.616C42.2062 161.312 42.0502 161.93 41.7382 162.47C41.4382 163.01 41.0122 163.436 40.4602 163.748C39.9202 164.048 39.2843 164.198 38.5522 164.198Z" fill="#F7F7F7"/>
<path d="M45.2328 164V151.382H42.9108V149.42H50.1828V151.382H47.8968V164H45.2328Z" fill="#F7F7F7"/>
<path d="M51.2572 164V161.534H53.6332V164H51.2572Z" fill="#F7F7F7"/>
<path d="M59.4285 164V162.236L63.0285 156.674C63.2925 156.266 63.5385 155.876 63.7665 155.504C64.0065 155.132 64.1985 154.748 64.3425 154.352C64.4985 153.944 64.5765 153.5 64.5765 153.02C64.5765 152.48 64.4805 152.066 64.2885 151.778C64.0965 151.49 63.7965 151.346 63.3885 151.346C63.0045 151.346 62.7045 151.454 62.4885 151.67C62.2725 151.886 62.1225 152.168 62.0385 152.516C61.9665 152.864 61.9305 153.248 61.9305 153.668V154.28H59.4825V153.632C59.4825 152.768 59.6085 152.012 59.8605 151.364C60.1245 150.704 60.5385 150.188 61.1025 149.816C61.6665 149.444 62.4045 149.258 63.3165 149.258C64.5645 149.258 65.5005 149.594 66.1245 150.266C66.7485 150.938 67.0605 151.874 67.0605 153.074C67.0605 153.674 66.9765 154.22 66.8085 154.712C66.6405 155.192 66.4185 155.654 66.1425 156.098C65.8665 156.542 65.5665 156.998 65.2425 157.466L62.2545 162.002H66.6825V164H59.4285Z" fill="#F7F7F7"/>
<path d="M72.4437 164.216C71.5917 164.216 70.8837 164.036 70.3197 163.676C69.7677 163.316 69.3477 162.818 69.0597 162.182C68.7837 161.546 68.6457 160.814 68.6457 159.986V153.524C68.6457 152.672 68.7777 151.928 69.0417 151.292C69.3177 150.644 69.7317 150.14 70.2837 149.78C70.8477 149.42 71.5677 149.24 72.4437 149.24C73.3197 149.24 74.0337 149.42 74.5857 149.78C75.1497 150.14 75.5637 150.644 75.8277 151.292C76.1037 151.928 76.2417 152.672 76.2417 153.524V159.986C76.2417 160.814 76.0977 161.546 75.8097 162.182C75.5337 162.818 75.1137 163.316 74.5497 163.676C73.9977 164.036 73.2957 164.216 72.4437 164.216ZM72.4437 162.074C72.8157 162.074 73.0917 161.96 73.2717 161.732C73.4517 161.504 73.5717 161.228 73.6317 160.904C73.6917 160.58 73.7217 160.262 73.7217 159.95V153.56C73.7217 153.224 73.6917 152.894 73.6317 152.57C73.5837 152.234 73.4697 151.952 73.2897 151.724C73.1097 151.496 72.8277 151.382 72.4437 151.382C72.0597 151.382 71.7777 151.496 71.5977 151.724C71.4177 151.952 71.2977 152.234 71.2377 152.57C71.1897 152.894 71.1657 153.224 71.1657 153.56V159.95C71.1657 160.262 71.1957 160.58 71.2557 160.904C71.3277 161.228 71.4537 161.504 71.6337 161.732C71.8137 161.96 72.0837 162.074 72.4437 162.074Z" fill="#F7F7F7"/>
<path d="M82.059 164.216C81.207 164.216 80.499 164.036 79.935 163.676C79.383 163.316 78.963 162.818 78.675 162.182C78.399 161.546 78.261 160.814 78.261 159.986V153.524C78.261 152.672 78.393 151.928 78.657 151.292C78.933 150.644 79.347 150.14 79.899 149.78C80.463 149.42 81.183 149.24 82.059 149.24C82.935 149.24 83.649 149.42 84.201 149.78C84.765 150.14 85.179 150.644 85.443 151.292C85.719 151.928 85.857 152.672 85.857 153.524V159.986C85.857 160.814 85.713 161.546 85.425 162.182C85.149 162.818 84.729 163.316 84.165 163.676C83.613 164.036 82.911 164.216 82.059 164.216ZM82.059 162.074C82.431 162.074 82.707 161.96 82.887 161.732C83.067 161.504 83.187 161.228 83.247 160.904C83.307 160.58 83.337 160.262 83.337 159.95V153.56C83.337 153.224 83.307 152.894 83.247 152.57C83.199 152.234 83.085 151.952 82.905 151.724C82.725 151.496 82.443 151.382 82.059 151.382C81.675 151.382 81.393 151.496 81.213 151.724C81.033 151.952 80.913 152.234 80.853 152.57C80.805 152.894 80.781 153.224 80.781 153.56V159.95C80.781 160.262 80.811 160.58 80.871 160.904C80.943 161.228 81.069 161.504 81.249 161.732C81.429 161.96 81.699 162.074 82.059 162.074Z" fill="#F7F7F7"/>
<path d="M89.5862 164V152.174C89.5142 152.21 89.3702 152.264 89.1542 152.336C88.9502 152.408 88.7222 152.48 88.4702 152.552C88.2182 152.612 87.9842 152.672 87.7682 152.732C87.5642 152.792 87.4202 152.84 87.3362 152.876V151.022C87.5042 150.962 87.7142 150.878 87.9662 150.77C88.2182 150.662 88.4822 150.542 88.7582 150.41C89.0462 150.266 89.3102 150.11 89.5502 149.942C89.8022 149.774 90.0062 149.6 90.1622 149.42H92.0702V164H89.5862Z" fill="#F7F7F7"/>
<path d="M0 33.1407V124H62.589H124V0H0V33.1407Z" fill="#8C181B"/>
<path d="M110.809 47.9058C98.6714 47.5258 86.5117 47.6152 74.3746 47.9058C69.7273 36.4611 66.6818 24.3457 61.3802 13.1915C57.703 24.9492 52.8527 36.2822 48.9047 47.9505C36.0908 47.8164 23.2769 47.9505 10.5532 47.6823C21.066 54.9694 31.6465 62.0553 41.9112 69.633C37.3993 81.4354 33.2257 93.4166 29.2101 105.398C40.3546 97.999 51.093 89.9966 62.4631 83.0448C73.4046 90.9578 84.5942 98.6919 96.3027 105.532C90.9109 93.7295 87.2788 81.2566 82.3156 69.2977C91.5651 61.8765 101.694 55.5506 110.809 47.9058ZM72.457 50.3199C82.451 50.5658 92.4675 49.8952 102.461 50.6329C89.1512 55.2376 75.5477 58.9706 61.9893 62.7035C65.5312 58.6353 69.0731 54.5223 72.4345 50.3199H72.457ZM20.1185 51.0129C33.6544 55.1482 47.1902 58.8364 60.726 63.0165C55.7845 65.2277 50.5978 66.8557 45.2726 67.8671C36.4298 62.9399 28.0094 57.303 20.096 51.0129H20.1185ZM61.6735 79.6918C52.9203 85.906 44.4379 92.5672 35.1659 98.0884C43.9416 86.6883 52.4015 75.0424 61.6961 64.0447C61.6735 69.3424 61.7186 74.4612 61.6735 79.6918ZM61.6735 62.3682C57.8377 58.5892 54.3005 54.5239 51.093 50.2082C54.7702 40.8422 57.3195 31.074 61.5833 21.9092C61.8765 35.4104 61.6961 48.9117 61.6284 62.3682H61.6735ZM90.0987 97.7754C80.2176 86.5989 71.2614 74.6177 61.8991 62.9941C67.4037 65.0506 73.179 66.3918 78.661 68.56C83.2631 77.9483 86.3989 88.0072 90.0987 97.7754Z" fill="#EBD092"/>
</svg>
