<svg width="582" height="453" viewBox="0 0 582 453" fill="none" xmlns="http://www.w3.org/2000/svg">
<rect width="26.5719" height="290.872" rx="13.2859" transform="matrix(-0.956369 0.29216 0.29216 0.956369 380.297 48.1031)" fill="#887E7E"/>
<path d="M436.288 322.293L358.421 67.3978L90.915 247.233L113.954 322.648L436.288 322.293Z" fill="#887E7E"/>
<rect width="35.2021" height="78.8715" transform="matrix(-0.956369 0.29216 0.29216 0.956369 91.0466 247.175)" fill="#887E7E"/>
<rect width="19.3836" height="77.5342" rx="9" transform="matrix(0.619368 0.785101 0.785101 -0.619368 436.766 113.121)" fill="#887E7E"/>
<path d="M465.61 157.61C460.859 159.07 458.19 164.105 459.65 168.856L460.057 170.179C461.517 174.93 466.552 177.598 471.303 176.138L528.211 158.651C532.963 157.191 535.631 152.156 534.171 147.405L533.764 146.082C532.304 141.331 527.269 138.663 522.518 140.123L465.61 157.61Z" fill="#887E7E"/>
<rect width="19.3836" height="77.5342" rx="9" transform="matrix(0.0157073 0.999877 0.999877 -0.0157073 473.848 209.316)" fill="#887E7E"/>
<rect width="22.9078" height="98.9563" rx="11.4539" transform="matrix(-0.956369 0.29216 0.29216 0.956369 54.3989 247.56)" fill="#887E7E"/>
<path fill-rule="evenodd" clip-rule="evenodd" d="M133.035 322.322L261.338 322.114L261.363 338.155C261.39 354.724 247.98 368.177 231.412 368.204L163.109 368.314C146.541 368.341 133.088 354.931 133.061 338.362L133.035 322.322ZM151.68 322.293L242.455 322.146L242.482 338.923C242.493 345.551 237.129 350.932 230.502 350.943L163.726 351.05C157.099 351.061 151.717 345.697 151.707 339.07L151.68 322.293Z" fill="#887E7E"/>
</svg>
