<svg width="27" height="27" viewBox="0 0 27 27" fill="none" xmlns="http://www.w3.org/2000/svg">
<path fill-rule="evenodd" clip-rule="evenodd" d="M13.5 0C6.04416 0 0 6.04416 0 13.5C0 20.9558 6.04416 27 13.5 27C20.9558 27 27 20.9558 27 13.5C27 6.04416 20.9558 0 13.5 0ZM9.94179 6.95388C9.85087 6.80373 9.71036 6.76378 9.54643 6.77755C9.51475 6.78168 9.48306 6.78168 9.44311 6.75C9.35189 6.77118 9.26055 6.79175 9.1692 6.81233C8.95152 6.86136 8.73377 6.91041 8.51738 6.96766C8.13442 7.07097 7.83824 7.30241 7.60129 7.61787C7.29961 8.02426 7.09986 8.47886 6.94006 8.95412C6.76235 9.48035 6.70312 10.0149 6.78853 10.57C6.86292 11.0604 7.02822 11.5192 7.19629 11.982C7.47318 12.7493 7.779 13.5015 8.20743 14.1999C8.86453 15.2758 9.6773 16.2208 10.5879 17.0873C11.307 17.7692 12.0839 18.3795 12.938 18.8851C13.8789 19.4402 14.9011 19.8067 15.9384 20.1262C16.4756 20.2943 17.0349 20.3398 17.5956 20.2144C18.2128 20.0767 18.7927 19.8521 19.3121 19.4884C19.4994 19.3548 19.6854 19.1895 19.8162 19.0008C20.129 18.5462 20.2185 18.0172 20.2488 17.4785C20.2598 17.2871 20.1951 17.1479 20.0339 17.0529C19.9254 16.9879 19.8172 16.9217 19.7088 16.8555C19.5188 16.7394 19.3282 16.6229 19.1343 16.5115C18.9463 16.4033 18.7546 16.3012 18.5627 16.199C18.1757 15.9927 17.7881 15.7863 17.4289 15.5293C17.3905 15.5015 17.3454 15.4804 17.3008 15.4594C17.2878 15.4534 17.2749 15.4473 17.2622 15.4411C17.0597 15.3392 16.8669 15.3557 16.6905 15.5045C16.6037 15.5761 16.5142 15.6505 16.4398 15.7345C16.3059 15.8851 16.1738 16.0363 16.0418 16.1872C15.8683 16.3856 15.695 16.5838 15.5182 16.7801C15.1835 17.1534 15.0154 17.1948 14.5842 16.9509C14.1269 16.692 13.6736 16.4206 13.2383 16.1244C12.1087 15.3598 11.2147 14.368 10.5149 13.2012C10.3375 12.9046 10.1759 12.602 10.0141 12.299C10.0038 12.2797 9.99345 12.2604 9.98312 12.241C9.87154 12.0302 9.91424 11.8305 10.0796 11.6707C10.2094 11.5459 10.3445 11.4257 10.4796 11.3055C10.5652 11.2293 10.6509 11.153 10.7353 11.0756C10.8032 11.0134 10.8717 10.9517 10.9403 10.8898C11.1348 10.7146 11.3296 10.5391 11.5109 10.3537C11.683 10.1788 11.6886 9.95837 11.5728 9.73934L11.5641 9.72441C11.5104 9.6327 11.4554 9.53875 11.3979 9.44729C11.374 9.41051 11.3486 9.37444 11.3231 9.33838C11.278 9.2745 11.2329 9.21064 11.1968 9.14285C11.1035 8.97558 11.0127 8.80709 10.922 8.63871C10.7983 8.4091 10.6747 8.17972 10.5452 7.954C10.3662 7.64182 10.178 7.33665 9.99001 7.03204C9.97393 7.00599 9.95786 6.97993 9.94179 6.95388Z" fill="#887E7E"/>
</svg>
