<svg width="798" height="125" viewBox="0 0 798 125" fill="none" xmlns="http://www.w3.org/2000/svg">
<path d="M0 33.4079V125H62.589H124V0H0V33.4079Z" fill="#AA4042"/>
<path d="M111.042 47.9087C98.8798 47.5224 86.695 47.6133 74.5329 47.9087C69.876 36.2724 66.8241 23.9542 61.5117 12.6133C57.8269 24.5678 52.9665 36.0906 49.0104 47.9542C36.1701 47.8178 23.3297 47.9542 10.5798 47.6815C21.1143 55.0905 31.7167 62.2951 42.0025 69.9996C37.4813 81.9996 33.2991 94.1815 29.2752 106.363C40.4427 98.8405 51.2032 90.7042 62.5968 83.636C73.5608 91.6815 84.7735 99.5451 96.5061 106.5C91.1032 94.4996 87.4636 81.8178 82.4903 69.6587C91.7588 62.1133 101.909 55.6815 111.042 47.9087ZM72.6113 50.3633C82.6259 50.6133 92.6631 49.9315 102.678 50.6815C89.34 55.3633 75.7084 59.1587 62.122 62.9542C65.6712 58.8178 69.2204 54.636 72.5887 50.3633H72.6113ZM20.1649 51.0678C33.7286 55.2724 47.2924 59.0224 60.8561 63.2724C55.9044 65.5206 50.707 67.1759 45.3708 68.2042C36.5098 63.1945 28.072 57.4632 20.1423 51.0678H20.1649ZM61.8056 80.2269C53.0343 86.5451 44.5344 93.3178 35.2432 98.9315C44.0371 87.3405 52.5144 75.4996 61.8282 64.3178C61.8056 69.7042 61.8508 74.9087 61.8056 80.2269ZM61.8056 62.6133C57.9618 58.771 54.4173 54.6377 51.2032 50.2496C54.888 40.7269 57.4426 30.7951 61.7151 21.4769C62.009 35.2042 61.8282 48.9315 61.7603 62.6133H61.8056ZM90.2894 98.6133C80.3879 87.2496 71.4132 75.0678 62.0316 63.2496C67.5475 65.3406 73.3347 66.7042 78.828 68.9087C83.4397 78.4542 86.582 88.6815 90.2894 98.6133Z" fill="#C1B098"/>
<path d="M145.651 33.6023H173.748L174.015 42.0984H172.825C172.242 39.4291 171.498 37.6957 170.591 36.8982C169.701 36.0844 167.815 35.6775 164.933 35.6775H162.164V61.2634C162.164 63.2003 162.464 64.4047 163.063 64.8767C163.662 65.3324 164.973 65.6335 166.997 65.78V66.6833H152.499V65.78C154.604 65.6173 155.915 65.2673 156.433 64.7302C156.951 64.1931 157.21 62.8422 157.21 60.6775V35.6775H154.442C151.69 35.6775 149.812 36.0763 148.808 36.8738C147.821 37.6713 147.076 39.4128 146.574 42.0984H145.36L145.651 33.6023Z" fill="#484242"/>
<path d="M175.642 65.78C177.471 65.5847 178.653 65.2592 179.188 64.8035C179.738 64.3315 180.013 63.1514 180.013 61.2634V39.0222C180.013 37.2481 179.746 36.0925 179.212 35.5554C178.678 35.002 177.488 34.6602 175.642 34.53V33.6023H202.063L202.233 40.78H200.97C200.549 38.5665 199.918 37.1342 199.076 36.4832C198.234 35.8321 196.356 35.5066 193.442 35.5066H186.691C185.963 35.5066 185.509 35.6287 185.331 35.8728C185.17 36.1007 185.089 36.5401 185.089 37.1912V48.3484H192.738C194.859 48.3484 196.211 48.031 196.793 47.3962C197.376 46.7615 197.846 45.4757 198.202 43.5388H199.368V55.1111H198.202C197.83 53.1742 197.352 51.8966 196.769 51.2781C196.186 50.6433 194.843 50.3259 192.738 50.3259H185.089V62.7039C185.089 63.6967 185.396 64.2826 186.011 64.4617C186.643 64.6407 188.513 64.7302 191.621 64.7302C194.988 64.7302 197.473 64.364 199.076 63.6316C200.679 62.8829 202.12 61.0844 203.399 58.2361H204.783L202.524 66.6833H175.642V65.78Z" fill="#484242"/>
<path d="M205.997 65.78C207.341 65.6335 208.361 65.2755 209.057 64.7058C209.753 64.1361 211.129 62.5818 213.185 60.0427L220.956 50.4236L215.444 42.3914C213.064 38.9246 211.388 36.768 210.417 35.9216C209.462 35.059 208.183 34.5951 206.58 34.53V33.6023H221.587V34.53C220.147 34.5789 219.208 34.6765 218.771 34.823C218.107 35.0346 217.775 35.4985 217.775 36.2146C217.775 36.6703 217.937 37.2156 218.261 37.8503C218.422 38.1759 218.649 38.5502 218.941 38.9734L224.113 46.4929L229.771 39.6082C230.597 38.6153 231.155 37.8178 231.447 37.2156C231.625 36.8575 231.714 36.532 231.714 36.239C231.714 35.5066 231.358 35.0183 230.645 34.7742C230.208 34.6277 229.415 34.5463 228.266 34.53V33.6023H240.068V34.53C238.74 34.5626 237.712 34.7742 236.984 35.1648C235.834 35.7996 234.409 37.1667 232.71 39.2664L225.4 48.2996L234.944 62.0691C235.964 63.5502 236.814 64.4942 237.494 64.9011C238.173 65.2917 239.169 65.5847 240.48 65.78V66.6833H225.74V65.7068C227.149 65.6742 228.128 65.5522 228.678 65.3406C229.245 65.129 229.528 64.7221 229.528 64.1199C229.528 63.599 229.156 62.7364 228.411 61.532C227.667 60.3276 225.602 57.227 222.219 52.2302L216.342 59.7009C215.484 60.7914 214.885 61.5889 214.545 62.0935C214.011 62.891 213.744 63.4851 213.744 63.8757C213.744 64.5919 214.165 65.0964 215.006 65.3894C215.508 65.5684 216.358 65.6986 217.556 65.78V66.6833H205.997V65.78Z" fill="#484242"/>
<path d="M263.623 53.8416L257.868 40.072L252.185 53.8416H263.623ZM242.156 66.6833V65.78C243.435 65.6335 244.39 65.1453 245.022 64.3152C245.669 63.4851 246.77 61.2309 248.324 57.5525L258.693 33.0164H259.665L272.05 61.3611C272.875 63.2491 273.531 64.421 274.017 64.8767C274.519 65.3162 275.352 65.6173 276.518 65.78V66.6833H263.866V65.78C265.323 65.6498 266.262 65.4952 266.683 65.3162C267.104 65.1208 267.314 64.657 267.314 63.9246C267.314 63.6804 267.233 63.2491 267.071 62.6306C266.91 62.0121 266.683 61.3611 266.392 60.6775L264.327 55.8679H251.311C250.016 59.1394 249.239 61.1414 248.98 61.8738C248.737 62.5899 248.616 63.1596 248.616 63.5828C248.616 64.4291 248.956 65.0151 249.636 65.3406C250.056 65.5359 250.85 65.6824 252.015 65.78V66.6833H242.156Z" fill="#484242"/>
<path d="M280.573 56.6248C281.415 58.8708 282.403 60.6612 283.536 61.9958C285.511 64.3233 287.964 65.4871 290.894 65.4871C292.481 65.4871 293.849 64.9825 294.998 63.9734C296.164 62.9643 296.747 61.5564 296.747 59.7498C296.747 58.1221 296.164 56.7061 294.998 55.5017C294.237 54.7367 292.634 53.5893 290.19 52.0593L285.94 49.3982C284.661 48.5844 283.641 47.7624 282.88 46.9324C281.472 45.3536 280.768 43.6121 280.768 41.7078C280.768 39.185 281.601 37.0854 283.269 35.4089C284.936 33.7325 287.146 32.8943 289.898 32.8943C291.032 32.8943 292.392 33.1791 293.978 33.7488C295.581 34.3022 296.496 34.5789 296.722 34.5789C297.337 34.5789 297.758 34.4324 297.985 34.1394C298.228 33.8464 298.414 33.4314 298.544 32.8943H299.564L300.656 43.5388H299.466C298.657 40.3324 297.354 38.0945 295.557 36.825C293.776 35.5554 292.011 34.9207 290.263 34.9207C288.903 34.9207 287.713 35.3276 286.693 36.1414C285.689 36.9389 285.187 38.0538 285.187 39.4861C285.187 40.7719 285.576 41.8705 286.353 42.782C287.13 43.7097 288.336 44.6781 289.971 45.6873L294.342 48.3972C297.078 50.0899 299.005 51.6443 300.122 53.0603C301.223 54.4926 301.773 56.1853 301.773 58.1384C301.773 60.7589 300.786 62.948 298.811 64.7058C296.852 66.4636 294.342 67.3425 291.283 67.3425C289.745 67.3425 288.134 67.0496 286.45 66.4636C284.783 65.8777 283.827 65.5847 283.585 65.5847C283.002 65.5847 282.605 65.7637 282.395 66.1218C282.2 66.4799 282.071 66.8624 282.006 67.2693H280.913L279.432 56.6248H280.573Z" fill="#484242"/>
<path d="M327.369 49.5691C330.947 49.4389 333.505 49.0645 335.043 48.446C337.681 47.3555 339.001 45.3048 339.001 42.2937C339.001 39.3966 337.819 37.419 335.455 36.3611C334.193 35.7914 332.517 35.5066 330.429 35.5066C329.02 35.5066 328.154 35.6124 327.83 35.824C327.523 36.0193 327.369 36.4913 327.369 37.24V49.5691ZM318.044 65.78C319.954 65.601 321.144 65.2266 321.613 64.657C322.083 64.0873 322.318 62.7608 322.318 60.6775V39.0222C322.318 37.2644 322.051 36.1169 321.516 35.5798C320.998 35.0264 319.841 34.6765 318.044 34.53V33.6023H331.813C334.678 33.6023 337.066 33.9685 338.977 34.7009C342.603 36.0844 344.416 38.6316 344.416 42.3425C344.416 44.8328 343.607 46.7452 341.988 48.0798C340.385 49.4145 338.199 50.2934 335.431 50.7166L345.679 63.3874C346.31 64.1687 346.942 64.7384 347.573 65.0964C348.204 65.4545 349.014 65.6824 350.001 65.78V66.6833H341.988L330.137 51.3025L327.369 51.4246V61.2634C327.369 63.1189 327.644 64.2989 328.194 64.8035C328.761 65.2917 329.983 65.6173 331.861 65.78V66.6833H318.044V65.78Z" fill="#484242"/>
<path d="M372.853 53.8416L367.097 40.072L361.415 53.8416H372.853ZM351.386 66.6833V65.78C352.665 65.6335 353.62 65.1453 354.251 64.3152C354.899 63.4851 356 61.2309 357.554 57.5525L367.923 33.0164H368.894L381.279 61.3611C382.105 63.2491 382.761 64.421 383.246 64.8767C383.748 65.3162 384.582 65.6173 385.748 65.78V66.6833H373.096V65.78C374.553 65.6498 375.492 65.4952 375.913 65.3162C376.333 65.1208 376.544 64.657 376.544 63.9246C376.544 63.6804 376.463 63.2491 376.301 62.6306C376.139 62.0121 375.913 61.3611 375.621 60.6775L373.557 55.8679H360.541C359.246 59.1394 358.469 61.1414 358.209 61.8738C357.967 62.5899 357.845 63.1596 357.845 63.5828C357.845 64.4291 358.185 65.0151 358.865 65.3406C359.286 65.5359 360.079 65.6824 361.245 65.78V66.6833H351.386Z" fill="#484242"/>
<path d="M387.156 65.78C389.212 65.5684 390.532 65.1046 391.114 64.3884C391.697 63.656 391.989 61.9714 391.989 59.3347V37.2888L391.309 36.4832C390.58 35.6205 389.957 35.0916 389.439 34.8962C388.937 34.6847 388.176 34.5626 387.156 34.53V33.6023H395.68L414.84 57.6746V40.9509C414.84 38.2003 414.435 36.4099 413.626 35.5798C413.091 35.0427 411.91 34.6928 410.08 34.53V33.6023H421.761V34.53C419.867 34.7253 418.604 35.1892 417.973 35.9216C417.341 36.6541 417.025 38.3305 417.025 40.9509V67.2693H416.175L394.174 39.8523V59.3347C394.174 62.0691 394.571 63.8513 395.364 64.6814C395.882 65.2185 397.04 65.5847 398.837 65.78V66.6833H387.156V65.78Z" fill="#484242"/>
<path d="M440.945 33.0164C442.742 33.0164 444.588 33.2849 446.482 33.822C448.376 34.3591 449.437 34.6277 449.663 34.6277C450.133 34.6277 450.578 34.4975 450.999 34.2371C451.42 33.9766 451.711 33.5697 451.873 33.0164H452.917L453.379 44.2468H452.237C451.574 42.017 450.707 40.2185 449.639 38.8513C447.599 36.2797 444.855 34.9939 441.407 34.9939C437.926 34.9939 435.077 36.3774 432.859 39.1443C430.657 41.9112 429.556 45.7198 429.556 50.5701C429.556 55.0297 430.714 58.5942 433.029 61.2634C435.36 63.9164 438.306 65.2429 441.868 65.2429C444.442 65.2429 446.814 64.6244 448.983 63.3874C450.23 62.6876 451.598 61.6296 453.087 60.2136L454.01 61.1414C452.909 62.5411 451.541 63.7699 449.906 64.8279C447.121 66.6182 444.102 67.5134 440.848 67.5134C435.506 67.5134 431.264 65.7963 428.123 62.3621C425.225 59.1882 423.776 55.225 423.776 50.4724C423.776 45.6059 425.306 41.5206 428.366 38.2166C431.588 34.7498 435.781 33.0164 440.945 33.0164Z" fill="#484242"/>
<path d="M456.511 65.78C458.454 65.5684 459.668 65.2104 460.154 64.7058C460.64 64.185 460.882 62.8422 460.882 60.6775V39.0222C460.882 37.2319 460.607 36.0681 460.057 35.531C459.522 34.9939 458.341 34.6602 456.511 34.53V33.6023H470.329V34.53C468.5 34.6602 467.31 34.9939 466.759 35.531C466.209 36.0681 465.934 37.2319 465.934 39.0222V48.7634H481.014V39.0222C481.014 37.2319 480.747 36.0681 480.212 35.531C479.678 34.9939 478.488 34.6602 476.643 34.53V33.6023H490.46V34.53C488.631 34.6602 487.441 34.9939 486.891 35.531C486.356 36.0681 486.089 37.2319 486.089 39.0222V61.2634C486.089 63.0863 486.356 64.2582 486.891 64.779C487.441 65.2836 488.631 65.6173 490.46 65.78V66.6833H476.643V65.78C478.602 65.5847 479.816 65.2266 480.285 64.7058C480.771 64.185 481.014 62.8422 481.014 60.6775V50.9607H465.934V61.2634C465.934 63.0863 466.209 64.2582 466.759 64.779C467.31 65.2999 468.5 65.6335 470.329 65.78V66.6833H456.511V65.78Z" fill="#484242"/>
<path d="M492.209 65.78C494.038 65.5847 495.22 65.2592 495.754 64.8035C496.305 64.3315 496.58 63.1514 496.58 61.2634V39.0222C496.58 37.2481 496.313 36.0925 495.779 35.5554C495.244 35.002 494.054 34.6602 492.209 34.53V33.6023H518.63L518.8 40.78H517.537C517.116 38.5665 516.485 37.1342 515.643 36.4832C514.801 35.8321 512.923 35.5066 510.009 35.5066H503.258C502.53 35.5066 502.076 35.6287 501.898 35.8728C501.736 36.1007 501.655 36.5401 501.655 37.1912V48.3484H509.305C511.426 48.3484 512.777 48.031 513.36 47.3962C513.943 46.7615 514.413 45.4757 514.769 43.5388H515.934V55.1111H514.769C514.396 53.1742 513.919 51.8966 513.336 51.2781C512.753 50.6433 511.409 50.3259 509.305 50.3259H501.655V62.7039C501.655 63.6967 501.963 64.2826 502.578 64.4617C503.21 64.6407 505.079 64.7302 508.188 64.7302C511.555 64.7302 514.04 64.364 515.643 63.6316C517.246 62.8829 518.687 61.0844 519.965 58.2361H521.35L519.091 66.6833H492.209V65.78Z" fill="#484242"/>
<path d="M525.259 56.6248C526.101 58.8708 527.089 60.6612 528.222 61.9958C530.197 64.3233 532.65 65.4871 535.58 65.4871C537.167 65.4871 538.535 64.9825 539.684 63.9734C540.85 62.9643 541.433 61.5564 541.433 59.7498C541.433 58.1221 540.85 56.7061 539.684 55.5017C538.923 54.7367 537.32 53.5893 534.876 52.0593L530.626 49.3982C529.347 48.5844 528.327 47.7624 527.566 46.9324C526.158 45.3536 525.454 43.6121 525.454 41.7078C525.454 39.185 526.287 37.0854 527.955 35.4089C529.622 33.7325 531.832 32.8943 534.584 32.8943C535.718 32.8943 537.078 33.1791 538.664 33.7488C540.267 34.3022 541.182 34.5789 541.408 34.5789C542.023 34.5789 542.444 34.4324 542.671 34.1394C542.914 33.8464 543.1 33.4314 543.23 32.8943H544.25L545.342 43.5388H544.152C543.343 40.3324 542.04 38.0945 540.243 36.825C538.462 35.5554 536.697 34.9207 534.949 34.9207C533.589 34.9207 532.399 35.3276 531.379 36.1414C530.375 36.9389 529.873 38.0538 529.873 39.4861C529.873 40.7719 530.262 41.8705 531.039 42.782C531.816 43.7097 533.022 44.6781 534.657 45.6873L539.028 48.3972C541.764 50.0899 543.691 51.6443 544.808 53.0603C545.909 54.4926 546.459 56.1853 546.459 58.1384C546.459 60.7589 545.472 62.948 543.497 64.7058C541.538 66.4636 539.028 67.3425 535.969 67.3425C534.431 67.3425 532.82 67.0496 531.136 66.4636C529.469 65.8777 528.513 65.5847 528.271 65.5847C527.688 65.5847 527.291 65.7637 527.081 66.1218C526.886 66.4799 526.757 66.8624 526.692 67.2693H525.599L524.118 56.6248H525.259Z" fill="#484242"/>
<path d="M562.73 65.78C564.689 65.5684 565.903 65.2104 566.372 64.7058C566.858 64.185 567.101 62.8422 567.101 60.6775V39.0222C567.101 37.2481 566.834 36.0925 566.299 35.5554C565.765 35.002 564.575 34.6602 562.73 34.53V33.6023H589.224L589.394 40.78H588.009C587.669 38.4851 587.03 37.0365 586.091 36.4343C585.152 35.8158 583.298 35.5066 580.53 35.5066H573.73C573.067 35.5066 572.638 35.6205 572.443 35.8484C572.265 36.0763 572.176 36.5238 572.176 37.1912V48.3484H579.364C581.485 48.3484 582.837 48.031 583.42 47.3962C584.003 46.7615 584.472 45.4757 584.828 43.5388H585.994V55.1111H584.828C584.456 53.1742 583.978 51.8966 583.395 51.2781C582.813 50.6433 581.469 50.3259 579.364 50.3259H572.176V61.2634C572.176 63.1026 572.451 64.2826 573.002 64.8035C573.568 65.308 574.791 65.6335 576.669 65.78V66.6833H562.73V65.78Z" fill="#484242"/>
<path d="M596.97 50.155C596.97 55.4122 597.998 59.3022 600.054 61.8249C602.11 64.3315 604.636 65.5847 607.631 65.5847C610.561 65.5847 613.062 64.364 615.135 61.9226C617.223 59.4649 618.267 55.5424 618.267 50.155C618.267 44.7026 617.215 40.7638 615.11 38.3386C613.006 35.9135 610.513 34.7009 607.631 34.7009C604.652 34.7009 602.126 35.9623 600.054 38.4851C597.998 40.9916 596.97 44.8816 596.97 50.155ZM591.336 50.155C591.336 44.8165 593.004 40.5359 596.339 37.3132C599.399 34.3673 603.163 32.8943 607.631 32.8943C612.115 32.8943 615.887 34.3754 618.947 37.3376C622.266 40.544 623.925 44.8165 623.925 50.155C623.925 55.5749 622.209 59.8881 618.777 63.0945C615.701 65.9591 611.986 67.3914 607.631 67.3914C602.968 67.3914 599.099 65.8044 596.023 62.6306C592.899 59.3917 591.336 55.2332 591.336 50.155Z" fill="#484242"/>
<path d="M635.679 49.5691C639.257 49.4389 641.815 49.0645 643.353 48.446C645.992 47.3555 647.311 45.3048 647.311 42.2937C647.311 39.3966 646.129 37.419 643.766 36.3611C642.503 35.7914 640.827 35.5066 638.739 35.5066C637.33 35.5066 636.464 35.6124 636.14 35.824C635.833 36.0193 635.679 36.4913 635.679 37.24V49.5691ZM626.354 65.78C628.264 65.601 629.454 65.2266 629.924 64.657C630.393 64.0873 630.628 62.7608 630.628 60.6775V39.0222C630.628 37.2644 630.361 36.1169 629.826 35.5798C629.308 35.0264 628.151 34.6765 626.354 34.53V33.6023H640.123C642.988 33.6023 645.376 33.9685 647.287 34.7009C650.913 36.0844 652.726 38.6316 652.726 42.3425C652.726 44.8328 651.917 46.7452 650.298 48.0798C648.695 49.4145 646.51 50.2934 643.741 50.7166L653.989 63.3874C654.62 64.1687 655.252 64.7384 655.883 65.0964C656.515 65.4545 657.324 65.6824 658.312 65.78V66.6833H650.298L638.447 51.3025L635.679 51.4246V61.2634C635.679 63.1189 635.954 64.2989 636.505 64.8035C637.071 65.2917 638.294 65.6173 640.171 65.78V66.6833H626.354V65.78Z" fill="#484242"/>
<path d="M674.606 56.6248C675.448 58.8708 676.436 60.6612 677.569 61.9958C679.544 64.3233 681.997 65.4871 684.927 65.4871C686.514 65.4871 687.882 64.9825 689.031 63.9734C690.197 62.9643 690.779 61.5564 690.779 59.7498C690.779 58.1221 690.197 56.7061 689.031 55.5017C688.27 54.7367 686.667 53.5893 684.223 52.0593L679.973 49.3982C678.694 48.5844 677.674 47.7624 676.913 46.9324C675.505 45.3536 674.801 43.6121 674.801 41.7078C674.801 39.185 675.634 37.0854 677.302 35.4089C678.969 33.7325 681.179 32.8943 683.931 32.8943C685.065 32.8943 686.424 33.1791 688.011 33.7488C689.614 34.3022 690.529 34.5789 690.755 34.5789C691.37 34.5789 691.791 34.4324 692.018 34.1394C692.261 33.8464 692.447 33.4314 692.576 32.8943H693.596L694.689 43.5388H693.499C692.69 40.3324 691.387 38.0945 689.589 36.825C687.809 35.5554 686.044 34.9207 684.296 34.9207C682.936 34.9207 681.746 35.3276 680.726 36.1414C679.722 36.9389 679.22 38.0538 679.22 39.4861C679.22 40.7719 679.609 41.8705 680.386 42.782C681.163 43.7097 682.369 44.6781 684.004 45.6873L688.375 48.3972C691.111 50.0899 693.038 51.6443 694.155 53.0603C695.256 54.4926 695.806 56.1853 695.806 58.1384C695.806 60.7589 694.819 62.948 692.844 64.7058C690.885 66.4636 688.375 67.3425 685.315 67.3425C683.778 67.3425 682.167 67.0496 680.483 66.4636C678.815 65.8777 677.86 65.5847 677.617 65.5847C677.035 65.5847 676.638 65.7637 676.428 66.1218C676.233 66.4799 676.104 66.8624 676.039 67.2693H674.946L673.465 56.6248H674.606Z" fill="#484242"/>
<path d="M721.28 53.8416L715.525 40.072L709.842 53.8416H721.28ZM699.813 66.6833V65.78C701.092 65.6335 702.047 65.1453 702.679 64.3152C703.326 63.4851 704.427 61.2309 705.981 57.5525L716.351 33.0164H717.322L729.707 61.3611C730.532 63.2491 731.188 64.421 731.674 64.8767C732.176 65.3162 733.009 65.6173 734.175 65.78V66.6833H721.523V65.78C722.98 65.6498 723.919 65.4952 724.34 65.3162C724.761 65.1208 724.971 64.657 724.971 63.9246C724.971 63.6804 724.89 63.2491 724.729 62.6306C724.567 62.0121 724.34 61.3611 724.049 60.6775L721.984 55.8679H708.968C707.673 59.1394 706.896 61.1414 706.637 61.8738C706.394 62.5899 706.273 63.1596 706.273 63.5828C706.273 64.4291 706.613 65.0151 707.293 65.3406C707.714 65.5359 708.507 65.6824 709.672 65.78V66.6833H699.813Z" fill="#484242"/>
<path d="M735.583 65.78C737.413 65.5847 738.595 65.2592 739.129 64.8035C739.679 64.3315 739.955 63.1514 739.955 61.2634V39.0222C739.955 37.2481 739.688 36.0925 739.153 35.5554C738.619 35.002 737.429 34.6602 735.583 34.53V33.6023H749.644V34.53C747.815 34.6277 746.584 34.9288 745.953 35.4333C745.338 35.9379 745.03 37.0203 745.03 38.6804V62.7039C745.03 63.2572 745.119 63.6967 745.297 64.0222C745.491 64.3315 745.904 64.5268 746.536 64.6082C746.908 64.657 747.297 64.6895 747.701 64.7058C748.122 64.7221 748.899 64.7302 750.032 64.7302C754.452 64.7302 757.439 64.364 758.993 63.6316C760.547 62.8992 762.053 61.0274 763.51 58.0164H764.773L762.344 66.6833H735.583V65.78Z" fill="#484242"/>
<path d="M765.987 65.78C767.816 65.5847 768.998 65.2592 769.533 64.8035C770.083 64.3315 770.358 63.1514 770.358 61.2634V39.0222C770.358 37.2481 770.091 36.0925 769.557 35.5554C769.023 35.002 767.833 34.6602 765.987 34.53V33.6023H792.408L792.578 40.78H791.315C790.894 38.5665 790.263 37.1342 789.421 36.4832C788.579 35.8321 786.701 35.5066 783.787 35.5066H777.036C776.308 35.5066 775.854 35.6287 775.676 35.8728C775.515 36.1007 775.434 36.5401 775.434 37.1912V48.3484H783.083C785.204 48.3484 786.556 48.031 787.138 47.3962C787.721 46.7615 788.191 45.4757 788.547 43.5388H789.713V55.1111H788.547C788.175 53.1742 787.697 51.8966 787.114 51.2781C786.531 50.6433 785.188 50.3259 783.083 50.3259H775.434V62.7039C775.434 63.6967 775.741 64.2826 776.356 64.4617C776.988 64.6407 778.858 64.7302 781.966 64.7302C785.333 64.7302 787.818 64.364 789.421 63.6316C791.024 62.8829 792.465 61.0844 793.744 58.2361H795.128L792.87 66.6833H765.987V65.78Z" fill="#484242"/>
<path d="M145.756 101L148.472 88.1504H149.948L147.505 99.6641H152.541L152.26 101H145.756Z" fill="#6D6465"/>
<path d="M154.387 101L157.12 88.1504H158.579L155.846 101H154.387Z" fill="#6D6465"/>
<path d="M161.611 101L160.196 88.1504H161.664L162.525 96.5088C162.561 96.8252 162.59 97.1475 162.613 97.4756C162.643 97.7979 162.663 98.1143 162.675 98.4248C162.687 98.7354 162.689 99.0283 162.684 99.3037H162.719C162.836 99.0283 162.962 98.7441 163.097 98.4512C163.237 98.1582 163.387 97.8506 163.545 97.5283C163.709 97.2061 163.885 96.8633 164.072 96.5L168.396 88.1504H170.04L163.185 101H161.611Z" fill="#6D6465"/>
<path d="M169.17 101L171.886 88.1504H178.398L178.117 89.4688H173.09L172.202 93.626H176.913L176.658 94.9268H171.938L170.919 99.6816H175.955L175.674 101H169.17Z" fill="#6D6465"/>
<path d="M184.902 101L184.349 88.1504H185.808L186.089 96.1924C186.106 96.6729 186.106 97.168 186.089 97.6777C186.077 98.1816 186.057 98.668 186.027 99.1367H186.08C186.25 98.6797 186.446 98.167 186.669 97.5986C186.897 97.0244 187.138 96.4766 187.39 95.9551L191.046 88.1504H192.549L192.944 95.9287C192.979 96.4678 193.003 97.0303 193.015 97.6162C193.026 98.2021 193.029 98.7119 193.023 99.1455H193.076C193.182 98.8467 193.293 98.5332 193.41 98.2051C193.527 97.8711 193.65 97.5312 193.779 97.1855C193.908 96.8398 194.046 96.4941 194.192 96.1484L197.682 88.1504H199.255L193.428 101H191.916L191.494 92.4834C191.477 92.2256 191.462 91.9561 191.45 91.6748C191.438 91.3936 191.43 91.1152 191.424 90.8398C191.424 90.5645 191.424 90.3066 191.424 90.0664H191.371C191.26 90.418 191.128 90.7725 190.976 91.1299C190.823 91.4873 190.621 91.9414 190.369 92.4922L186.423 101H184.902Z" fill="#6D6465"/>
<path d="M196.724 101L203.764 88.1504H205.319L206.945 101H205.478L204.968 96.9043H200.529L198.35 101H196.724ZM201.241 95.5771H204.818L204.476 92.5801C204.435 92.1465 204.391 91.6719 204.344 91.1562C204.297 90.6348 204.268 90.1689 204.256 89.7588H204.203C204.016 90.2041 203.802 90.6729 203.562 91.165C203.327 91.6514 203.078 92.1436 202.814 92.6416L201.241 95.5771Z" fill="#6D6465"/>
<path d="M210.593 101L213.036 89.4688H209.45L209.731 88.1504H218.397L218.134 89.4688H214.548L212.096 101H210.593Z" fill="#6D6465"/>
<path d="M217.562 101L220.278 88.1504H226.791L226.51 89.4688H221.482L220.595 93.626H225.306L225.051 94.9268H220.331L219.312 99.6816H224.348L224.066 101H217.562Z" fill="#6D6465"/>
<path d="M226.861 101L229.577 88.1504H232.39C233.702 88.1504 234.687 88.4229 235.343 88.9678C235.999 89.5068 236.327 90.3066 236.327 91.3672C236.327 92 236.219 92.5771 236.002 93.0986C235.785 93.6143 235.437 94.0596 234.956 94.4346C234.481 94.8096 233.857 95.1025 233.084 95.3135L235.193 101H233.576L231.713 95.6387H229.472L228.338 101H226.861ZM229.735 94.373H231.291C231.883 94.373 232.398 94.3057 232.838 94.1709C233.277 94.0303 233.641 93.834 233.928 93.582C234.221 93.3301 234.438 93.0254 234.578 92.668C234.725 92.3105 234.798 91.9121 234.798 91.4727C234.798 90.7285 234.584 90.2041 234.156 89.8994C233.734 89.5947 233.096 89.4424 232.24 89.4424H230.799L229.735 94.373Z" fill="#6D6465"/>
<path d="M250.478 105.342V87.3242H251.682V105.342H250.478Z" fill="#6D6465"/>
<path d="M265.779 101L268.495 88.1504H269.98L268.812 93.626H274.683L275.843 88.1504H277.302L274.586 101H273.118L274.393 94.9443H268.53L267.256 101H265.779Z" fill="#6D6465"/>
<path d="M282.654 101.176C281.775 101.176 281.043 101.038 280.457 100.763C279.871 100.487 279.432 100.086 279.139 99.5586C278.846 99.0312 278.699 98.3867 278.699 97.625C278.699 97.4199 278.717 97.1738 278.752 96.8867C278.787 96.5996 278.837 96.292 278.901 95.9639L280.571 88.1504H282.057L280.378 96.043C280.313 96.3125 280.264 96.5938 280.229 96.8867C280.193 97.1797 280.176 97.4199 280.176 97.6074C280.176 98.3164 280.393 98.8701 280.826 99.2686C281.26 99.667 281.898 99.8662 282.742 99.8662C283.463 99.8662 284.063 99.7402 284.544 99.4883C285.024 99.2305 285.411 98.8525 285.704 98.3545C286.003 97.8506 286.231 97.2266 286.39 96.4824L288.174 88.1504H289.65L287.857 96.6055C287.658 97.5605 287.348 98.3809 286.926 99.0664C286.504 99.7461 285.944 100.268 285.247 100.631C284.55 100.994 283.686 101.176 282.654 101.176Z" fill="#6D6465"/>
<path d="M290.213 101L292.929 88.1504H294.493L298.562 98.9082H298.606C298.647 98.6152 298.7 98.2754 298.765 97.8887C298.829 97.4961 298.902 97.0889 298.984 96.667C299.066 96.2393 299.148 95.832 299.23 95.4453L300.795 88.1504H302.201L299.485 101H297.921L293.825 90.2158H293.781C293.752 90.415 293.714 90.6523 293.667 90.9277C293.626 91.2031 293.576 91.502 293.518 91.8242C293.465 92.1465 293.406 92.4775 293.342 92.8174C293.277 93.1514 293.21 93.4766 293.14 93.793L291.619 101H290.213Z" fill="#6D6465"/>
<path d="M304.917 101L307.36 89.4688H303.774L304.056 88.1504H312.722L312.458 89.4688H308.872L306.42 101H304.917Z" fill="#6D6465"/>
<path d="M311.887 101L314.62 88.1504H316.079L313.346 101H311.887Z" fill="#6D6465"/>
<path d="M316.756 101L319.472 88.1504H321.036L325.105 98.9082H325.149C325.19 98.6152 325.243 98.2754 325.308 97.8887C325.372 97.4961 325.445 97.0889 325.527 96.667C325.609 96.2393 325.691 95.832 325.773 95.4453L327.338 88.1504H328.744L326.028 101H324.464L320.368 90.2158H320.324C320.295 90.415 320.257 90.6523 320.21 90.9277C320.169 91.2031 320.119 91.502 320.061 91.8242C320.008 92.1465 319.949 92.4775 319.885 92.8174C319.82 93.1514 319.753 93.4766 319.683 93.793L318.162 101H316.756Z" fill="#6D6465"/>
<path d="M334.844 101.176C333.326 101.176 332.14 100.751 331.284 99.9014C330.435 99.0459 330.01 97.8535 330.01 96.3242C330.01 95.375 330.118 94.4814 330.335 93.6436C330.552 92.7998 330.862 92.0322 331.267 91.3408C331.677 90.6436 332.166 90.043 332.734 89.5391C333.309 89.0352 333.947 88.6484 334.65 88.3789C335.359 88.1035 336.121 87.9658 336.936 87.9658C337.703 87.9658 338.38 88.0332 338.966 88.168C339.552 88.3027 340.111 88.4873 340.645 88.7217L340.073 90.0225C339.622 89.8174 339.136 89.6445 338.614 89.5039C338.093 89.3574 337.527 89.2842 336.918 89.2842C336.162 89.2842 335.459 89.4541 334.809 89.7939C334.164 90.1279 333.599 90.6055 333.112 91.2266C332.632 91.8477 332.257 92.583 331.987 93.4326C331.718 94.2764 331.583 95.208 331.583 96.2275C331.583 96.9307 331.706 97.5576 331.952 98.1084C332.204 98.6533 332.582 99.084 333.086 99.4004C333.59 99.7109 334.226 99.8662 334.993 99.8662C335.468 99.8662 335.907 99.8311 336.312 99.7607C336.716 99.6846 337.062 99.5996 337.349 99.5059L338.201 95.5859H335.564L335.846 94.2852H339.968L338.614 100.499C338.069 100.698 337.489 100.862 336.874 100.991C336.265 101.114 335.588 101.176 334.844 101.176Z" fill="#6D6465"/>
<path d="M354.997 105.342V87.3242H356.201V105.342H354.997Z" fill="#6D6465"/>
<path d="M370.281 101L372.997 88.1504H374.474L372.03 99.6641H377.066L376.785 101H370.281Z" fill="#6D6465"/>
<path d="M378.912 101L381.628 88.1504H388.141L387.859 89.4688H382.832L381.944 93.626H386.655L386.4 94.9268H381.681L380.661 99.6816H385.697L385.416 101H378.912Z" fill="#6D6465"/>
<path d="M393.607 101.176C392.09 101.176 390.903 100.751 390.048 99.9014C389.198 99.0459 388.773 97.8535 388.773 96.3242C388.773 95.375 388.882 94.4814 389.099 93.6436C389.315 92.7998 389.626 92.0322 390.03 91.3408C390.44 90.6436 390.93 90.043 391.498 89.5391C392.072 89.0352 392.711 88.6484 393.414 88.3789C394.123 88.1035 394.885 87.9658 395.699 87.9658C396.467 87.9658 397.144 88.0332 397.729 88.168C398.315 88.3027 398.875 88.4873 399.408 88.7217L398.837 90.0225C398.386 89.8174 397.899 89.6445 397.378 89.5039C396.856 89.3574 396.291 89.2842 395.682 89.2842C394.926 89.2842 394.223 89.4541 393.572 89.7939C392.928 90.1279 392.362 90.6055 391.876 91.2266C391.396 91.8477 391.021 92.583 390.751 93.4326C390.481 94.2764 390.347 95.208 390.347 96.2275C390.347 96.9307 390.47 97.5576 390.716 98.1084C390.968 98.6533 391.346 99.084 391.85 99.4004C392.354 99.7109 392.989 99.8662 393.757 99.8662C394.231 99.8662 394.671 99.8311 395.075 99.7607C395.479 99.6846 395.825 99.5996 396.112 99.5059L396.965 95.5859H394.328L394.609 94.2852H398.731L397.378 100.499C396.833 100.698 396.253 100.862 395.638 100.991C395.028 101.114 394.352 101.176 393.607 101.176Z" fill="#6D6465"/>
<path d="M398.679 101L405.719 88.1504H407.274L408.9 101H407.433L406.923 96.9043H402.484L400.305 101H398.679ZM403.196 95.5771H406.773L406.431 92.5801C406.39 92.1465 406.346 91.6719 406.299 91.1562C406.252 90.6348 406.223 90.1689 406.211 89.7588H406.158C405.971 90.2041 405.757 90.6729 405.517 91.165C405.282 91.6514 405.033 92.1436 404.77 92.6416L403.196 95.5771Z" fill="#6D6465"/>
<path d="M415.65 101.176C414.695 101.176 413.878 100.977 413.198 100.578C412.524 100.18 412.006 99.6143 411.643 98.8818C411.279 98.1436 411.098 97.2676 411.098 96.2539C411.098 95.457 411.191 94.6631 411.379 93.8721C411.566 93.0752 411.845 92.3252 412.214 91.6221C412.589 90.9131 413.055 90.2861 413.611 89.7412C414.168 89.1904 414.815 88.7568 415.554 88.4404C416.298 88.124 417.13 87.9658 418.05 87.9658C418.659 87.9658 419.216 88.0244 419.72 88.1416C420.229 88.2588 420.707 88.4375 421.152 88.6777L420.563 89.917C420.224 89.7354 419.849 89.5859 419.438 89.4688C419.034 89.3457 418.571 89.2842 418.05 89.2842C417.329 89.2842 416.682 89.416 416.107 89.6797C415.533 89.9375 415.029 90.2949 414.596 90.752C414.168 91.2031 413.811 91.7246 413.523 92.3164C413.242 92.9082 413.028 93.5381 412.882 94.2061C412.741 94.8682 412.671 95.5391 412.671 96.2188C412.671 97.3438 412.955 98.2344 413.523 98.8906C414.098 99.541 414.892 99.8662 415.905 99.8662C416.415 99.8662 416.907 99.8164 417.382 99.7168C417.862 99.6172 418.328 99.4912 418.779 99.3389V100.64C418.322 100.804 417.851 100.933 417.364 101.026C416.884 101.126 416.312 101.176 415.65 101.176Z" fill="#6D6465"/>
<path d="M423.104 101L424.149 96.166L422.022 88.1504H423.508L425.116 94.6982L429.458 88.1504H431.137L425.6 96.21L424.606 101H423.104Z" fill="#6D6465"/>
<path d="M443.556 105.342V87.3242H444.76V105.342H443.556Z" fill="#6D6465"/>
<path d="M454.182 101L456.897 88.1504H458.383L457.214 93.626H463.085L464.245 88.1504H465.704L462.988 101H461.521L462.795 94.9443H456.933L455.658 101H454.182Z" fill="#6D6465"/>
<path d="M471.716 101.176C470.685 101.176 469.814 100.971 469.105 100.561C468.402 100.15 467.872 99.5703 467.515 98.8203C467.157 98.0703 466.979 97.1885 466.979 96.1748C466.979 95.4424 467.043 94.7334 467.172 94.0479C467.307 93.3623 467.5 92.7148 467.752 92.1055C468.004 91.4902 468.314 90.9307 468.684 90.4268C469.059 89.917 469.486 89.4775 469.967 89.1084C470.447 88.7393 470.978 88.4551 471.558 88.2559C472.144 88.0508 472.776 87.9482 473.456 87.9482C474.897 87.9482 476.022 88.3965 476.831 89.293C477.646 90.1836 478.053 91.4229 478.053 93.0107C478.053 93.7197 477.994 94.4141 477.877 95.0938C477.76 95.7676 477.584 96.4092 477.35 97.0186C477.115 97.6279 476.822 98.1875 476.471 98.6973C476.119 99.2012 475.709 99.6377 475.24 100.007C474.771 100.376 474.244 100.663 473.658 100.868C473.072 101.073 472.425 101.176 471.716 101.176ZM471.769 99.8662C472.272 99.8662 472.738 99.7783 473.166 99.6025C473.594 99.4268 473.98 99.1807 474.326 98.8643C474.678 98.5479 474.985 98.1758 475.249 97.748C475.519 97.3203 475.744 96.8516 475.926 96.3418C476.107 95.8262 476.245 95.2842 476.339 94.7158C476.433 94.1475 476.479 93.5674 476.479 92.9756C476.479 91.8037 476.201 90.8926 475.645 90.2422C475.094 89.5918 474.329 89.2666 473.351 89.2666C472.847 89.2666 472.378 89.3516 471.944 89.5215C471.511 89.6855 471.115 89.9229 470.758 90.2334C470.4 90.5381 470.084 90.9014 469.809 91.3232C469.539 91.7451 469.311 92.2139 469.123 92.7295C468.936 93.2393 468.792 93.7812 468.692 94.3555C468.599 94.9297 468.552 95.5244 468.552 96.1396C468.552 96.9131 468.678 97.5781 468.93 98.1348C469.182 98.6914 469.548 99.1191 470.028 99.418C470.509 99.7168 471.089 99.8662 471.769 99.8662Z" fill="#6D6465"/>
<path d="M479.371 101L482.087 88.1504H484.188L485.523 98.8115H485.594L491.465 88.1504H493.741L491.069 101H489.575L491.263 93.0195C491.368 92.5391 491.471 92.0879 491.57 91.666C491.67 91.2441 491.761 90.8604 491.843 90.5146C491.931 90.1631 492.01 89.8643 492.08 89.6182H492.045L485.717 101H484.548L483.089 89.627H483.019C482.995 89.8672 482.954 90.1748 482.896 90.5498C482.843 90.9189 482.778 91.3145 482.702 91.7363C482.632 92.1523 482.556 92.5537 482.474 92.9404L480.777 101H479.371Z" fill="#6D6465"/>
<path d="M494.453 101L497.169 88.1504H503.682L503.4 89.4688H498.373L497.485 93.626H502.196L501.941 94.9268H497.222L496.202 99.6816H501.238L500.957 101H494.453Z" fill="#6D6465"/>
<path d="M506.354 101.176C505.715 101.176 505.155 101.129 504.675 101.035C504.194 100.941 503.749 100.798 503.339 100.604V99.1367C503.708 99.3242 504.142 99.4971 504.64 99.6553C505.138 99.8076 505.715 99.8838 506.371 99.8838C506.775 99.8838 507.162 99.8369 507.531 99.7432C507.9 99.6494 508.229 99.5029 508.516 99.3037C508.809 99.1045 509.037 98.8496 509.201 98.5391C509.371 98.2285 509.456 97.8594 509.456 97.4316C509.456 97.0859 509.38 96.7812 509.228 96.5176C509.081 96.248 508.847 95.9902 508.524 95.7441C508.202 95.4922 507.78 95.2227 507.259 94.9355C506.813 94.6719 506.412 94.3965 506.055 94.1094C505.703 93.8164 505.425 93.4766 505.22 93.0898C505.015 92.6973 504.912 92.2227 504.912 91.666C504.912 91.0684 505.023 90.541 505.246 90.084C505.469 89.6211 505.773 89.2344 506.16 88.9238C506.553 88.6074 507.001 88.3701 507.505 88.2119C508.015 88.0479 508.554 87.9658 509.122 87.9658C509.796 87.9658 510.382 88.0332 510.88 88.168C511.378 88.3027 511.858 88.4844 512.321 88.7129L511.75 89.9785C511.422 89.8027 511.026 89.6445 510.563 89.5039C510.106 89.3574 509.626 89.2842 509.122 89.2842C508.753 89.2842 508.407 89.334 508.085 89.4336C507.769 89.5273 507.49 89.6709 507.25 89.8643C507.01 90.0576 506.822 90.2979 506.688 90.585C506.553 90.8662 506.485 91.1943 506.485 91.5693C506.485 91.9502 506.556 92.2666 506.696 92.5186C506.843 92.7705 507.054 92.999 507.329 93.2041C507.61 93.4092 507.956 93.6318 508.366 93.8721C508.888 94.1768 509.348 94.4814 509.746 94.7861C510.145 95.085 510.455 95.4336 510.678 95.832C510.9 96.2246 511.012 96.7197 511.012 97.3174C511.012 97.9619 510.897 98.5273 510.669 99.0137C510.446 99.4941 510.127 99.8955 509.711 100.218C509.295 100.534 508.803 100.774 508.234 100.938C507.666 101.097 507.039 101.176 506.354 101.176Z" fill="#6D6465"/>
<path d="M522.798 101.176C521.767 101.176 520.896 100.971 520.188 100.561C519.484 100.15 518.954 99.5703 518.597 98.8203C518.239 98.0703 518.061 97.1885 518.061 96.1748C518.061 95.4424 518.125 94.7334 518.254 94.0479C518.389 93.3623 518.582 92.7148 518.834 92.1055C519.086 91.4902 519.396 90.9307 519.766 90.4268C520.141 89.917 520.568 89.4775 521.049 89.1084C521.529 88.7393 522.06 88.4551 522.64 88.2559C523.226 88.0508 523.858 87.9482 524.538 87.9482C525.979 87.9482 527.104 88.3965 527.913 89.293C528.728 90.1836 529.135 91.4229 529.135 93.0107C529.135 93.7197 529.076 94.4141 528.959 95.0938C528.842 95.7676 528.666 96.4092 528.432 97.0186C528.197 97.6279 527.904 98.1875 527.553 98.6973C527.201 99.2012 526.791 99.6377 526.322 100.007C525.854 100.376 525.326 100.663 524.74 100.868C524.154 101.073 523.507 101.176 522.798 101.176ZM522.851 99.8662C523.354 99.8662 523.82 99.7783 524.248 99.6025C524.676 99.4268 525.062 99.1807 525.408 98.8643C525.76 98.5479 526.067 98.1758 526.331 97.748C526.601 97.3203 526.826 96.8516 527.008 96.3418C527.189 95.8262 527.327 95.2842 527.421 94.7158C527.515 94.1475 527.562 93.5674 527.562 92.9756C527.562 91.8037 527.283 90.8926 526.727 90.2422C526.176 89.5918 525.411 89.2666 524.433 89.2666C523.929 89.2666 523.46 89.3516 523.026 89.5215C522.593 89.6855 522.197 89.9229 521.84 90.2334C521.482 90.5381 521.166 90.9014 520.891 91.3232C520.621 91.7451 520.393 92.2139 520.205 92.7295C520.018 93.2393 519.874 93.7812 519.774 94.3555C519.681 94.9297 519.634 95.5244 519.634 96.1396C519.634 96.9131 519.76 97.5781 520.012 98.1348C520.264 98.6914 520.63 99.1191 521.11 99.418C521.591 99.7168 522.171 99.8662 522.851 99.8662Z" fill="#6D6465"/>
<path d="M530.453 101L533.169 88.1504H534.733L538.803 98.9082H538.847C538.888 98.6152 538.94 98.2754 539.005 97.8887C539.069 97.4961 539.143 97.0889 539.225 96.667C539.307 96.2393 539.389 95.832 539.471 95.4453L541.035 88.1504H542.441L539.726 101H538.161L534.065 90.2158H534.021C533.992 90.415 533.954 90.6523 533.907 90.9277C533.866 91.2031 533.816 91.502 533.758 91.8242C533.705 92.1465 533.646 92.4775 533.582 92.8174C533.518 93.1514 533.45 93.4766 533.38 93.793L531.859 101H530.453Z" fill="#6D6465"/>
<path d="M546.054 101L553.094 88.1504H554.649L556.275 101H554.808L554.298 96.9043H549.859L547.68 101H546.054ZM550.571 95.5771H554.148L553.806 92.5801C553.765 92.1465 553.721 91.6719 553.674 91.1562C553.627 90.6348 553.598 90.1689 553.586 89.7588H553.533C553.346 90.2041 553.132 90.6729 552.892 91.165C552.657 91.6514 552.408 92.1436 552.145 92.6416L550.571 95.5771Z" fill="#6D6465"/>
<path d="M563.025 101.176C562.07 101.176 561.253 100.977 560.573 100.578C559.899 100.18 559.381 99.6143 559.018 98.8818C558.654 98.1436 558.473 97.2676 558.473 96.2539C558.473 95.457 558.566 94.6631 558.754 93.8721C558.941 93.0752 559.22 92.3252 559.589 91.6221C559.964 90.9131 560.43 90.2861 560.986 89.7412C561.543 89.1904 562.19 88.7568 562.929 88.4404C563.673 88.124 564.505 87.9658 565.425 87.9658C566.034 87.9658 566.591 88.0244 567.095 88.1416C567.604 88.2588 568.082 88.4375 568.527 88.6777L567.938 89.917C567.599 89.7354 567.224 89.5859 566.813 89.4688C566.409 89.3457 565.946 89.2842 565.425 89.2842C564.704 89.2842 564.057 89.416 563.482 89.6797C562.908 89.9375 562.404 90.2949 561.971 90.752C561.543 91.2031 561.186 91.7246 560.898 92.3164C560.617 92.9082 560.403 93.5381 560.257 94.2061C560.116 94.8682 560.046 95.5391 560.046 96.2188C560.046 97.3438 560.33 98.2344 560.898 98.8906C561.473 99.541 562.267 99.8662 563.28 99.8662C563.79 99.8662 564.282 99.8164 564.757 99.7168C565.237 99.6172 565.703 99.4912 566.154 99.3389V100.64C565.697 100.804 565.226 100.933 564.739 101.026C564.259 101.126 563.688 101.176 563.025 101.176Z" fill="#6D6465"/>
<path d="M568.492 101L571.208 88.1504H574.021C575.333 88.1504 576.317 88.4229 576.974 88.9678C577.63 89.5068 577.958 90.3066 577.958 91.3672C577.958 92 577.85 92.5771 577.633 93.0986C577.416 93.6143 577.067 94.0596 576.587 94.4346C576.112 94.8096 575.488 95.1025 574.715 95.3135L576.824 101H575.207L573.344 95.6387H571.103L569.969 101H568.492ZM571.366 94.373H572.922C573.514 94.373 574.029 94.3057 574.469 94.1709C574.908 94.0303 575.271 93.834 575.559 93.582C575.852 93.3301 576.068 93.0254 576.209 92.668C576.355 92.3105 576.429 91.9121 576.429 91.4727C576.429 90.7285 576.215 90.2041 575.787 89.8994C575.365 89.5947 574.727 89.4424 573.871 89.4424H572.43L571.366 94.373Z" fill="#6D6465"/>
<path d="M578.793 101L581.509 88.1504H588.021L587.74 89.4688H582.713L581.825 93.626H586.536L586.281 94.9268H581.562L580.542 99.6816H585.578L585.297 101H578.793Z" fill="#6D6465"/>
<path d="M586.325 101L593.365 88.1504H594.921L596.547 101H595.079L594.569 96.9043H590.131L587.951 101H586.325ZM590.843 95.5771H594.42L594.077 92.5801C594.036 92.1465 593.992 91.6719 593.945 91.1562C593.898 90.6348 593.869 90.1689 593.857 89.7588H593.805C593.617 90.2041 593.403 90.6729 593.163 91.165C592.929 91.6514 592.68 92.1436 592.416 92.6416L590.843 95.5771Z" fill="#6D6465"/>
<path d="M603.578 101.176C602.061 101.176 600.874 100.751 600.019 99.9014C599.169 99.0459 598.744 97.8535 598.744 96.3242C598.744 95.375 598.853 94.4814 599.069 93.6436C599.286 92.7998 599.597 92.0322 600.001 91.3408C600.411 90.6436 600.9 90.043 601.469 89.5391C602.043 89.0352 602.682 88.6484 603.385 88.3789C604.094 88.1035 604.855 87.9658 605.67 87.9658C606.438 87.9658 607.114 88.0332 607.7 88.168C608.286 88.3027 608.846 88.4873 609.379 88.7217L608.808 90.0225C608.356 89.8174 607.87 89.6445 607.349 89.5039C606.827 89.3574 606.262 89.2842 605.652 89.2842C604.896 89.2842 604.193 89.4541 603.543 89.7939C602.898 90.1279 602.333 90.6055 601.847 91.2266C601.366 91.8477 600.991 92.583 600.722 93.4326C600.452 94.2764 600.317 95.208 600.317 96.2275C600.317 96.9307 600.44 97.5576 600.687 98.1084C600.938 98.6533 601.316 99.084 601.82 99.4004C602.324 99.7109 602.96 99.8662 603.728 99.8662C604.202 99.8662 604.642 99.8311 605.046 99.7607C605.45 99.6846 605.796 99.5996 606.083 99.5059L606.936 95.5859H604.299L604.58 94.2852H608.702L607.349 100.499C606.804 100.698 606.224 100.862 605.608 100.991C604.999 101.114 604.322 101.176 603.578 101.176Z" fill="#6D6465"/>
<path d="M610.416 101L613.132 88.1504H619.645L619.363 89.4688H614.336L613.448 93.626H618.159L617.904 94.9268H613.185L612.165 99.6816H617.201L616.92 101H610.416Z" fill="#6D6465"/>
</svg>
