<svg width="385" height="69" viewBox="0 0 385 69" fill="none" xmlns="http://www.w3.org/2000/svg">
<path d="M12.0285 15.5484H27.6377L27.7861 20.2383H27.125C26.8013 18.7648 26.3875 17.808 25.8839 17.3677C25.3892 16.9185 24.3414 16.6939 22.7404 16.6939H21.2024V30.8174C21.2024 31.8865 21.3688 32.5513 21.7016 32.8119C22.0344 33.0635 22.7629 33.2297 23.8872 33.3105V33.8092H15.833V33.3105C17.0022 33.2207 17.7307 33.0275 18.0185 32.731C18.3063 32.4345 18.4503 31.6888 18.4503 30.4939V16.6939H16.9123C15.3833 16.6939 14.34 16.914 13.7823 17.3543C13.2337 17.7945 12.82 18.7558 12.5411 20.2383H11.8666L12.0285 15.5484Z" fill="#484242"/>
<path d="M28.69 33.3105C29.7064 33.2027 30.3629 33.023 30.6597 32.7715C30.9655 32.5109 31.1184 31.8595 31.1184 30.8174V18.5402C31.1184 17.5609 30.97 16.923 30.6732 16.6265C30.3764 16.3211 29.7153 16.1324 28.69 16.0605V15.5484H43.3684L43.4628 19.5105H42.7613C42.5274 18.2886 42.1767 17.498 41.709 17.1386C41.2413 16.7793 40.198 16.5996 38.579 16.5996H34.8285C34.4238 16.5996 34.1719 16.667 34.073 16.8017C33.983 16.9275 33.9381 17.1701 33.9381 17.5295V23.6883H38.1878C39.366 23.6883 40.117 23.5131 40.4408 23.1627C40.7646 22.8123 41.0254 22.1025 41.2233 21.0334H41.8709V27.4213H41.2233C41.0164 26.3521 40.7511 25.6469 40.4273 25.3054C40.1035 24.9551 39.357 24.7799 38.1878 24.7799H33.9381V31.6125C33.9381 32.1605 34.109 32.484 34.4507 32.5828C34.8015 32.6816 35.8403 32.731 37.5672 32.731C39.438 32.731 40.8186 32.5289 41.709 32.1246C42.5994 31.7113 43.3999 30.7185 44.1104 29.1463H44.8794L43.6247 33.8092H28.69V33.3105Z" fill="#484242"/>
<path d="M45.5539 33.3105C46.3004 33.2297 46.8671 33.032 47.2538 32.7176C47.6406 32.4031 48.4051 31.5451 49.5473 30.1435L53.8645 24.8338L50.802 20.4C49.4799 18.4863 48.549 17.2959 48.0093 16.8287C47.4787 16.3525 46.7681 16.0965 45.8777 16.0605V15.5484H54.2152V16.0605C53.4148 16.0875 52.8931 16.1414 52.6503 16.2222C52.2815 16.339 52.0971 16.5951 52.0971 16.9904C52.0971 17.242 52.1871 17.5429 52.367 17.8933C52.4569 18.073 52.5828 18.2797 52.7447 18.5133L55.6183 22.664L58.7618 18.8636C59.2205 18.3156 59.5308 17.8754 59.6926 17.5429C59.7916 17.3453 59.841 17.1656 59.841 17.0039C59.841 16.5996 59.6432 16.3301 59.2474 16.1953C59.0046 16.1144 58.5639 16.0695 57.9253 16.0605V15.5484H64.482V16.0605C63.7445 16.0785 63.1734 16.1953 62.7686 16.4109C62.13 16.7613 61.3386 17.516 60.3942 18.675L56.3334 23.6613L61.6354 31.2621C62.202 32.0797 62.6742 32.6008 63.0519 32.8254C63.4297 33.041 63.9828 33.2027 64.7113 33.3105V33.8092H56.5222V33.2701C57.3047 33.2521 57.8489 33.1847 58.1547 33.0679C58.4695 32.9511 58.6268 32.7265 58.6268 32.3941C58.6268 32.1066 58.42 31.6304 58.0063 30.9656C57.5925 30.3008 56.4458 28.5892 54.566 25.831L51.3012 29.9549C50.8245 30.5568 50.4917 30.997 50.3028 31.2756C50.006 31.7158 49.8576 32.0437 49.8576 32.2594C49.8576 32.6547 50.0915 32.9332 50.5592 33.0949C50.838 33.1937 51.3102 33.2656 51.9757 33.3105V33.8092H45.5539V33.3105Z" fill="#484242"/>
<path d="M77.5684 26.7205L74.371 19.1197L71.2141 26.7205H77.5684ZM65.6422 33.8092V33.3105C66.3528 33.2297 66.8834 32.9601 67.2342 32.5019C67.594 32.0437 68.2056 30.7994 69.069 28.7689L74.8297 15.225H75.3693L82.2498 30.8713C82.7085 31.9135 83.0728 32.5603 83.3426 32.8119C83.6214 33.0545 84.0846 33.2207 84.7322 33.3105V33.8092H77.7033V33.3105C78.5128 33.2386 79.0344 33.1533 79.2683 33.0545C79.5021 32.9467 79.619 32.6906 79.619 32.2863C79.619 32.1515 79.5741 31.9135 79.4841 31.572C79.3942 31.2306 79.2683 30.8713 79.1064 30.4939L77.9596 27.839H70.7284C70.0089 29.6449 69.5772 30.75 69.4332 31.1543C69.2983 31.5496 69.2309 31.864 69.2309 32.0976C69.2309 32.5648 69.4198 32.8883 69.7975 33.0679C70.0314 33.1758 70.4721 33.2566 71.1196 33.3105V33.8092H65.6422Z" fill="#484242"/>
<path d="M86.9852 28.2568C87.4529 29.4967 88.0015 30.4849 88.6311 31.2217C89.7284 32.5064 91.091 33.1488 92.7189 33.1488C93.6004 33.1488 94.3604 32.8703 94.9989 32.3133C95.6465 31.7562 95.9703 30.9791 95.9703 29.9818C95.9703 29.0834 95.6465 28.3017 94.9989 27.6369C94.5762 27.2146 93.6858 26.5812 92.3277 25.7367L89.9668 24.2677C89.2562 23.8185 88.6896 23.3648 88.2669 22.9066C87.4844 22.0351 87.0931 21.0738 87.0931 20.0226C87.0931 18.6301 87.5563 17.4711 88.4827 16.5457C89.4091 15.6203 90.6368 15.1576 92.1658 15.1576C92.7954 15.1576 93.5509 15.3148 94.4323 15.6293C95.3227 15.9347 95.8309 16.0875 95.9568 16.0875C96.2986 16.0875 96.5324 16.0066 96.6584 15.8449C96.7933 15.6832 96.8967 15.4541 96.9687 15.1576H97.5353L98.1424 21.0334H97.4813C97.0316 19.2635 96.3076 18.0281 95.3092 17.3273C94.3199 16.6265 93.3395 16.2761 92.3682 16.2761C91.6127 16.2761 90.9516 16.5008 90.385 16.95C89.8273 17.3902 89.5485 18.0056 89.5485 18.7963C89.5485 19.506 89.7644 20.1125 90.1961 20.6156C90.6278 21.1277 91.2979 21.6623 92.2063 22.2193L94.6347 23.7152C96.1547 24.6496 97.225 25.5076 97.8456 26.2892C98.4572 27.0799 98.763 28.0142 98.763 29.0924C98.763 30.5388 98.2143 31.7472 97.1171 32.7176C96.0288 33.6879 94.6347 34.173 92.9348 34.173C92.0804 34.173 91.1854 34.0113 90.2501 33.6879C89.3237 33.3644 88.793 33.2027 88.6581 33.2027C88.3343 33.2027 88.114 33.3015 87.997 33.4992C87.8891 33.6969 87.8172 33.908 87.7812 34.1326H87.1741L86.3511 28.2568H86.9852Z" fill="#484242"/>
<path d="M112.983 24.3621C114.97 24.2902 116.391 24.0836 117.246 23.7422C118.712 23.1402 119.445 22.0082 119.445 20.3461C119.445 18.7469 118.788 17.6552 117.475 17.0713C116.774 16.7568 115.843 16.5996 114.683 16.5996C113.9 16.5996 113.419 16.658 113.239 16.7748C113.068 16.8826 112.983 17.1431 112.983 17.5564V24.3621ZM107.802 33.3105C108.863 33.2117 109.524 33.0051 109.785 32.6906C110.046 32.3761 110.176 31.6439 110.176 30.4939V18.5402C110.176 17.5699 110.028 16.9365 109.731 16.64C109.443 16.3345 108.8 16.1414 107.802 16.0605V15.5484H115.452C117.043 15.5484 118.37 15.7506 119.431 16.1549C121.446 16.9185 122.453 18.3246 122.453 20.373C122.453 21.7476 122.004 22.8033 121.104 23.54C120.214 24.2767 119 24.7619 117.462 24.9955L123.155 31.9898C123.506 32.4211 123.856 32.7355 124.207 32.9332C124.558 33.1308 125.008 33.2566 125.556 33.3105V33.8092H121.104L114.521 25.3189L112.983 25.3863V30.8174C112.983 31.8416 113.136 32.4929 113.441 32.7715C113.756 33.041 114.435 33.2207 115.478 33.3105V33.8092H107.802V33.3105Z" fill="#484242"/>
<path d="M138.252 26.7205L135.054 19.1197L131.897 26.7205H138.252ZM126.325 33.8092V33.3105C127.036 33.2297 127.567 32.9601 127.917 32.5019C128.277 32.0437 128.889 30.7994 129.752 28.7689L135.513 15.225H136.052L142.933 30.8713C143.392 31.9135 143.756 32.5603 144.026 32.8119C144.305 33.0545 144.768 33.2207 145.415 33.3105V33.8092H138.386V33.3105C139.196 33.2386 139.718 33.1533 139.951 33.0545C140.185 32.9467 140.302 32.6906 140.302 32.2863C140.302 32.1515 140.257 31.9135 140.167 31.572C140.077 31.2306 139.951 30.8713 139.79 30.4939L138.643 27.839H131.412C130.692 29.6449 130.26 30.75 130.116 31.1543C129.981 31.5496 129.914 31.864 129.914 32.0976C129.914 32.5648 130.103 32.8883 130.481 33.0679C130.714 33.1758 131.155 33.2566 131.803 33.3105V33.8092H126.325Z" fill="#484242"/>
<path d="M146.198 33.3105C147.34 33.1937 148.073 32.9377 148.397 32.5424C148.721 32.1381 148.883 31.2082 148.883 29.7527V17.5834L148.505 17.1386C148.1 16.6625 147.754 16.3705 147.466 16.2627C147.187 16.1459 146.764 16.0785 146.198 16.0605V15.5484H150.933L161.578 28.8363V19.6049C161.578 18.0865 161.353 17.0982 160.903 16.64C160.606 16.3435 159.95 16.1504 158.933 16.0605V15.5484H165.423V16.0605C164.37 16.1683 163.669 16.4244 163.318 16.8287C162.967 17.233 162.792 18.1584 162.792 19.6049V34.1326H162.32L150.097 18.9984V29.7527C150.097 31.2621 150.317 32.2459 150.758 32.7041C151.046 33.0006 151.689 33.2027 152.687 33.3105V33.8092H146.198V33.3105Z" fill="#484242"/>
<path d="M176.081 15.225C177.079 15.225 178.104 15.3732 179.157 15.6697C180.209 15.9662 180.798 16.1144 180.924 16.1144C181.185 16.1144 181.432 16.0426 181.666 15.8988C181.9 15.7551 182.062 15.5304 182.152 15.225H182.732L182.988 21.4242H182.354C181.985 20.1933 181.504 19.2006 180.91 18.4459C179.777 17.0263 178.253 16.3166 176.337 16.3166C174.403 16.3166 172.82 17.0802 171.588 18.6076C170.365 20.1349 169.753 22.2373 169.753 24.9146C169.753 27.3763 170.396 29.3439 171.683 30.8174C172.978 32.2818 174.615 33.014 176.593 33.014C178.023 33.014 179.341 32.6726 180.546 31.9898C181.239 31.6035 181.999 31.0195 182.826 30.2379L183.339 30.75C182.727 31.5226 181.967 32.201 181.059 32.7849C179.512 33.7732 177.835 34.2674 176.027 34.2674C173.059 34.2674 170.702 33.3195 168.957 31.4238C167.347 29.6719 166.542 27.4842 166.542 24.8607C166.542 22.1744 167.392 19.9193 169.092 18.0955C170.882 16.1818 173.212 15.225 176.081 15.225Z" fill="#484242"/>
<path d="M184.728 33.3105C185.808 33.1937 186.482 32.9961 186.752 32.7176C187.022 32.4301 187.157 31.6888 187.157 30.4939V18.5402C187.157 17.5519 187.004 16.9095 186.698 16.6131C186.401 16.3166 185.745 16.1324 184.728 16.0605V15.5484H192.405V16.0605C191.389 16.1324 190.728 16.3166 190.422 16.6131C190.116 16.9095 189.963 17.5519 189.963 18.5402V23.9174H198.341V18.5402C198.341 17.5519 198.193 16.9095 197.896 16.6131C197.599 16.3166 196.938 16.1324 195.913 16.0605V15.5484H203.589V16.0605C202.573 16.1324 201.912 16.3166 201.606 16.6131C201.309 16.9095 201.161 17.5519 201.161 18.5402V30.8174C201.161 31.8236 201.309 32.4705 201.606 32.758C201.912 33.0365 202.573 33.2207 203.589 33.3105V33.8092H195.913V33.3105C197.001 33.2027 197.675 33.0051 197.936 32.7176C198.206 32.4301 198.341 31.6888 198.341 30.4939V25.1302H189.963V30.8174C189.963 31.8236 190.116 32.4705 190.422 32.758C190.728 33.0455 191.389 33.2297 192.405 33.3105V33.8092H184.728V33.3105Z" fill="#484242"/>
<path d="M204.56 33.3105C205.577 33.2027 206.233 33.023 206.53 32.7715C206.836 32.5109 206.989 31.8595 206.989 30.8174V18.5402C206.989 17.5609 206.84 16.923 206.544 16.6265C206.247 16.3211 205.586 16.1324 204.56 16.0605V15.5484H219.239L219.333 19.5105H218.632C218.398 18.2886 218.047 17.498 217.579 17.1386C217.112 16.7793 216.068 16.5996 214.449 16.5996H210.699C210.294 16.5996 210.042 16.667 209.943 16.8017C209.853 16.9275 209.809 17.1701 209.809 17.5295V23.6883H214.058C215.236 23.6883 215.987 23.5131 216.311 23.1627C216.635 22.8123 216.896 22.1025 217.094 21.0334H217.741V27.4213H217.094C216.887 26.3521 216.622 25.6469 216.298 25.3054C215.974 24.9551 215.227 24.7799 214.058 24.7799H209.809V31.6125C209.809 32.1605 209.979 32.484 210.321 32.5828C210.672 32.6816 211.711 32.731 213.438 32.731C215.308 32.731 216.689 32.5289 217.579 32.1246C218.47 31.7113 219.27 30.7185 219.981 29.1463H220.75L219.495 33.8092H204.56V33.3105Z" fill="#484242"/>
<path d="M222.922 28.2568C223.39 29.4967 223.938 30.4849 224.568 31.2217C225.665 32.5064 227.028 33.1488 228.656 33.1488C229.537 33.1488 230.297 32.8703 230.936 32.3133C231.583 31.7562 231.907 30.9791 231.907 29.9818C231.907 29.0834 231.583 28.3017 230.936 27.6369C230.513 27.2146 229.622 26.5812 228.264 25.7367L225.903 24.2677C225.193 23.8185 224.626 23.3648 224.204 22.9066C223.421 22.0351 223.03 21.0738 223.03 20.0226C223.03 18.6301 223.493 17.4711 224.419 16.5457C225.346 15.6203 226.573 15.1576 228.102 15.1576C228.732 15.1576 229.488 15.3148 230.369 15.6293C231.259 15.9347 231.768 16.0875 231.893 16.0875C232.235 16.0875 232.469 16.0066 232.595 15.8449C232.73 15.6832 232.833 15.4541 232.905 15.1576H233.472L234.079 21.0334H233.418C232.968 19.2635 232.244 18.0281 231.246 17.3273C230.257 16.6265 229.276 16.2761 228.305 16.2761C227.549 16.2761 226.888 16.5008 226.322 16.95C225.764 17.3902 225.485 18.0056 225.485 18.7963C225.485 19.506 225.701 20.1125 226.133 20.6156C226.564 21.1277 227.235 21.6623 228.143 22.2193L230.571 23.7152C232.091 24.6496 233.162 25.5076 233.782 26.2892C234.394 27.0799 234.7 28.0142 234.7 29.0924C234.7 30.5388 234.151 31.7472 233.054 32.7176C231.965 33.6879 230.571 34.173 228.871 34.173C228.017 34.173 227.122 34.0113 226.187 33.6879C225.26 33.3644 224.73 33.2027 224.595 33.2027C224.271 33.2027 224.051 33.3015 223.934 33.4992C223.826 33.6969 223.754 33.908 223.718 34.1326H223.111L222.288 28.2568H222.922Z" fill="#484242"/>
<path d="M243.739 33.3105C244.827 33.1937 245.502 32.9961 245.762 32.7176C246.032 32.4301 246.167 31.6888 246.167 30.4939V18.5402C246.167 17.5609 246.019 16.923 245.722 16.6265C245.425 16.3211 244.764 16.1324 243.739 16.0605V15.5484H258.458L258.552 19.5105H257.783C257.594 18.2437 257.239 17.4441 256.717 17.1117C256.196 16.7703 255.166 16.5996 253.628 16.5996H249.85C249.481 16.5996 249.243 16.6625 249.135 16.7883C249.036 16.914 248.987 17.1611 248.987 17.5295V23.6883H252.98C254.158 23.6883 254.909 23.5131 255.233 23.1627C255.557 22.8123 255.818 22.1025 256.016 21.0334H256.663V27.4213H256.016C255.809 26.3521 255.543 25.6469 255.22 25.3054C254.896 24.9551 254.149 24.7799 252.98 24.7799H248.987V30.8174C248.987 31.8326 249.14 32.484 249.445 32.7715C249.76 33.05 250.439 33.2297 251.483 33.3105V33.8092H243.739V33.3105Z" fill="#484242"/>
<path d="M262.761 24.6855C262.761 27.5875 263.332 29.7347 264.475 31.1273C265.617 32.5109 267.02 33.2027 268.684 33.2027C270.312 33.2027 271.701 32.5289 272.853 31.1812C274.013 29.8246 274.593 27.6594 274.593 24.6855C274.593 21.6758 274.008 19.5015 272.839 18.1629C271.67 16.8242 270.285 16.1549 268.684 16.1549C267.029 16.1549 265.626 16.8511 264.475 18.2437C263.332 19.6273 262.761 21.7746 262.761 24.6855ZM259.631 24.6855C259.631 21.7386 260.558 19.3758 262.41 17.5969C264.11 15.9707 266.201 15.1576 268.684 15.1576C271.175 15.1576 273.271 15.9752 274.971 17.6103C276.814 19.3802 277.736 21.7386 277.736 24.6855C277.736 27.6773 276.783 30.0582 274.876 31.8281C273.167 33.4094 271.103 34.2 268.684 34.2C266.094 34.2 263.944 33.324 262.235 31.572C260.499 29.7842 259.631 27.4886 259.631 24.6855Z" fill="#484242"/>
<path d="M284.266 24.3621C286.254 24.2902 287.675 24.0836 288.529 23.7422C289.995 23.1402 290.728 22.0082 290.728 20.3461C290.728 18.7469 290.072 17.6552 288.759 17.0713C288.057 16.7568 287.126 16.5996 285.966 16.5996C285.183 16.5996 284.702 16.658 284.522 16.7748C284.352 16.8826 284.266 17.1431 284.266 17.5564V24.3621ZM279.085 33.3105C280.147 33.2117 280.808 33.0051 281.069 32.6906C281.329 32.3761 281.46 31.6439 281.46 30.4939V18.5402C281.46 17.5699 281.311 16.9365 281.015 16.64C280.727 16.3345 280.084 16.1414 279.085 16.0605V15.5484H286.735C288.327 15.5484 289.654 15.7506 290.715 16.1549C292.729 16.9185 293.737 18.3246 293.737 20.373C293.737 21.7476 293.287 22.8033 292.388 23.54C291.497 24.2767 290.283 24.7619 288.745 24.9955L294.438 31.9898C294.789 32.4211 295.14 32.7355 295.491 32.9332C295.841 33.1308 296.291 33.2566 296.84 33.3105V33.8092H292.388L285.804 25.3189L284.266 25.3863V30.8174C284.266 31.8416 284.419 32.4929 284.725 32.7715C285.04 33.041 285.719 33.2207 286.762 33.3105V33.8092H279.085V33.3105Z" fill="#484242"/>
<path d="M305.892 28.2568C306.36 29.4967 306.909 30.4849 307.538 31.2217C308.636 32.5064 309.998 33.1488 311.626 33.1488C312.508 33.1488 313.268 32.8703 313.906 32.3133C314.554 31.7562 314.877 30.9791 314.877 29.9818C314.877 29.0834 314.554 28.3017 313.906 27.6369C313.483 27.2146 312.593 26.5812 311.235 25.7367L308.874 24.2677C308.163 23.8185 307.597 23.3648 307.174 22.9066C306.392 22.0351 306 21.0738 306 20.0226C306 18.6301 306.463 17.4711 307.39 16.5457C308.316 15.6203 309.544 15.1576 311.073 15.1576C311.703 15.1576 312.458 15.3148 313.339 15.6293C314.23 15.9347 314.738 16.0875 314.864 16.0875C315.206 16.0875 315.44 16.0066 315.565 15.8449C315.7 15.6832 315.804 15.4541 315.876 15.1576H316.442L317.05 21.0334H316.388C315.939 19.2635 315.215 18.0281 314.216 17.3273C313.227 16.6265 312.247 16.2761 311.275 16.2761C310.52 16.2761 309.859 16.5008 309.292 16.95C308.734 17.3902 308.456 18.0056 308.456 18.7963C308.456 19.506 308.672 20.1125 309.103 20.6156C309.535 21.1277 310.205 21.6623 311.113 22.2193L313.542 23.7152C315.062 24.6496 316.132 25.5076 316.753 26.2892C317.364 27.0799 317.67 28.0142 317.67 29.0924C317.67 30.5388 317.121 31.7472 316.024 32.7176C314.936 33.6879 313.542 34.173 311.842 34.173C310.988 34.173 310.093 34.0113 309.157 33.6879C308.231 33.3644 307.7 33.2027 307.565 33.2027C307.241 33.2027 307.021 33.3015 306.904 33.4992C306.796 33.6969 306.724 33.908 306.688 34.1326H306.081L305.258 28.2568H305.892Z" fill="#484242"/>
<path d="M331.822 26.7205L328.625 19.1197L325.468 26.7205H331.822ZM319.896 33.8092V33.3105C320.607 33.2297 321.137 32.9601 321.488 32.5019C321.848 32.0437 322.459 30.7994 323.323 28.7689L329.084 15.225H329.623L336.504 30.8713C336.962 31.9135 337.327 32.5603 337.597 32.8119C337.875 33.0545 338.339 33.2207 338.986 33.3105V33.8092H331.957V33.3105C332.767 33.2386 333.288 33.1533 333.522 33.0545C333.756 32.9467 333.873 32.6906 333.873 32.2863C333.873 32.1515 333.828 31.9135 333.738 31.572C333.648 31.2306 333.522 30.8713 333.36 30.4939L332.214 27.839H324.982C324.263 29.6449 323.831 30.75 323.687 31.1543C323.552 31.5496 323.485 31.864 323.485 32.0976C323.485 32.5648 323.674 32.8883 324.051 33.0679C324.285 33.1758 324.726 33.2566 325.374 33.3105V33.8092H319.896Z" fill="#484242"/>
<path d="M339.769 33.3105C340.785 33.2027 341.441 33.023 341.738 32.7715C342.044 32.5109 342.197 31.8595 342.197 30.8174V18.5402C342.197 17.5609 342.049 16.923 341.752 16.6265C341.455 16.3211 340.794 16.1324 339.769 16.0605V15.5484H347.58V16.0605C346.564 16.1144 345.88 16.2806 345.529 16.5592C345.188 16.8377 345.017 17.4351 345.017 18.3515V31.6125C345.017 31.9179 345.066 32.1605 345.165 32.3402C345.273 32.5109 345.502 32.6187 345.853 32.6636C346.06 32.6906 346.276 32.7086 346.501 32.7176C346.734 32.7265 347.166 32.731 347.796 32.731C350.251 32.731 351.911 32.5289 352.774 32.1246C353.637 31.7203 354.474 30.6871 355.283 29.025H355.985L354.636 33.8092H339.769V33.3105Z" fill="#484242"/>
<path d="M356.659 33.3105C357.676 33.2027 358.332 33.023 358.629 32.7715C358.935 32.5109 359.088 31.8595 359.088 30.8174V18.5402C359.088 17.5609 358.939 16.923 358.643 16.6265C358.346 16.3211 357.685 16.1324 356.659 16.0605V15.5484H371.338L371.432 19.5105H370.731C370.497 18.2886 370.146 17.498 369.678 17.1386C369.211 16.7793 368.167 16.5996 366.548 16.5996H362.798C362.393 16.5996 362.141 16.667 362.042 16.8017C361.953 16.9275 361.908 17.1701 361.908 17.5295V23.6883H366.157C367.335 23.6883 368.086 23.5131 368.41 23.1627C368.734 22.8123 368.995 22.1025 369.193 21.0334H369.84V27.4213H369.193C368.986 26.3521 368.721 25.6469 368.397 25.3054C368.073 24.9551 367.326 24.7799 366.157 24.7799H361.908V31.6125C361.908 32.1605 362.078 32.484 362.42 32.5828C362.771 32.6816 363.81 32.731 365.537 32.731C367.407 32.731 368.788 32.5289 369.678 32.1246C370.569 31.7113 371.369 30.7185 372.08 29.1463H372.849L371.594 33.8092H356.659V33.3105Z" fill="#484242"/>
<path d="M12 55.6263L14.0689 45.642H15.1937L13.3324 54.5883H17.1688L16.9546 55.6263H12Z" fill="#6D6465"/>
<path d="M18.5748 55.6263L20.6571 45.642H21.7685L19.6863 55.6263H18.5748Z" fill="#6D6465"/>
<path d="M24.0784 55.6263L23.0005 45.642H24.1186L24.7747 52.1366C24.8015 52.3824 24.8238 52.6328 24.8417 52.8878C24.864 53.1382 24.8796 53.3841 24.8886 53.6254C24.8975 53.8667 24.8997 54.0943 24.8952 54.3083H24.922C25.0113 54.0943 25.1073 53.8735 25.2099 53.6459C25.3171 53.4182 25.4309 53.1792 25.5514 52.9288C25.6764 52.6784 25.8103 52.412 25.9531 52.1298L29.2472 45.642H30.4993L25.2769 55.6263H24.0784Z" fill="#6D6465"/>
<path d="M29.8364 55.6263L31.9053 45.642H36.8665L36.6523 46.6663H32.8225L32.1463 49.8966H35.735L35.5409 50.9073H31.9455L31.1688 54.602H35.0052L34.791 55.6263H29.8364Z" fill="#6D6465"/>
<path d="M41.8211 55.6263L41.3993 45.642H42.5107L42.725 51.8907C42.7384 52.2641 42.7384 52.6488 42.725 53.0449C42.716 53.4364 42.7004 53.8143 42.6781 54.1785H42.7183C42.8477 53.8234 42.9972 53.425 43.1669 52.9834C43.3409 52.5372 43.5239 52.1115 43.7159 51.7063L46.5011 45.642H47.6461L47.9473 51.6859C47.9741 52.1047 47.992 52.5418 48.0009 52.9971C48.0098 53.4524 48.0121 53.8485 48.0076 54.1854H48.0478C48.1281 53.9532 48.2129 53.7096 48.3022 53.4546C48.3915 53.1951 48.4852 52.9311 48.5834 52.6624C48.6816 52.3938 48.7865 52.1252 48.8981 51.8566L51.5561 45.642H52.7546L48.3156 55.6263H47.164L46.8426 49.0088C46.8292 48.8085 46.8181 48.599 46.8091 48.3805C46.8002 48.162 46.7935 47.9457 46.789 47.7317C46.789 47.5177 46.789 47.3174 46.789 47.1307H46.7489C46.6641 47.4039 46.5636 47.6793 46.4476 47.9571C46.3315 48.2348 46.1775 48.5876 45.9856 49.0156L42.9794 55.6263H41.8211Z" fill="#6D6465"/>
<path d="M50.8263 55.6263L56.1893 45.642H57.3744L58.613 55.6263H57.4949L57.1066 52.4439H53.7254L52.065 55.6263H50.8263ZM54.2678 51.4127H56.9928L56.7316 49.0839C56.7004 48.747 56.6669 48.3782 56.6312 47.9776C56.5955 47.5724 56.5732 47.2104 56.5643 46.8917H56.5241C56.3813 47.2377 56.2183 47.602 56.0353 47.9844C55.8568 48.3623 55.6671 48.7447 55.4662 49.1317L54.2678 51.4127Z" fill="#6D6465"/>
<path d="M61.3916 55.6263L63.2529 46.6663H60.5212L60.7355 45.642H67.3371L67.1362 46.6663H64.4045L62.5365 55.6263H61.3916Z" fill="#6D6465"/>
<path d="M66.701 55.6263L68.7699 45.642H73.7311L73.5169 46.6663H69.6872L69.0109 49.8966H72.5996L72.4055 50.9073H68.8101L68.0334 54.602H71.8698L71.6556 55.6263H66.701Z" fill="#6D6465"/>
<path d="M73.7847 55.6263L75.8536 45.642H77.9961C78.9959 45.642 79.7458 45.8537 80.2457 46.2771C80.7456 46.6959 80.9956 47.3174 80.9956 48.1415C80.9956 48.6332 80.913 49.0816 80.7479 49.4868C80.5827 49.8875 80.3171 50.2335 79.9511 50.5249C79.5896 50.8163 79.1142 51.0439 78.525 51.2078L80.1319 55.6263H78.9L77.4805 51.4605H75.7732L74.9095 55.6263H73.7847ZM75.9741 50.4771H77.1592C77.61 50.4771 78.0028 50.4247 78.3375 50.32C78.6723 50.2107 78.9491 50.0582 79.1678 49.8624C79.391 49.6667 79.5561 49.4299 79.6632 49.1522C79.7748 48.8745 79.8306 48.5649 79.8306 48.2234C79.8306 47.6452 79.6677 47.2377 79.3419 47.001C79.0205 46.7642 78.5339 46.6459 77.8823 46.6459H76.7842L75.9741 50.4771Z" fill="#6D6465"/>
<path d="M91.7751 59V45H92.6924V59H91.7751Z" fill="#6D6465"/>
<path d="M103.432 55.6263L105.501 45.642H106.632L105.742 49.8966H110.214L111.098 45.642H112.209L110.14 55.6263H109.022L109.993 50.921H105.527L104.557 55.6263H103.432Z" fill="#6D6465"/>
<path d="M116.287 55.7629C115.617 55.7629 115.059 55.6559 114.613 55.442C114.167 55.228 113.832 54.9161 113.609 54.5063C113.385 54.0966 113.274 53.5958 113.274 53.0039C113.274 52.8446 113.287 52.6533 113.314 52.4302C113.341 52.2072 113.379 51.9681 113.428 51.7132L114.7 45.642H115.832L114.553 51.7746C114.504 51.9841 114.466 52.2026 114.439 52.4302C114.412 52.6579 114.399 52.8446 114.399 52.9902C114.399 53.5411 114.564 53.9714 114.894 54.281C115.224 54.5906 115.711 54.7454 116.354 54.7454C116.903 54.7454 117.36 54.6475 117.726 54.4517C118.092 54.2514 118.387 53.9577 118.61 53.5707C118.838 53.1792 119.012 52.6943 119.132 52.1161L120.491 45.642H121.616L120.25 52.2117C120.099 52.9538 119.862 53.5912 119.541 54.1239C119.219 54.652 118.793 55.0572 118.262 55.3395C117.731 55.6218 117.072 55.7629 116.287 55.7629Z" fill="#6D6465"/>
<path d="M122.045 55.6263L124.114 45.642H125.305L128.405 54.001H128.439C128.47 53.7733 128.51 53.5093 128.559 53.2088C128.608 52.9037 128.664 52.5873 128.727 52.2595C128.789 51.9272 128.852 51.6107 128.914 51.3102L130.106 45.642H131.177L129.108 55.6263H127.917L124.797 47.2468H124.763C124.741 47.4016 124.712 47.586 124.676 47.8C124.645 48.014 124.607 48.2462 124.562 48.4966C124.522 48.747 124.477 49.0042 124.428 49.2683C124.379 49.5278 124.328 49.7805 124.274 50.0263L123.116 55.6263H122.045Z" fill="#6D6465"/>
<path d="M133.246 55.6263L135.107 46.6663H132.376L132.59 45.642H139.192L138.991 46.6663H136.259L134.391 55.6263H133.246Z" fill="#6D6465"/>
<path d="M138.556 55.6263L140.638 45.642H141.749L139.667 55.6263H138.556Z" fill="#6D6465"/>
<path d="M142.265 55.6263L144.334 45.642H145.525L148.625 54.001H148.659C148.69 53.7733 148.73 53.5093 148.779 53.2088C148.828 52.9037 148.884 52.5873 148.947 52.2595C149.009 51.9272 149.072 51.6107 149.134 51.3102L150.326 45.642H151.397L149.328 55.6263H148.137L145.017 47.2468H144.983C144.961 47.4016 144.932 47.586 144.896 47.8C144.865 48.014 144.827 48.2462 144.782 48.4966C144.742 48.747 144.697 49.0042 144.648 49.2683C144.599 49.5278 144.548 49.7805 144.494 50.0263L143.336 55.6263H142.265Z" fill="#6D6465"/>
<path d="M156.044 55.7629C154.888 55.7629 153.984 55.4328 153.332 54.7727C152.685 54.108 152.361 53.1815 152.361 51.9932C152.361 51.2556 152.444 50.5613 152.609 49.9102C152.774 49.2546 153.011 48.6582 153.319 48.121C153.631 47.5792 154.004 47.1125 154.437 46.721C154.874 46.3294 155.361 46.0289 155.897 45.8195C156.437 45.6055 157.017 45.4985 157.637 45.4985C158.222 45.4985 158.738 45.5509 159.184 45.6556C159.63 45.7603 160.057 45.9037 160.463 46.0859L160.028 47.0966C159.684 46.9372 159.313 46.8029 158.916 46.6937C158.519 46.5798 158.088 46.5229 157.624 46.5229C157.048 46.5229 156.512 46.655 156.017 46.919C155.526 47.1785 155.095 47.5496 154.725 48.0322C154.359 48.5148 154.073 49.0862 153.868 49.7463C153.662 50.402 153.56 51.1259 153.56 51.918C153.56 52.4644 153.654 52.9515 153.841 53.3795C154.033 53.8029 154.321 54.1376 154.705 54.3834C155.089 54.6247 155.573 54.7454 156.158 54.7454C156.519 54.7454 156.854 54.718 157.162 54.6634C157.47 54.6042 157.733 54.5382 157.952 54.4654L158.601 51.4195H156.593L156.807 50.4088H159.947L158.916 55.2371C158.501 55.3919 158.059 55.5193 157.59 55.6195C157.126 55.7151 156.611 55.7629 156.044 55.7629Z" fill="#6D6465"/>
<path d="M171.396 59V45H172.314V59H171.396Z" fill="#6D6465"/>
<path d="M183.039 55.6263L185.108 45.642H186.233L184.372 54.5883H188.208L187.994 55.6263H183.039Z" fill="#6D6465"/>
<path d="M189.614 55.6263L191.683 45.642H196.644L196.43 46.6663H192.6L191.924 49.8966H195.513L195.319 50.9073H191.723L190.947 54.602H194.783L194.569 55.6263H189.614Z" fill="#6D6465"/>
<path d="M200.809 55.7629C199.653 55.7629 198.749 55.4328 198.097 54.7727C197.45 54.108 197.126 53.1815 197.126 51.9932C197.126 51.2556 197.209 50.5613 197.374 49.9102C197.539 49.2546 197.776 48.6582 198.084 48.121C198.396 47.5792 198.769 47.1125 199.202 46.721C199.639 46.3294 200.126 46.0289 200.662 45.8195C201.202 45.6055 201.782 45.4985 202.402 45.4985C202.987 45.4985 203.503 45.5509 203.949 45.6556C204.395 45.7603 204.822 45.9037 205.228 46.0859L204.793 47.0966C204.449 46.9372 204.078 46.8029 203.681 46.6937C203.284 46.5798 202.853 46.5229 202.389 46.5229C201.813 46.5229 201.278 46.655 200.782 46.919C200.291 47.1785 199.86 47.5496 199.49 48.0322C199.124 48.5148 198.838 49.0862 198.633 49.7463C198.428 50.402 198.325 51.1259 198.325 51.918C198.325 52.4644 198.419 52.9515 198.606 53.3795C198.798 53.8029 199.086 54.1376 199.47 54.3834C199.854 54.6247 200.338 54.7454 200.923 54.7454C201.284 54.7454 201.619 54.718 201.927 54.6634C202.235 54.6042 202.498 54.5382 202.717 54.4654L203.367 51.4195H201.358L201.572 50.4088H204.712L203.681 55.2371C203.266 55.3919 202.824 55.5193 202.356 55.6195C201.891 55.7151 201.376 55.7629 200.809 55.7629Z" fill="#6D6465"/>
<path d="M204.672 55.6263L210.035 45.642H211.22L212.459 55.6263H211.341L210.952 52.4439H207.571L205.911 55.6263H204.672ZM208.114 51.4127H210.839L210.577 49.0839C210.546 48.747 210.513 48.3782 210.477 47.9776C210.441 47.5724 210.419 47.2104 210.41 46.8917H210.37C210.227 47.2377 210.064 47.602 209.881 47.9844C209.703 48.3623 209.513 48.7447 209.312 49.1317L208.114 51.4127Z" fill="#6D6465"/>
<path d="M217.601 55.7629C216.873 55.7629 216.251 55.6081 215.733 55.2985C215.22 54.9889 214.825 54.5496 214.548 53.9805C214.271 53.4068 214.133 52.7262 214.133 51.9385C214.133 51.3193 214.204 50.7024 214.347 50.0878C214.49 49.4686 214.702 48.8859 214.983 48.3395C215.269 47.7886 215.624 47.3015 216.048 46.878C216.472 46.4501 216.965 46.1132 217.527 45.8673C218.094 45.6215 218.728 45.4985 219.429 45.4985C219.893 45.4985 220.317 45.5441 220.701 45.6351C221.089 45.7262 221.453 45.865 221.792 46.0517L221.344 47.0146C221.085 46.8735 220.799 46.7574 220.487 46.6663C220.179 46.5707 219.826 46.5229 219.429 46.5229C218.88 46.5229 218.386 46.6254 217.949 46.8302C217.512 47.0306 217.128 47.3083 216.797 47.6634C216.472 48.014 216.199 48.4192 215.981 48.879C215.766 49.3389 215.603 49.8283 215.492 50.3473C215.385 50.8618 215.331 51.3831 215.331 51.9112C215.331 52.7854 215.548 53.4774 215.981 53.9873C216.418 54.4927 217.023 54.7454 217.795 54.7454C218.183 54.7454 218.558 54.7067 218.92 54.6293C219.286 54.5519 219.641 54.454 219.984 54.3356V55.3463C219.636 55.4738 219.277 55.574 218.906 55.6468C218.54 55.7242 218.105 55.7629 217.601 55.7629Z" fill="#6D6465"/>
<path d="M223.279 55.6263L224.075 51.8702L222.455 45.642H223.587L224.812 50.7298L228.119 45.642H229.398L225.18 51.9044L224.423 55.6263H223.279Z" fill="#6D6465"/>
<path d="M238.859 59V45H239.776V59H238.859Z" fill="#6D6465"/>
<path d="M246.953 55.6263L249.022 45.642H250.154L249.263 49.8966H253.736L254.619 45.642H255.731L253.662 55.6263H252.544L253.515 50.921H249.049L248.078 55.6263H246.953Z" fill="#6D6465"/>
<path d="M260.311 55.7629C259.525 55.7629 258.862 55.6036 258.322 55.2849C257.786 54.9662 257.382 54.5154 257.11 53.9327C256.838 53.3499 256.702 52.6647 256.702 51.8771C256.702 51.308 256.751 50.7571 256.849 50.2244C256.952 49.6917 257.099 49.1886 257.291 48.7151C257.483 48.2371 257.719 47.8023 258.001 47.4107C258.286 47.0146 258.612 46.6732 258.978 46.3863C259.344 46.0995 259.748 45.8787 260.19 45.7239C260.636 45.5646 261.118 45.4849 261.636 45.4849C262.734 45.4849 263.591 45.8332 264.207 46.5298C264.828 47.2218 265.138 48.1847 265.138 49.4185C265.138 49.9694 265.093 50.5089 265.004 51.0371C264.915 51.5607 264.781 52.0592 264.602 52.5327C264.424 53.0062 264.201 53.441 263.933 53.8371C263.665 54.2286 263.352 54.5678 262.995 54.8546C262.638 55.1415 262.237 55.3646 261.79 55.5239C261.344 55.6833 260.851 55.7629 260.311 55.7629ZM260.351 54.7454C260.735 54.7454 261.089 54.6771 261.415 54.5405C261.741 54.4039 262.036 54.2127 262.299 53.9668C262.567 53.721 262.801 53.4319 263.002 53.0995C263.207 52.7672 263.379 52.4029 263.518 52.0068C263.656 51.6062 263.761 51.185 263.832 50.7434C263.904 50.3018 263.939 49.8511 263.939 49.3912C263.939 48.4807 263.727 47.7727 263.303 47.2673C262.884 46.762 262.301 46.5093 261.556 46.5093C261.172 46.5093 260.815 46.5753 260.485 46.7073C260.154 46.8348 259.853 47.0192 259.581 47.2605C259.308 47.4972 259.067 47.7795 258.858 48.1073C258.652 48.4351 258.478 48.7993 258.335 49.2C258.193 49.5961 258.083 50.0172 258.007 50.4634C257.936 50.9096 257.9 51.3717 257.9 51.8498C257.9 52.4507 257.996 52.9675 258.188 53.4C258.38 53.8325 258.659 54.1649 259.025 54.3971C259.391 54.6293 259.833 54.7454 260.351 54.7454Z" fill="#6D6465"/>
<path d="M266.142 55.6263L268.211 45.642H269.811L270.829 53.9259H270.882L275.355 45.642H277.089L275.054 55.6263H273.915L275.201 49.4254C275.281 49.052 275.359 48.7015 275.435 48.3737C275.511 48.0459 275.58 47.7476 275.643 47.479C275.71 47.2059 275.77 46.9737 275.824 46.7824H275.797L270.976 55.6263H270.086L268.974 46.7893H268.921C268.903 46.9759 268.872 47.215 268.827 47.5063C268.787 47.7932 268.738 48.1005 268.68 48.4283C268.626 48.7515 268.568 49.0634 268.506 49.3639L267.213 55.6263H266.142Z" fill="#6D6465"/>
<path d="M277.631 55.6263L279.7 45.642H284.662L284.447 46.6663H280.618L279.941 49.8966H283.53L283.336 50.9073H279.74L278.964 54.602H282.8L282.586 55.6263H277.631Z" fill="#6D6465"/>
<path d="M286.697 55.7629C286.21 55.7629 285.784 55.7265 285.418 55.6537C285.052 55.5808 284.713 55.4693 284.4 55.319V54.1785C284.682 54.3242 285.012 54.4585 285.391 54.5815C285.771 54.6998 286.21 54.759 286.71 54.759C287.018 54.759 287.313 54.7226 287.594 54.6498C287.875 54.5769 288.125 54.4631 288.344 54.3083C288.567 54.1535 288.741 53.9554 288.866 53.7141C288.996 53.4728 289.06 53.186 289.06 52.8537C289.06 52.585 289.002 52.3483 288.886 52.1434C288.775 51.934 288.596 51.7337 288.351 51.5424C288.105 51.3467 287.784 51.1372 287.387 50.9141C287.047 50.7093 286.742 50.4953 286.469 50.2722C286.201 50.0446 285.989 49.7805 285.833 49.48C285.677 49.175 285.599 48.8062 285.599 48.3737C285.599 47.9093 285.684 47.4995 285.853 47.1444C286.023 46.7847 286.255 46.4842 286.55 46.2429C286.849 45.9971 287.19 45.8127 287.574 45.6898C287.962 45.5623 288.373 45.4985 288.806 45.4985C289.319 45.4985 289.766 45.5509 290.145 45.6556C290.524 45.7603 290.89 45.9015 291.243 46.079L290.808 47.0624C290.558 46.9259 290.257 46.8029 289.904 46.6937C289.556 46.5798 289.19 46.5229 288.806 46.5229C288.525 46.5229 288.261 46.5616 288.016 46.639C287.775 46.7119 287.563 46.8234 287.38 46.9737C287.197 47.1239 287.054 47.3106 286.951 47.5337C286.849 47.7522 286.797 48.0072 286.797 48.2985C286.797 48.5945 286.851 48.8403 286.958 49.0361C287.07 49.2319 287.23 49.4094 287.44 49.5688C287.654 49.7281 287.918 49.9011 288.23 50.0878C288.627 50.3246 288.978 50.5613 289.281 50.798C289.585 51.0302 289.821 51.3011 289.991 51.6107C290.161 51.9158 290.245 52.3005 290.245 52.7649C290.245 53.2657 290.158 53.705 289.984 54.0829C289.815 54.4563 289.571 54.7681 289.255 55.0185C288.938 55.2644 288.563 55.4511 288.13 55.5785C287.697 55.7015 287.219 55.7629 286.697 55.7629Z" fill="#6D6465"/>
<path d="M299.224 55.7629C298.438 55.7629 297.775 55.6036 297.235 55.2849C296.7 54.9662 296.296 54.5154 296.024 53.9327C295.751 53.3499 295.615 52.6647 295.615 51.8771C295.615 51.308 295.664 50.7571 295.762 50.2244C295.865 49.6917 296.012 49.1886 296.204 48.7151C296.396 48.2371 296.633 47.8023 296.914 47.4107C297.2 47.0146 297.526 46.6732 297.892 46.3863C298.258 46.0995 298.662 45.8787 299.103 45.7239C299.55 45.5646 300.032 45.4849 300.55 45.4849C301.648 45.4849 302.505 45.8332 303.121 46.5298C303.741 47.2218 304.051 48.1847 304.051 49.4185C304.051 49.9694 304.007 50.5089 303.917 51.0371C303.828 51.5607 303.694 52.0592 303.516 52.5327C303.337 53.0062 303.114 53.441 302.846 53.8371C302.578 54.2286 302.266 54.5678 301.909 54.8546C301.552 55.1415 301.15 55.3646 300.704 55.5239C300.257 55.6833 299.764 55.7629 299.224 55.7629ZM299.264 54.7454C299.648 54.7454 300.003 54.6771 300.329 54.5405C300.654 54.4039 300.949 54.2127 301.212 53.9668C301.48 53.721 301.715 53.4319 301.915 53.0995C302.121 52.7672 302.293 52.4029 302.431 52.0068C302.569 51.6062 302.674 51.185 302.746 50.7434C302.817 50.3018 302.853 49.8511 302.853 49.3912C302.853 48.4807 302.641 47.7727 302.217 47.2673C301.797 46.762 301.215 46.5093 300.469 46.5093C300.085 46.5093 299.728 46.5753 299.398 46.7073C299.068 46.8348 298.766 47.0192 298.494 47.2605C298.222 47.4972 297.981 47.7795 297.771 48.1073C297.566 48.4351 297.392 48.7993 297.249 49.2C297.106 49.5961 296.997 50.0172 296.921 50.4634C296.849 50.9096 296.814 51.3717 296.814 51.8498C296.814 52.4507 296.91 52.9675 297.101 53.4C297.293 53.8325 297.572 54.1649 297.938 54.3971C298.304 54.6293 298.746 54.7454 299.264 54.7454Z" fill="#6D6465"/>
<path d="M305.056 55.6263L307.124 45.642H308.316L311.416 54.001H311.45C311.481 53.7733 311.521 53.5093 311.57 53.2088C311.619 52.9037 311.675 52.5873 311.738 52.2595C311.8 51.9272 311.863 51.6107 311.925 51.3102L313.117 45.642H314.188L312.119 55.6263H310.927L307.807 47.2468H307.774C307.752 47.4016 307.723 47.586 307.687 47.8C307.656 48.014 307.618 48.2462 307.573 48.4966C307.533 48.747 307.488 49.0042 307.439 49.2683C307.39 49.5278 307.339 49.7805 307.285 50.0263L306.127 55.6263H305.056Z" fill="#6D6465"/>
<path d="M316.94 55.6263L322.303 45.642H323.488L324.727 55.6263H323.608L323.22 52.4439H319.839L318.178 55.6263H316.94ZM320.381 51.4127H323.106L322.845 49.0839C322.814 48.747 322.78 48.3782 322.745 47.9776C322.709 47.5724 322.687 47.2104 322.678 46.8917H322.638C322.495 47.2377 322.332 47.602 322.149 47.9844C321.97 48.3623 321.781 48.7447 321.58 49.1317L320.381 51.4127Z" fill="#6D6465"/>
<path d="M329.869 55.7629C329.141 55.7629 328.518 55.6081 328.001 55.2985C327.487 54.9889 327.092 54.5496 326.815 53.9805C326.539 53.4068 326.4 52.7262 326.4 51.9385C326.4 51.3193 326.472 50.7024 326.615 50.0878C326.757 49.4686 326.969 48.8859 327.251 48.3395C327.536 47.7886 327.891 47.3015 328.315 46.878C328.739 46.4501 329.232 46.1132 329.795 45.8673C330.362 45.6215 330.996 45.4985 331.696 45.4985C332.161 45.4985 332.585 45.5441 332.968 45.6351C333.357 45.7262 333.721 45.865 334.06 46.0517L333.611 47.0146C333.352 46.8735 333.067 46.7574 332.754 46.6663C332.446 46.5707 332.094 46.5229 331.696 46.5229C331.147 46.5229 330.654 46.6254 330.217 46.8302C329.779 47.0306 329.395 47.3083 329.065 47.6634C328.739 48.014 328.467 48.4192 328.248 48.879C328.034 49.3389 327.871 49.8283 327.76 50.3473C327.652 50.8618 327.599 51.3831 327.599 51.9112C327.599 52.7854 327.815 53.4774 328.248 53.9873C328.686 54.4927 329.291 54.7454 330.063 54.7454C330.451 54.7454 330.826 54.7067 331.188 54.6293C331.554 54.5519 331.908 54.454 332.252 54.3356V55.3463C331.904 55.4738 331.545 55.574 331.174 55.6468C330.808 55.7242 330.373 55.7629 329.869 55.7629Z" fill="#6D6465"/>
<path d="M334.033 55.6263L336.102 45.642H338.244C339.244 45.642 339.994 45.8537 340.494 46.2771C340.994 46.6959 341.244 47.3174 341.244 48.1415C341.244 48.6332 341.161 49.0816 340.996 49.4868C340.831 49.8875 340.565 50.2335 340.199 50.5249C339.838 50.8163 339.363 51.0439 338.773 51.2078L340.38 55.6263H339.148L337.729 51.4605H336.022L335.158 55.6263H334.033ZM336.222 50.4771H337.408C337.858 50.4771 338.251 50.4247 338.586 50.32C338.921 50.2107 339.197 50.0582 339.416 49.8624C339.639 49.6667 339.804 49.4299 339.912 49.1522C340.023 48.8745 340.079 48.5649 340.079 48.2234C340.079 47.6452 339.916 47.2377 339.59 47.001C339.269 46.7642 338.782 46.6459 338.131 46.6459H337.033L336.222 50.4771Z" fill="#6D6465"/>
<path d="M341.88 55.6263L343.949 45.642H348.91L348.696 46.6663H344.866L344.19 49.8966H347.779L347.584 50.9073H343.989L343.212 54.602H347.049L346.835 55.6263H341.88Z" fill="#6D6465"/>
<path d="M347.618 55.6263L352.981 45.642H354.166L355.405 55.6263H354.286L353.898 52.4439H350.517L348.857 55.6263H347.618ZM351.059 51.4127H353.784L353.523 49.0839C353.492 48.747 353.458 48.3782 353.423 47.9776C353.387 47.5724 353.365 47.2104 353.356 46.8917H353.316C353.173 47.2377 353.01 47.602 352.827 47.9844C352.648 48.3623 352.459 48.7447 352.258 49.1317L351.059 51.4127Z" fill="#6D6465"/>
<path d="M360.761 55.7629C359.605 55.7629 358.701 55.4328 358.049 54.7727C357.402 54.108 357.078 53.1815 357.078 51.9932C357.078 51.2556 357.161 50.5613 357.326 49.9102C357.491 49.2546 357.728 48.6582 358.036 48.121C358.348 47.5792 358.721 47.1125 359.154 46.721C359.591 46.3294 360.078 46.0289 360.614 45.8195C361.154 45.6055 361.734 45.4985 362.354 45.4985C362.939 45.4985 363.455 45.5509 363.901 45.6556C364.347 45.7603 364.774 45.9037 365.18 46.0859L364.745 47.0966C364.401 46.9372 364.03 46.8029 363.633 46.6937C363.236 46.5798 362.805 46.5229 362.341 46.5229C361.765 46.5229 361.23 46.655 360.734 46.919C360.243 47.1785 359.812 47.5496 359.442 48.0322C359.076 48.5148 358.79 49.0862 358.585 49.7463C358.38 50.402 358.277 51.1259 358.277 51.918C358.277 52.4644 358.371 52.9515 358.558 53.3795C358.75 53.8029 359.038 54.1376 359.422 54.3834C359.806 54.6247 360.29 54.7454 360.875 54.7454C361.236 54.7454 361.571 54.718 361.879 54.6634C362.187 54.6042 362.45 54.5382 362.669 54.4654L363.319 51.4195H361.31L361.524 50.4088H364.664L363.633 55.2371C363.218 55.3919 362.776 55.5193 362.308 55.6195C361.843 55.7151 361.328 55.7629 360.761 55.7629Z" fill="#6D6465"/>
<path d="M365.97 55.6263L368.039 45.642H373L372.786 46.6663H368.956L368.28 49.8966H371.868L371.674 50.9073H368.079L367.302 54.602H371.139L370.924 55.6263H365.97Z" fill="#6D6465"/>
</svg>
