<svg width="385" height="69" viewBox="0 0 385 69" fill="none" xmlns="http://www.w3.org/2000/svg">
<path d="M12.0285 18.5484H27.6377L27.7861 23.2383H27.125C26.8013 21.7648 26.3875 20.808 25.8839 20.3677C25.3892 19.9185 24.3414 19.6939 22.7404 19.6939H21.2024V33.8174C21.2024 34.8865 21.3688 35.5513 21.7016 35.8119C22.0344 36.0635 22.7629 36.2297 23.8872 36.3105V36.8092H15.833V36.3105C17.0022 36.2207 17.7307 36.0275 18.0185 35.731C18.3063 35.4345 18.4503 34.6888 18.4503 33.4939V19.6939H16.9123C15.3833 19.6939 14.34 19.914 13.7823 20.3543C13.2337 20.7945 12.82 21.7558 12.5411 23.2383H11.8666L12.0285 18.5484Z" fill="#484242"/>
<path d="M28.69 36.3105C29.7064 36.2027 30.3629 36.023 30.6597 35.7715C30.9655 35.5109 31.1184 34.8595 31.1184 33.8174V21.5402C31.1184 20.5609 30.97 19.923 30.6732 19.6265C30.3764 19.3211 29.7153 19.1324 28.69 19.0605V18.5484H43.3684L43.4628 22.5105H42.7613C42.5274 21.2886 42.1767 20.498 41.709 20.1386C41.2413 19.7793 40.198 19.5996 38.579 19.5996H34.8285C34.4238 19.5996 34.1719 19.667 34.073 19.8017C33.983 19.9275 33.9381 20.1701 33.9381 20.5295V26.6883H38.1878C39.366 26.6883 40.117 26.5131 40.4408 26.1627C40.7646 25.8123 41.0254 25.1025 41.2233 24.0334H41.8709V30.4213H41.2233C41.0164 29.3521 40.7511 28.6469 40.4273 28.3054C40.1035 27.9551 39.357 27.7799 38.1878 27.7799H33.9381V34.6125C33.9381 35.1605 34.109 35.484 34.4507 35.5828C34.8015 35.6816 35.8403 35.731 37.5672 35.731C39.438 35.731 40.8186 35.5289 41.709 35.1246C42.5994 34.7113 43.3999 33.7185 44.1104 32.1463H44.8794L43.6247 36.8092H28.69V36.3105Z" fill="#484242"/>
<path d="M45.5539 36.3105C46.3004 36.2297 46.8671 36.032 47.2538 35.7176C47.6406 35.4031 48.4051 34.5451 49.5473 33.1435L53.8645 27.8338L50.802 23.4C49.4799 21.4863 48.549 20.2959 48.0093 19.8287C47.4787 19.3525 46.7681 19.0965 45.8777 19.0605V18.5484H54.2152V19.0605C53.4148 19.0875 52.8931 19.1414 52.6503 19.2222C52.2815 19.339 52.0971 19.5951 52.0971 19.9904C52.0971 20.242 52.1871 20.5429 52.367 20.8933C52.4569 21.073 52.5828 21.2797 52.7447 21.5133L55.6183 25.664L58.7618 21.8636C59.2205 21.3156 59.5308 20.8754 59.6926 20.5429C59.7916 20.3453 59.841 20.1656 59.841 20.0039C59.841 19.5996 59.6432 19.3301 59.2474 19.1953C59.0046 19.1144 58.5639 19.0695 57.9253 19.0605V18.5484H64.482V19.0605C63.7445 19.0785 63.1734 19.1953 62.7686 19.4109C62.13 19.7613 61.3386 20.516 60.3942 21.675L56.3334 26.6613L61.6354 34.2621C62.202 35.0797 62.6742 35.6008 63.0519 35.8254C63.4297 36.041 63.9828 36.2027 64.7113 36.3105V36.8092H56.5222V36.2701C57.3047 36.2521 57.8489 36.1847 58.1547 36.0679C58.4695 35.9511 58.6268 35.7265 58.6268 35.3941C58.6268 35.1066 58.42 34.6304 58.0063 33.9656C57.5925 33.3008 56.4458 31.5892 54.566 28.831L51.3012 32.9549C50.8245 33.5568 50.4917 33.997 50.3028 34.2756C50.006 34.7158 49.8576 35.0437 49.8576 35.2594C49.8576 35.6547 50.0915 35.9332 50.5591 36.0949C50.838 36.1937 51.3102 36.2656 51.9757 36.3105V36.8092H45.5539V36.3105Z" fill="#484242"/>
<path d="M77.5684 29.7205L74.371 22.1197L71.2141 29.7205H77.5684ZM65.6422 36.8092V36.3105C66.3528 36.2297 66.8834 35.9601 67.2342 35.5019C67.594 35.0437 68.2056 33.7994 69.069 31.7689L74.8297 18.225H75.3693L82.2498 33.8713C82.7085 34.9135 83.0728 35.5603 83.3426 35.8119C83.6214 36.0545 84.0846 36.2207 84.7322 36.3105V36.8092H77.7033V36.3105C78.5128 36.2386 79.0344 36.1533 79.2683 36.0545C79.5021 35.9467 79.6191 35.6906 79.6191 35.2863C79.6191 35.1515 79.5741 34.9135 79.4841 34.572C79.3942 34.2306 79.2683 33.8713 79.1064 33.4939L77.9596 30.839H70.7284C70.0089 32.6449 69.5772 33.75 69.4332 34.1543C69.2983 34.5496 69.2309 34.864 69.2309 35.0976C69.2309 35.5648 69.4198 35.8883 69.7975 36.0679C70.0314 36.1758 70.4721 36.2566 71.1196 36.3105V36.8092H65.6422Z" fill="#484242"/>
<path d="M86.9852 31.2568C87.4529 32.4967 88.0015 33.4849 88.6311 34.2217C89.7284 35.5064 91.091 36.1488 92.7189 36.1488C93.6004 36.1488 94.3604 35.8703 94.9989 35.3133C95.6465 34.7562 95.9703 33.9791 95.9703 32.9818C95.9703 32.0834 95.6465 31.3017 94.9989 30.6369C94.5762 30.2146 93.6858 29.5812 92.3277 28.7367L89.9668 27.2677C89.2562 26.8185 88.6896 26.3648 88.2669 25.9066C87.4844 25.0351 87.0931 24.0738 87.0931 23.0226C87.0931 21.6301 87.5563 20.4711 88.4827 19.5457C89.4091 18.6203 90.6368 18.1576 92.1658 18.1576C92.7954 18.1576 93.5509 18.3148 94.4323 18.6293C95.3227 18.9347 95.8309 19.0875 95.9568 19.0875C96.2986 19.0875 96.5324 19.0066 96.6584 18.8449C96.7933 18.6832 96.8967 18.4541 96.9687 18.1576H97.5353L98.1424 24.0334H97.4813C97.0316 22.2635 96.3076 21.0281 95.3092 20.3273C94.3199 19.6265 93.3395 19.2761 92.3682 19.2761C91.6127 19.2761 90.9516 19.5008 90.385 19.95C89.8273 20.3902 89.5485 21.0056 89.5485 21.7963C89.5485 22.506 89.7644 23.1125 90.1961 23.6156C90.6278 24.1277 91.2979 24.6623 92.2063 25.2193L94.6347 26.7152C96.1547 27.6496 97.225 28.5076 97.8456 29.2892C98.4572 30.0799 98.763 31.0142 98.763 32.0924C98.763 33.5388 98.2143 34.7472 97.1171 35.7176C96.0288 36.6879 94.6347 37.173 92.9348 37.173C92.0804 37.173 91.1855 37.0113 90.2501 36.6879C89.3237 36.3644 88.793 36.2027 88.6581 36.2027C88.3343 36.2027 88.114 36.3015 87.997 36.4992C87.8891 36.6969 87.8172 36.908 87.7812 37.1326H87.1741L86.3511 31.2568H86.9852Z" fill="#484242"/>
<path d="M112.983 27.3621C114.97 27.2902 116.391 27.0836 117.246 26.7422C118.712 26.1402 119.445 25.0082 119.445 23.3461C119.445 21.7469 118.788 20.6552 117.475 20.0713C116.774 19.7568 115.843 19.5996 114.683 19.5996C113.9 19.5996 113.419 19.658 113.239 19.7748C113.068 19.8826 112.983 20.1431 112.983 20.5564V27.3621ZM107.802 36.3105C108.863 36.2117 109.524 36.0051 109.785 35.6906C110.046 35.3761 110.176 34.6439 110.176 33.4939V21.5402C110.176 20.5699 110.028 19.9365 109.731 19.64C109.443 19.3345 108.8 19.1414 107.802 19.0605V18.5484H115.452C117.043 18.5484 118.37 18.7506 119.431 19.1549C121.446 19.9185 122.453 21.3246 122.453 23.373C122.453 24.7476 122.004 25.8033 121.104 26.54C120.214 27.2767 119 27.7619 117.462 27.9955L123.155 34.9898C123.506 35.4211 123.856 35.7355 124.207 35.9332C124.558 36.1308 125.008 36.2566 125.556 36.3105V36.8092H121.104L114.521 28.3189L112.983 28.3863V33.8174C112.983 34.8416 113.136 35.4929 113.441 35.7715C113.756 36.041 114.435 36.2207 115.478 36.3105V36.8092H107.802V36.3105Z" fill="#484242"/>
<path d="M138.252 29.7205L135.054 22.1197L131.897 29.7205H138.252ZM126.325 36.8092V36.3105C127.036 36.2297 127.567 35.9601 127.917 35.5019C128.277 35.0437 128.889 33.7994 129.752 31.7689L135.513 18.225H136.052L142.933 33.8713C143.392 34.9135 143.756 35.5603 144.026 35.8119C144.305 36.0545 144.768 36.2207 145.415 36.3105V36.8092H138.386V36.3105C139.196 36.2386 139.718 36.1533 139.951 36.0545C140.185 35.9467 140.302 35.6906 140.302 35.2863C140.302 35.1515 140.257 34.9135 140.167 34.572C140.077 34.2306 139.951 33.8713 139.79 33.4939L138.643 30.839H131.412C130.692 32.6449 130.26 33.75 130.116 34.1543C129.981 34.5496 129.914 34.864 129.914 35.0976C129.914 35.5648 130.103 35.8883 130.481 36.0679C130.714 36.1758 131.155 36.2566 131.803 36.3105V36.8092H126.325Z" fill="#484242"/>
<path d="M146.198 36.3105C147.34 36.1937 148.073 35.9377 148.397 35.5424C148.721 35.1381 148.883 34.2082 148.883 32.7527V20.5834L148.505 20.1386C148.1 19.6625 147.754 19.3705 147.466 19.2627C147.187 19.1459 146.764 19.0785 146.198 19.0605V18.5484H150.933L161.578 31.8363V22.6049C161.578 21.0865 161.353 20.0982 160.903 19.64C160.606 19.3435 159.95 19.1504 158.933 19.0605V18.5484H165.423V19.0605C164.37 19.1683 163.669 19.4244 163.318 19.8287C162.967 20.233 162.792 21.1584 162.792 22.6049V37.1326H162.32L150.097 21.9984V32.7527C150.097 34.2621 150.317 35.2459 150.758 35.7041C151.046 36.0006 151.689 36.2027 152.687 36.3105V36.8092H146.198V36.3105Z" fill="#484242"/>
<path d="M176.081 18.225C177.079 18.225 178.104 18.3732 179.157 18.6697C180.209 18.9662 180.798 19.1144 180.924 19.1144C181.185 19.1144 181.432 19.0426 181.666 18.8988C181.9 18.7551 182.062 18.5304 182.152 18.225H182.732L182.988 24.4242H182.354C181.985 23.1933 181.504 22.2006 180.91 21.4459C179.777 20.0263 178.253 19.3166 176.337 19.3166C174.403 19.3166 172.82 20.0802 171.588 21.6076C170.365 23.1349 169.753 25.2373 169.753 27.9146C169.753 30.3763 170.396 32.3439 171.683 33.8174C172.978 35.2818 174.615 36.014 176.593 36.014C178.023 36.014 179.341 35.6726 180.546 34.9898C181.239 34.6035 181.999 34.0195 182.826 33.2379L183.339 33.75C182.727 34.5226 181.967 35.201 181.059 35.7849C179.512 36.7732 177.835 37.2674 176.027 37.2674C173.059 37.2674 170.702 36.3195 168.957 34.4238C167.347 32.6719 166.542 30.4842 166.542 27.8607C166.542 25.1744 167.392 22.9193 169.092 21.0955C170.882 19.1818 173.212 18.225 176.081 18.225Z" fill="#484242"/>
<path d="M184.728 36.3105C185.808 36.1937 186.482 35.9961 186.752 35.7176C187.022 35.4301 187.157 34.6888 187.157 33.4939V21.5402C187.157 20.5519 187.004 19.9095 186.698 19.6131C186.401 19.3166 185.745 19.1324 184.728 19.0605V18.5484H192.405V19.0605C191.389 19.1324 190.728 19.3166 190.422 19.6131C190.116 19.9095 189.963 20.5519 189.963 21.5402V26.9174H198.341V21.5402C198.341 20.5519 198.193 19.9095 197.896 19.6131C197.599 19.3166 196.938 19.1324 195.913 19.0605V18.5484H203.589V19.0605C202.573 19.1324 201.912 19.3166 201.606 19.6131C201.309 19.9095 201.161 20.5519 201.161 21.5402V33.8174C201.161 34.8236 201.309 35.4705 201.606 35.758C201.912 36.0365 202.573 36.2207 203.589 36.3105V36.8092H195.913V36.3105C197.001 36.2027 197.675 36.0051 197.936 35.7176C198.206 35.4301 198.341 34.6888 198.341 33.4939V28.1302H189.963V33.8174C189.963 34.8236 190.116 35.4705 190.422 35.758C190.728 36.0455 191.389 36.2297 192.405 36.3105V36.8092H184.728V36.3105Z" fill="#484242"/>
<path d="M204.56 36.3105C205.577 36.2027 206.233 36.023 206.53 35.7715C206.836 35.5109 206.989 34.8595 206.989 33.8174V21.5402C206.989 20.5609 206.84 19.923 206.544 19.6265C206.247 19.3211 205.586 19.1324 204.56 19.0605V18.5484H219.239L219.333 22.5105H218.632C218.398 21.2886 218.047 20.498 217.579 20.1386C217.112 19.7793 216.068 19.5996 214.449 19.5996H210.699C210.294 19.5996 210.042 19.667 209.943 19.8017C209.853 19.9275 209.808 20.1701 209.808 20.5295V26.6883H214.058C215.236 26.6883 215.987 26.5131 216.311 26.1627C216.635 25.8123 216.896 25.1025 217.094 24.0334H217.741V30.4213H217.094C216.887 29.3521 216.622 28.6469 216.298 28.3054C215.974 27.9551 215.227 27.7799 214.058 27.7799H209.808V34.6125C209.808 35.1605 209.979 35.484 210.321 35.5828C210.672 35.6816 211.711 35.731 213.438 35.731C215.308 35.731 216.689 35.5289 217.579 35.1246C218.47 34.7113 219.27 33.7185 219.981 32.1463H220.75L219.495 36.8092H204.56V36.3105Z" fill="#484242"/>
<path d="M222.922 31.2568C223.39 32.4967 223.938 33.4849 224.568 34.2217C225.665 35.5064 227.028 36.1488 228.656 36.1488C229.537 36.1488 230.297 35.8703 230.936 35.3133C231.583 34.7562 231.907 33.9791 231.907 32.9818C231.907 32.0834 231.583 31.3017 230.936 30.6369C230.513 30.2146 229.622 29.5812 228.264 28.7367L225.903 27.2677C225.193 26.8185 224.626 26.3648 224.204 25.9066C223.421 25.0351 223.03 24.0738 223.03 23.0226C223.03 21.6301 223.493 20.4711 224.419 19.5457C225.346 18.6203 226.573 18.1576 228.102 18.1576C228.732 18.1576 229.488 18.3148 230.369 18.6293C231.259 18.9347 231.768 19.0875 231.893 19.0875C232.235 19.0875 232.469 19.0066 232.595 18.8449C232.73 18.6832 232.833 18.4541 232.905 18.1576H233.472L234.079 24.0334H233.418C232.968 22.2635 232.244 21.0281 231.246 20.3273C230.257 19.6265 229.276 19.2761 228.305 19.2761C227.549 19.2761 226.888 19.5008 226.322 19.95C225.764 20.3902 225.485 21.0056 225.485 21.7963C225.485 22.506 225.701 23.1125 226.133 23.6156C226.564 24.1277 227.235 24.6623 228.143 25.2193L230.571 26.7152C232.091 27.6496 233.162 28.5076 233.782 29.2892C234.394 30.0799 234.7 31.0142 234.7 32.0924C234.7 33.5388 234.151 34.7472 233.054 35.7176C231.965 36.6879 230.571 37.173 228.871 37.173C228.017 37.173 227.122 37.0113 226.187 36.6879C225.26 36.3644 224.73 36.2027 224.595 36.2027C224.271 36.2027 224.051 36.3015 223.934 36.4992C223.826 36.6969 223.754 36.908 223.718 37.1326H223.111L222.288 31.2568H222.922Z" fill="#484242"/>
<path d="M243.739 36.3105C244.827 36.1937 245.502 35.9961 245.762 35.7176C246.032 35.4301 246.167 34.6888 246.167 33.4939V21.5402C246.167 20.5609 246.019 19.923 245.722 19.6265C245.425 19.3211 244.764 19.1324 243.739 19.0605V18.5484H258.458L258.552 22.5105H257.783C257.594 21.2437 257.239 20.4441 256.717 20.1117C256.196 19.7703 255.166 19.5996 253.628 19.5996H249.85C249.481 19.5996 249.243 19.6625 249.135 19.7883C249.036 19.914 248.987 20.1611 248.987 20.5295V26.6883H252.98C254.158 26.6883 254.909 26.5131 255.233 26.1627C255.557 25.8123 255.818 25.1025 256.016 24.0334H256.663V30.4213H256.016C255.809 29.3521 255.543 28.6469 255.22 28.3054C254.896 27.9551 254.149 27.7799 252.98 27.7799H248.987V33.8174C248.987 34.8326 249.14 35.484 249.445 35.7715C249.76 36.05 250.439 36.2297 251.483 36.3105V36.8092H243.739V36.3105Z" fill="#484242"/>
<path d="M262.761 27.6855C262.761 30.5875 263.332 32.7347 264.475 34.1273C265.617 35.5109 267.02 36.2027 268.684 36.2027C270.312 36.2027 271.701 35.5289 272.853 34.1812C274.013 32.8246 274.593 30.6594 274.593 27.6855C274.593 24.6758 274.008 22.5015 272.839 21.1629C271.67 19.8242 270.285 19.1549 268.684 19.1549C267.029 19.1549 265.626 19.8511 264.475 21.2437C263.332 22.6273 262.761 24.7746 262.761 27.6855ZM259.631 27.6855C259.631 24.7386 260.558 22.3758 262.41 20.5969C264.11 18.9707 266.201 18.1576 268.684 18.1576C271.175 18.1576 273.271 18.9752 274.971 20.6103C276.814 22.3802 277.736 24.7386 277.736 27.6855C277.736 30.6773 276.783 33.0582 274.876 34.8281C273.167 36.4094 271.103 37.2 268.684 37.2C266.094 37.2 263.944 36.324 262.235 34.572C260.499 32.7842 259.631 30.4886 259.631 27.6855Z" fill="#484242"/>
<path d="M284.266 27.3621C286.254 27.2902 287.675 27.0836 288.529 26.7422C289.995 26.1402 290.728 25.0082 290.728 23.3461C290.728 21.7469 290.072 20.6552 288.759 20.0713C288.057 19.7568 287.126 19.5996 285.966 19.5996C285.183 19.5996 284.702 19.658 284.522 19.7748C284.352 19.8826 284.266 20.1431 284.266 20.5564V27.3621ZM279.085 36.3105C280.147 36.2117 280.808 36.0051 281.069 35.6906C281.329 35.3761 281.46 34.6439 281.46 33.4939V21.5402C281.46 20.5699 281.312 19.9365 281.015 19.64C280.727 19.3345 280.084 19.1414 279.085 19.0605V18.5484H286.735C288.327 18.5484 289.654 18.7506 290.715 19.1549C292.73 19.9185 293.737 21.3246 293.737 23.373C293.737 24.7476 293.287 25.8033 292.388 26.54C291.497 27.2767 290.283 27.7619 288.745 27.9955L294.438 34.9898C294.789 35.4211 295.14 35.7355 295.491 35.9332C295.841 36.1308 296.291 36.2566 296.84 36.3105V36.8092H292.388L285.804 28.3189L284.266 28.3863V33.8174C284.266 34.8416 284.419 35.4929 284.725 35.7715C285.04 36.041 285.719 36.2207 286.762 36.3105V36.8092H279.085V36.3105Z" fill="#484242"/>
<path d="M305.892 31.2568C306.36 32.4967 306.909 33.4849 307.538 34.2217C308.636 35.5064 309.998 36.1488 311.626 36.1488C312.508 36.1488 313.268 35.8703 313.906 35.3133C314.554 34.7562 314.877 33.9791 314.877 32.9818C314.877 32.0834 314.554 31.3017 313.906 30.6369C313.483 30.2146 312.593 29.5812 311.235 28.7367L308.874 27.2677C308.163 26.8185 307.597 26.3648 307.174 25.9066C306.392 25.0351 306 24.0738 306 23.0226C306 21.6301 306.463 20.4711 307.39 19.5457C308.316 18.6203 309.544 18.1576 311.073 18.1576C311.703 18.1576 312.458 18.3148 313.339 18.6293C314.23 18.9347 314.738 19.0875 314.864 19.0875C315.206 19.0875 315.44 19.0066 315.565 18.8449C315.7 18.6832 315.804 18.4541 315.876 18.1576H316.442L317.05 24.0334H316.388C315.939 22.2635 315.215 21.0281 314.216 20.3273C313.227 19.6265 312.247 19.2761 311.275 19.2761C310.52 19.2761 309.859 19.5008 309.292 19.95C308.734 20.3902 308.456 21.0056 308.456 21.7963C308.456 22.506 308.672 23.1125 309.103 23.6156C309.535 24.1277 310.205 24.6623 311.113 25.2193L313.542 26.7152C315.062 27.6496 316.132 28.5076 316.753 29.2892C317.364 30.0799 317.67 31.0142 317.67 32.0924C317.67 33.5388 317.121 34.7472 316.024 35.7176C314.936 36.6879 313.542 37.173 311.842 37.173C310.988 37.173 310.093 37.0113 309.157 36.6879C308.231 36.3644 307.7 36.2027 307.565 36.2027C307.241 36.2027 307.021 36.3015 306.904 36.4992C306.796 36.6969 306.724 36.908 306.688 37.1326H306.081L305.258 31.2568H305.892Z" fill="#484242"/>
<path d="M331.822 29.7205L328.625 22.1197L325.468 29.7205H331.822ZM319.896 36.8092V36.3105C320.607 36.2297 321.137 35.9601 321.488 35.5019C321.848 35.0437 322.459 33.7994 323.323 31.7689L329.084 18.225H329.623L336.504 33.8713C336.962 34.9135 337.327 35.5603 337.597 35.8119C337.875 36.0545 338.339 36.2207 338.986 36.3105V36.8092H331.957V36.3105C332.767 36.2386 333.288 36.1533 333.522 36.0545C333.756 35.9467 333.873 35.6906 333.873 35.2863C333.873 35.1515 333.828 34.9135 333.738 34.572C333.648 34.2306 333.522 33.8713 333.36 33.4939L332.214 30.839H324.982C324.263 32.6449 323.831 33.75 323.687 34.1543C323.552 34.5496 323.485 34.864 323.485 35.0976C323.485 35.5648 323.674 35.8883 324.051 36.0679C324.285 36.1758 324.726 36.2566 325.374 36.3105V36.8092H319.896Z" fill="#484242"/>
<path d="M339.769 36.3105C340.785 36.2027 341.441 36.023 341.738 35.7715C342.044 35.5109 342.197 34.8595 342.197 33.8174V21.5402C342.197 20.5609 342.049 19.923 341.752 19.6265C341.455 19.3211 340.794 19.1324 339.769 19.0605V18.5484H347.58V19.0605C346.564 19.1144 345.88 19.2806 345.529 19.5592C345.188 19.8377 345.017 20.4351 345.017 21.3515V34.6125C345.017 34.9179 345.066 35.1605 345.165 35.3402C345.273 35.5109 345.502 35.6187 345.853 35.6636C346.06 35.6906 346.276 35.7086 346.501 35.7176C346.735 35.7265 347.166 35.731 347.796 35.731C350.251 35.731 351.911 35.5289 352.774 35.1246C353.637 34.7203 354.474 33.6871 355.283 32.025H355.985L354.636 36.8092H339.769V36.3105Z" fill="#484242"/>
<path d="M356.659 36.3105C357.676 36.2027 358.332 36.023 358.629 35.7715C358.935 35.5109 359.088 34.8595 359.088 33.8174V21.5402C359.088 20.5609 358.939 19.923 358.643 19.6265C358.346 19.3211 357.685 19.1324 356.659 19.0605V18.5484H371.338L371.432 22.5105H370.731C370.497 21.2886 370.146 20.498 369.678 20.1386C369.211 19.7793 368.167 19.5996 366.548 19.5996H362.798C362.393 19.5996 362.141 19.667 362.042 19.8017C361.953 19.9275 361.908 20.1701 361.908 20.5295V26.6883H366.157C367.335 26.6883 368.086 26.5131 368.41 26.1627C368.734 25.8123 368.995 25.1025 369.193 24.0334H369.84V30.4213H369.193C368.986 29.3521 368.721 28.6469 368.397 28.3054C368.073 27.9551 367.326 27.7799 366.157 27.7799H361.908V34.6125C361.908 35.1605 362.078 35.484 362.42 35.5828C362.771 35.6816 363.81 35.731 365.537 35.731C367.407 35.731 368.788 35.5289 369.678 35.1246C370.569 34.7113 371.369 33.7185 372.08 32.1463H372.849L371.594 36.8092H356.659V36.3105Z" fill="#484242"/>
<path d="M12.0865 55.752L13.5953 48.659H14.4156L13.0582 55.0146H15.8561L15.6998 55.752H12.0865Z" fill="#6D6465"/>
<path d="M16.8815 55.752L18.4 48.659H19.2106L17.692 55.752H16.8815Z" fill="#6D6465"/>
<path d="M20.8951 55.752L20.109 48.659H20.9244L21.403 53.2729C21.4225 53.4475 21.4388 53.6254 21.4518 53.8066C21.4681 53.9844 21.4795 54.1591 21.486 54.3305C21.4925 54.5019 21.4941 54.6637 21.4908 54.8157H21.5104C21.5755 54.6637 21.6455 54.5068 21.7203 54.3451C21.7985 54.1834 21.8815 54.0136 21.9694 53.8357C22.0605 53.6578 22.1582 53.4686 22.2623 53.268L24.6647 48.659H25.5778L21.7692 55.752H20.8951Z" fill="#6D6465"/>
<path d="M25.0944 55.752L26.6032 48.659H30.2213L30.0651 49.3868H27.2721L26.7789 51.6816H29.3961L29.2545 52.3996H26.6324L26.066 55.0243H28.8639L28.7076 55.752H25.0944Z" fill="#6D6465"/>
<path d="M33.8346 55.752L33.527 48.659H34.3375L34.4938 53.0982C34.5035 53.3634 34.5035 53.6368 34.4938 53.9181C34.4873 54.1963 34.4759 54.4648 34.4596 54.7235H34.4889C34.5833 54.4712 34.6923 54.1882 34.816 53.8745C34.943 53.5575 35.0765 53.2551 35.2164 52.9672L37.2477 48.659H38.0826L38.3024 52.9527C38.3219 53.2502 38.3349 53.5607 38.3414 53.8842C38.3479 54.2076 38.3496 54.489 38.3463 54.7284H38.3756C38.4342 54.5634 38.4961 54.3904 38.5612 54.2092C38.6263 54.0249 38.6946 53.8373 38.7662 53.6465C38.8379 53.4556 38.9143 53.2648 38.9957 53.074L40.9342 48.659H41.8082L38.5709 55.752H37.7311L37.4967 51.0509C37.4869 50.9086 37.4788 50.7598 37.4723 50.6045C37.4658 50.4493 37.4609 50.2956 37.4576 50.1436C37.4576 49.9916 37.4576 49.8493 37.4576 49.7167H37.4283C37.3665 49.9108 37.2933 50.1064 37.2086 50.3037C37.124 50.501 37.0117 50.7517 36.8717 51.0557L34.6793 55.752H33.8346Z" fill="#6D6465"/>
<path d="M40.402 55.752L44.3131 48.659H45.1774L46.0807 55.752H45.2653L44.9821 53.4912H42.5162L41.3053 55.752H40.402ZM42.9117 52.7586H44.899L44.7086 51.1042C44.6858 50.8649 44.6614 50.6029 44.6354 50.3183C44.6093 50.0304 44.5931 49.7733 44.5865 49.5469H44.5573C44.4531 49.7927 44.3343 50.0514 44.2008 50.3231C44.0706 50.5916 43.9323 50.8633 43.7858 51.1382L42.9117 52.7586Z" fill="#6D6465"/>
<path d="M48.1071 55.752L49.4645 49.3868H47.4723L47.6285 48.659H52.443L52.2965 49.3868H50.3043L48.942 55.752H48.1071Z" fill="#6D6465"/>
<path d="M51.9791 55.752L53.4879 48.659H57.1061L56.9498 49.3868H54.1569L53.6637 51.6816H56.2809L56.1393 52.3996H53.5172L52.9508 55.0243H55.7487L55.5924 55.752H51.9791Z" fill="#6D6465"/>
<path d="M57.1451 55.752L58.6539 48.659H60.2164C60.9456 48.659 61.4925 48.8094 61.8571 49.1102C62.2216 49.4078 62.4039 49.8493 62.4039 50.4347C62.4039 50.784 62.3437 51.1026 62.2233 51.3905C62.1028 51.6751 61.9091 51.9209 61.6422 52.1279C61.3785 52.3349 61.0319 52.4966 60.6022 52.6131L61.7741 55.752H60.8756L59.8405 52.7926H58.5953L57.9655 55.752H57.1451ZM58.7418 52.094H59.6061C59.9349 52.094 60.2213 52.0568 60.4655 51.9824C60.7096 51.9047 60.9114 51.7964 61.0709 51.6573C61.2337 51.5182 61.3541 51.3501 61.4323 51.1528C61.5136 50.9555 61.5543 50.7355 61.5543 50.4929C61.5543 50.0822 61.4355 49.7927 61.1979 49.6245C60.9635 49.4563 60.6087 49.3722 60.1334 49.3722H59.3326L58.7418 52.094Z" fill="#6D6465"/>
<path d="M70.2653 58.1487V48.203H70.9342V58.1487H70.2653Z" fill="#6D6465"/>
<path d="M78.7662 55.752L80.275 48.659H81.1002L80.4508 51.6816H83.7125L84.3571 48.659H85.1676L83.6588 55.752H82.8434L83.5514 52.4093H80.2946L79.5866 55.752H78.7662Z" fill="#6D6465"/>
<path d="M88.1412 55.8491C87.653 55.8491 87.2461 55.7731 86.9205 55.621C86.595 55.469 86.3509 55.2475 86.1881 54.9564C86.0254 54.6653 85.944 54.3095 85.944 53.889C85.944 53.7758 85.9537 53.64 85.9733 53.4815C85.9928 53.323 86.0205 53.1532 86.0563 52.9721L86.984 48.659H87.8092L86.8766 53.0158C86.8408 53.1645 86.8131 53.3198 86.7936 53.4815C86.7741 53.6432 86.7643 53.7758 86.7643 53.8793C86.7643 54.2707 86.8847 54.5763 87.1256 54.7963C87.3665 55.0162 87.7213 55.1262 88.1901 55.1262C88.5905 55.1262 88.9241 55.0566 89.191 54.9176C89.458 54.7753 89.6728 54.5666 89.8356 54.2917C90.0016 54.0136 90.1285 53.6691 90.2164 53.2583L91.2076 48.659H92.028L91.0319 53.3263C90.9212 53.8535 90.7487 54.3063 90.5143 54.6847C90.2799 55.0599 89.969 55.3477 89.5817 55.5483C89.1943 55.7488 88.7142 55.8491 88.1412 55.8491Z" fill="#6D6465"/>
<path d="M92.3405 55.752L93.8492 48.659H94.7184L96.9791 54.5974H97.0035C97.0263 54.4356 97.0556 54.2481 97.0914 54.0346C97.1272 53.8179 97.1679 53.5931 97.2135 53.3602C97.2591 53.1241 97.3047 52.8993 97.3502 52.6858L98.2194 48.659H99.0006L97.4918 55.752H96.6227L94.3473 49.7992H94.3229C94.3066 49.9091 94.2854 50.0401 94.2594 50.1921C94.2366 50.3442 94.2089 50.5091 94.1764 50.687C94.1471 50.8649 94.1145 51.0476 94.0787 51.2352C94.0429 51.4196 94.0055 51.5991 93.9664 51.7738L93.1217 55.752H92.3405Z" fill="#6D6465"/>
<path d="M100.509 55.752L101.867 49.3868H99.8746L100.031 48.659H104.845L104.699 49.3868H102.707L101.344 55.752H100.509Z" fill="#6D6465"/>
<path d="M104.381 55.752L105.9 48.659H106.711L105.192 55.752H104.381Z" fill="#6D6465"/>
<path d="M107.087 55.752L108.595 48.659H109.464L111.725 54.5974H111.75C111.772 54.4356 111.802 54.2481 111.838 54.0346C111.873 53.8179 111.914 53.5931 111.96 53.3602C112.005 53.1241 112.051 52.8993 112.096 52.6858L112.965 48.659H113.747L112.238 55.752H111.369L109.093 49.7992H109.069C109.053 49.9091 109.032 50.0401 109.005 50.1921C108.983 50.3442 108.955 50.5091 108.922 50.687C108.893 50.8649 108.861 51.0476 108.825 51.2352C108.789 51.4196 108.752 51.5991 108.713 51.7738L107.868 55.752H107.087Z" fill="#6D6465"/>
<path d="M117.135 55.8491C116.292 55.8491 115.633 55.6146 115.158 55.1456C114.686 54.6734 114.45 54.0152 114.45 53.171C114.45 52.647 114.51 52.1538 114.63 51.6913C114.751 51.2255 114.923 50.8018 115.148 50.4202C115.376 50.0353 115.648 49.7038 115.964 49.4256C116.283 49.1474 116.637 48.934 117.028 48.7852C117.422 48.6332 117.845 48.5572 118.297 48.5572C118.724 48.5572 119.1 48.5944 119.425 48.6688C119.751 48.7431 120.062 48.845 120.358 48.9744L120.041 49.6924C119.79 49.5792 119.52 49.4838 119.23 49.4062C118.94 49.3253 118.626 49.2849 118.288 49.2849C117.868 49.2849 117.477 49.3787 117.116 49.5663C116.758 49.7507 116.444 50.0143 116.173 50.3571C115.907 50.6999 115.698 51.1059 115.548 51.5748C115.399 52.0406 115.324 52.5549 115.324 53.1176C115.324 53.5058 115.392 53.8518 115.529 54.1559C115.669 54.4567 115.879 54.6944 116.159 54.8691C116.439 55.0405 116.792 55.1262 117.218 55.1262C117.482 55.1262 117.726 55.1068 117.951 55.068C118.175 55.0259 118.367 54.979 118.527 54.9273L119.001 52.7635H117.536L117.692 52.0454H119.982L119.23 55.4755C118.927 55.5855 118.605 55.676 118.263 55.7472C117.925 55.8151 117.549 55.8491 117.135 55.8491Z" fill="#6D6465"/>
<path d="M128.332 58.1487V48.203H129.001V58.1487H128.332Z" fill="#6D6465"/>
<path d="M136.823 55.752L138.332 48.659H139.152L137.795 55.0146H140.592L140.436 55.752H136.823Z" fill="#6D6465"/>
<path d="M141.618 55.752L143.127 48.659H146.745L146.589 49.3868H143.796L143.302 51.6816H145.92L145.778 52.3996H143.156L142.589 55.0243H145.387L145.231 55.752H141.618Z" fill="#6D6465"/>
<path d="M149.782 55.8491C148.939 55.8491 148.28 55.6146 147.804 55.1456C147.332 54.6734 147.096 54.0152 147.096 53.171C147.096 52.647 147.157 52.1538 147.277 51.6913C147.397 51.2255 147.57 50.8018 147.795 50.4202C148.022 50.0353 148.294 49.7038 148.61 49.4256C148.929 49.1474 149.284 48.934 149.674 48.7852C150.068 48.6332 150.492 48.5572 150.944 48.5572C151.37 48.5572 151.746 48.5944 152.072 48.6688C152.397 48.7431 152.708 48.845 153.005 48.9744L152.687 49.6924C152.436 49.5792 152.166 49.4838 151.877 49.4062C151.587 49.3253 151.273 49.2849 150.934 49.2849C150.514 49.2849 150.124 49.3787 149.762 49.5663C149.404 49.7507 149.09 50.0143 148.82 50.3571C148.553 50.6999 148.345 51.1059 148.195 51.5748C148.045 52.0406 147.97 52.5549 147.97 53.1176C147.97 53.5058 148.039 53.8518 148.175 54.1559C148.315 54.4567 148.525 54.6944 148.805 54.8691C149.085 55.0405 149.438 55.1262 149.865 55.1262C150.129 55.1262 150.373 55.1068 150.597 55.068C150.822 55.0259 151.014 54.979 151.173 54.9273L151.647 52.7635H150.182L150.339 52.0454H152.629L151.877 55.4755C151.574 55.5855 151.252 55.676 150.91 55.7472C150.571 55.8151 150.195 55.8491 149.782 55.8491Z" fill="#6D6465"/>
<path d="M152.599 55.752L156.51 48.659H157.375L158.278 55.752H157.463L157.179 53.4912H154.714L153.503 55.752H152.599ZM155.109 52.7586H157.096L156.906 51.1042C156.883 50.8649 156.859 50.6029 156.833 50.3183C156.807 50.0304 156.79 49.7733 156.784 49.5469H156.755C156.65 49.7927 156.532 50.0514 156.398 50.3231C156.268 50.5916 156.13 50.8633 155.983 51.1382L155.109 52.7586Z" fill="#6D6465"/>
<path d="M162.028 55.8491C161.497 55.8491 161.043 55.7391 160.666 55.5192C160.291 55.2992 160.003 54.9871 159.801 54.5828C159.6 54.1753 159.499 53.6917 159.499 53.1322C159.499 52.6923 159.551 52.2541 159.655 51.8174C159.759 51.3775 159.914 50.9635 160.119 50.5754C160.327 50.1841 160.586 49.838 160.895 49.5372C161.204 49.2332 161.564 48.9938 161.974 48.8192C162.388 48.6445 162.85 48.5572 163.361 48.5572C163.7 48.5572 164.009 48.5895 164.289 48.6542C164.572 48.7189 164.837 48.8175 165.085 48.9501L164.757 49.6342C164.569 49.5339 164.36 49.4515 164.132 49.3868C163.908 49.3189 163.651 49.2849 163.361 49.2849C162.961 49.2849 162.601 49.3577 162.282 49.5032C161.963 49.6455 161.683 49.8428 161.442 50.0951C161.204 50.3442 161.006 50.632 160.846 50.9587C160.69 51.2854 160.571 51.6331 160.49 52.0018C160.412 52.3673 160.373 52.7376 160.373 53.1128C160.373 53.7338 160.531 54.2254 160.846 54.5877C161.165 54.9467 161.606 55.1262 162.17 55.1262C162.453 55.1262 162.726 55.0987 162.99 55.0437C163.257 54.9887 163.516 54.9192 163.766 54.8351V55.5531C163.512 55.6437 163.25 55.7148 162.98 55.7666C162.713 55.8216 162.396 55.8491 162.028 55.8491Z" fill="#6D6465"/>
<path d="M166.169 55.752L166.75 53.0837L165.568 48.659H166.393L167.287 52.2735L169.699 48.659H170.631L167.555 53.1079L167.004 55.752H166.169Z" fill="#6D6465"/>
<path d="M177.531 58.1487V48.203H178.2V58.1487H177.531Z" fill="#6D6465"/>
<path d="M183.434 55.752L184.943 48.659H185.768L185.119 51.6816H188.381L189.025 48.659H189.836L188.327 55.752H187.511L188.219 52.4093H184.963L184.255 55.752H183.434Z" fill="#6D6465"/>
<path d="M193.175 55.8491C192.603 55.8491 192.119 55.7359 191.725 55.5095C191.335 55.2831 191.04 54.9628 190.841 54.5488C190.643 54.1348 190.544 53.6481 190.544 53.0885C190.544 52.6842 190.579 52.2929 190.651 51.9144C190.726 51.536 190.833 51.1786 190.973 50.8423C191.113 50.5026 191.286 50.1938 191.491 49.9156C191.699 49.6342 191.937 49.3916 192.204 49.1879C192.471 48.9841 192.765 48.8272 193.088 48.7173C193.413 48.6041 193.765 48.5475 194.142 48.5475C194.943 48.5475 195.568 48.7949 196.017 49.2898C196.47 49.7814 196.696 50.4654 196.696 51.342C196.696 51.7333 196.663 52.1166 196.598 52.4918C196.533 52.8637 196.436 53.2179 196.305 53.5543C196.175 53.8907 196.012 54.1995 195.817 54.4809C195.622 54.7591 195.394 55 195.133 55.2038C194.873 55.4076 194.58 55.5661 194.255 55.6793C193.929 55.7925 193.569 55.8491 193.175 55.8491ZM193.205 55.1262C193.485 55.1262 193.743 55.0777 193.981 54.9806C194.219 54.8836 194.434 54.7478 194.626 54.5731C194.821 54.3984 194.992 54.1931 195.138 53.957C195.288 53.7208 195.413 53.4621 195.514 53.1807C195.615 52.8961 195.692 52.5969 195.744 52.2832C195.796 51.9694 195.822 51.6492 195.822 51.3226C195.822 50.6757 195.667 50.1727 195.358 49.8137C195.052 49.4547 194.627 49.2752 194.084 49.2752C193.804 49.2752 193.543 49.3221 193.302 49.4159C193.061 49.5065 192.842 49.6374 192.643 49.8089C192.445 49.9771 192.269 50.1776 192.116 50.4105C191.966 50.6433 191.839 50.9021 191.735 51.1867C191.631 51.4681 191.551 51.7673 191.496 52.0843C191.444 52.4012 191.418 52.7295 191.418 53.0691C191.418 53.4961 191.488 53.8632 191.628 54.1704C191.768 54.4777 191.971 54.7138 192.238 54.8788C192.505 55.0437 192.827 55.1262 193.205 55.1262Z" fill="#6D6465"/>
<path d="M197.428 55.752L198.937 48.659H200.104L200.846 54.544H200.885L204.147 48.659H205.412L203.927 55.752H203.097L204.035 51.3468C204.093 51.0816 204.15 50.8326 204.206 50.5997C204.261 50.3668 204.311 50.1549 204.357 49.9641C204.406 49.7701 204.45 49.6051 204.489 49.4693H204.469L200.954 55.752H200.304L199.494 49.4741H199.455C199.442 49.6067 199.419 49.7765 199.386 49.9835C199.357 50.1873 199.321 50.4056 199.279 50.6385C199.24 50.8681 199.198 51.0897 199.152 51.3032L198.21 55.752H197.428Z" fill="#6D6465"/>
<path d="M205.807 55.752L207.316 48.659H210.934L210.778 49.3868H207.985L207.492 51.6816H210.109L209.967 52.3996H207.345L206.779 55.0243H209.577L209.421 55.752H205.807Z" fill="#6D6465"/>
<path d="M212.419 55.8491C212.064 55.8491 211.753 55.8232 211.486 55.7714C211.219 55.7197 210.972 55.6404 210.744 55.5337V54.7235C210.949 54.827 211.19 54.9224 211.466 55.0097C211.743 55.0938 212.064 55.1359 212.428 55.1359C212.653 55.1359 212.868 55.11 213.073 55.0583C213.278 55.0065 213.46 54.9257 213.62 54.8157C213.783 54.7057 213.909 54.565 214.001 54.3936C214.095 54.2222 214.142 54.0184 214.142 53.7823C214.142 53.5915 214.1 53.4233 214.015 53.2777C213.934 53.129 213.804 52.9866 213.625 52.8508C213.446 52.7117 213.211 52.5629 212.922 52.4045C212.674 52.2589 212.451 52.1069 212.253 51.9484C212.057 51.7867 211.903 51.5991 211.789 51.3856C211.675 51.1689 211.618 50.9069 211.618 50.5997C211.618 50.2698 211.68 49.9787 211.803 49.7264C211.927 49.4709 212.096 49.2574 212.311 49.086C212.529 48.9113 212.778 48.7803 213.058 48.693C213.341 48.6024 213.641 48.5572 213.957 48.5572C214.331 48.5572 214.657 48.5944 214.933 48.6688C215.21 48.7431 215.477 48.8434 215.734 48.9695L215.417 49.6682C215.234 49.5711 215.015 49.4838 214.757 49.4062C214.504 49.3253 214.237 49.2849 213.957 49.2849C213.752 49.2849 213.56 49.3124 213.381 49.3674C213.205 49.4191 213.05 49.4984 212.917 49.6051C212.783 49.7118 212.679 49.8444 212.604 50.0029C212.529 50.1582 212.492 50.3393 212.492 50.5463C212.492 50.7565 212.531 50.9312 212.609 51.0703C212.69 51.2094 212.808 51.3355 212.961 51.4487C213.117 51.5619 213.309 51.6848 213.537 51.8174C213.826 51.9856 214.082 52.1538 214.303 52.322C214.525 52.4869 214.697 52.6794 214.821 52.8993C214.945 53.116 215.006 53.3893 215.006 53.7192C215.006 54.075 214.943 54.3871 214.816 54.6556C214.692 54.9208 214.515 55.1424 214.284 55.3202C214.053 55.4949 213.779 55.6275 213.464 55.7181C213.148 55.8054 212.799 55.8491 212.419 55.8491Z" fill="#6D6465"/>
<path d="M221.554 55.8491C220.981 55.8491 220.498 55.7359 220.104 55.5095C219.714 55.2831 219.419 54.9628 219.22 54.5488C219.022 54.1348 218.922 53.6481 218.922 53.0885C218.922 52.6842 218.958 52.2929 219.03 51.9144C219.105 51.536 219.212 51.1786 219.352 50.8423C219.492 50.5026 219.665 50.1938 219.87 49.9156C220.078 49.6342 220.316 49.3916 220.583 49.1879C220.85 48.9841 221.144 48.8272 221.466 48.7173C221.792 48.6041 222.144 48.5475 222.521 48.5475C223.322 48.5475 223.947 48.7949 224.396 49.2898C224.849 49.7814 225.075 50.4654 225.075 51.342C225.075 51.7333 225.042 52.1166 224.977 52.4918C224.912 52.8637 224.814 53.2179 224.684 53.5543C224.554 53.8907 224.391 54.1995 224.196 54.4809C224.001 54.7591 223.773 55 223.512 55.2038C223.252 55.4076 222.959 55.5661 222.633 55.6793C222.308 55.7925 221.948 55.8491 221.554 55.8491ZM221.584 55.1262C221.864 55.1262 222.122 55.0777 222.36 54.9806C222.598 54.8836 222.812 54.7478 223.005 54.5731C223.2 54.3984 223.371 54.1931 223.517 53.957C223.667 53.7208 223.792 53.4621 223.893 53.1807C223.994 52.8961 224.071 52.5969 224.123 52.2832C224.175 51.9694 224.201 51.6492 224.201 51.3226C224.201 50.6757 224.046 50.1727 223.737 49.8137C223.431 49.4547 223.006 49.2752 222.463 49.2752C222.183 49.2752 221.922 49.3221 221.681 49.4159C221.44 49.5065 221.221 49.6374 221.022 49.8089C220.824 49.9771 220.648 50.1776 220.495 50.4105C220.345 50.6433 220.218 50.9021 220.114 51.1867C220.01 51.4681 219.93 51.7673 219.875 52.0843C219.823 52.4012 219.797 52.7295 219.797 53.0691C219.797 53.4961 219.867 53.8632 220.006 54.1704C220.146 54.4777 220.35 54.7138 220.617 54.8788C220.884 55.0437 221.206 55.1262 221.584 55.1262Z" fill="#6D6465"/>
<path d="M225.807 55.752L227.316 48.659H228.185L230.446 54.5974H230.47C230.493 54.4356 230.522 54.2481 230.558 54.0346C230.594 53.8179 230.635 53.5931 230.68 53.3602C230.726 53.1241 230.771 52.8993 230.817 52.6858L231.686 48.659H232.467L230.959 55.752H230.089L227.814 49.7992H227.79C227.773 49.9091 227.752 50.0401 227.726 50.1921C227.703 50.3442 227.676 50.5091 227.643 50.687C227.614 50.8649 227.581 51.0476 227.546 51.2352C227.51 51.4196 227.472 51.5991 227.433 51.7738L226.589 55.752H225.807Z" fill="#6D6465"/>
<path d="M234.474 55.752L238.385 48.659H239.25L240.153 55.752H239.338L239.054 53.4912H236.589L235.378 55.752H234.474ZM236.984 52.7586H238.971L238.781 51.1042C238.758 50.8649 238.734 50.6029 238.708 50.3183C238.682 50.0304 238.665 49.7733 238.659 49.5469H238.63C238.525 49.7927 238.407 50.0514 238.273 50.3231C238.143 50.5916 238.005 50.8633 237.858 51.1382L236.984 52.7586Z" fill="#6D6465"/>
<path d="M243.903 55.8491C243.372 55.8491 242.918 55.7391 242.541 55.5192C242.166 55.2992 241.878 54.9871 241.676 54.5828C241.475 54.1753 241.374 53.6917 241.374 53.1322C241.374 52.6923 241.426 52.2541 241.53 51.8174C241.634 51.3775 241.789 50.9635 241.994 50.5754C242.202 50.1841 242.461 49.838 242.77 49.5372C243.079 49.2332 243.439 48.9938 243.849 48.8192C244.263 48.6445 244.725 48.5572 245.236 48.5572C245.575 48.5572 245.884 48.5895 246.164 48.6542C246.447 48.7189 246.712 48.8175 246.96 48.9501L246.632 49.6342C246.444 49.5339 246.235 49.4515 246.007 49.3868C245.783 49.3189 245.526 49.2849 245.236 49.2849C244.836 49.2849 244.476 49.3577 244.157 49.5032C243.838 49.6455 243.558 49.8428 243.317 50.0951C243.079 50.3442 242.881 50.632 242.721 50.9587C242.565 51.2854 242.446 51.6331 242.365 52.0018C242.287 52.3673 242.248 52.7376 242.248 53.1128C242.248 53.7338 242.406 54.2254 242.721 54.5877C243.04 54.9467 243.481 55.1262 244.045 55.1262C244.328 55.1262 244.601 55.0987 244.865 55.0437C245.132 54.9887 245.391 54.9192 245.641 54.8351V55.5531C245.387 55.6437 245.125 55.7148 244.855 55.7666C244.588 55.8216 244.271 55.8491 243.903 55.8491Z" fill="#6D6465"/>
<path d="M246.94 55.752L248.449 48.659H250.011C250.741 48.659 251.287 48.8094 251.652 49.1102C252.017 49.4078 252.199 49.8493 252.199 50.4347C252.199 50.784 252.139 51.1026 252.018 51.3905C251.898 51.6751 251.704 51.9209 251.437 52.1279C251.173 52.3349 250.827 52.4966 250.397 52.6131L251.569 55.752H250.671L249.635 52.7926H248.39L247.76 55.752H246.94ZM248.537 52.094H249.401C249.73 52.094 250.016 52.0568 250.26 51.9824C250.505 51.9047 250.706 51.7964 250.866 51.6573C251.029 51.5182 251.149 51.3501 251.227 51.1528C251.309 50.9555 251.349 50.7355 251.349 50.4929C251.349 50.0822 251.23 49.7927 250.993 49.6245C250.758 49.4563 250.404 49.3722 249.928 49.3722H249.128L248.537 52.094Z" fill="#6D6465"/>
<path d="M252.663 55.752L254.172 48.659H257.79L257.633 49.3868H254.84L254.347 51.6816H256.964L256.823 52.3996H254.201L253.634 55.0243H256.432L256.276 55.752H252.663Z" fill="#6D6465"/>
<path d="M256.847 55.752L260.758 48.659H261.623L262.526 55.752H261.711L261.427 53.4912H258.962L257.751 55.752H256.847ZM259.357 52.7586H261.344L261.154 51.1042C261.131 50.8649 261.107 50.6029 261.081 50.3183C261.055 50.0304 261.038 49.7733 261.032 49.5469H261.003C260.898 49.7927 260.78 50.0514 260.646 50.3231C260.516 50.5916 260.378 50.8633 260.231 51.1382L259.357 52.7586Z" fill="#6D6465"/>
<path d="M266.432 55.8491C265.589 55.8491 264.93 55.6146 264.455 55.1456C263.983 54.6734 263.747 54.0152 263.747 53.171C263.747 52.647 263.807 52.1538 263.927 51.6913C264.048 51.2255 264.22 50.8018 264.445 50.4202C264.673 50.0353 264.945 49.7038 265.26 49.4256C265.579 49.1474 265.934 48.934 266.325 48.7852C266.719 48.6332 267.142 48.5572 267.594 48.5572C268.021 48.5572 268.397 48.5944 268.722 48.6688C269.048 48.7431 269.359 48.845 269.655 48.9744L269.338 49.6924C269.087 49.5792 268.817 49.4838 268.527 49.4062C268.237 49.3253 267.923 49.2849 267.585 49.2849C267.165 49.2849 266.774 49.3787 266.413 49.5663C266.055 49.7507 265.741 50.0143 265.47 50.3571C265.203 50.6999 264.995 51.1059 264.845 51.5748C264.696 52.0406 264.621 52.5549 264.621 53.1176C264.621 53.5058 264.689 53.8518 264.826 54.1559C264.966 54.4567 265.176 54.6944 265.456 54.8691C265.736 55.0405 266.089 55.1262 266.515 55.1262C266.779 55.1262 267.023 55.1068 267.248 55.068C267.472 55.0259 267.664 54.979 267.824 54.9273L268.297 52.7635H266.833L266.989 52.0454H269.279L268.527 55.4755C268.224 55.5855 267.902 55.676 267.56 55.7472C267.222 55.8151 266.846 55.8491 266.432 55.8491Z" fill="#6D6465"/>
<path d="M270.231 55.752L271.74 48.659H275.358L275.202 49.3868H272.409L271.916 51.6816H274.533L274.391 52.3996H271.769L271.203 55.0243H274.001L273.844 55.752H270.231Z" fill="#6D6465"/>
</svg>
