<svg width="315" height="55" viewBox="0 0 315 55" fill="none" xmlns="http://www.w3.org/2000/svg">
<path d="M18.7999 26.86C18.0799 26.86 16.5999 26.78 15.0799 26.78C13.2299 26.78 11.9599 26.86 11.3099 26.86C11.2199 26.6043 11.2199 26.3256 11.3099 26.07C11.9059 26.025 12.4976 25.9347 13.0799 25.8C13.8799 25.64 13.9999 25.09 14.0299 23.8C14.0999 21.68 14.1199 15.86 14.1199 11.35C14.1189 11.2984 14.1006 11.2487 14.068 11.2088C14.0353 11.1689 13.9902 11.1412 13.9399 11.13C13.5199 11.13 11.6699 11.13 10.7199 11.13C10.4904 11.1472 10.2703 11.2285 10.0847 11.3646C9.89904 11.5007 9.75534 11.6862 9.66991 11.9C9.26869 12.7149 8.93426 13.561 8.66991 14.43C8.53333 14.4483 8.39442 14.4383 8.26192 14.4004C8.12941 14.3625 8.00616 14.2977 7.8999 14.21C8.13886 12.7225 8.3024 11.2239 8.3899 9.71996C8.3899 9.66996 8.61991 9.58996 8.66991 9.60996C9.29217 9.91063 9.97953 10.0515 10.6699 10.02H19.9099C20.7563 10.1271 21.6159 10.0063 22.3999 9.66996C22.4965 9.68742 22.5845 9.7367 22.6499 9.80996C22.3648 11.3303 22.1711 12.8664 22.0699 14.41C21.9999 14.54 21.3499 14.54 21.2799 14.41C21.2389 13.59 21.1012 12.7777 20.8699 11.99C20.8191 11.7644 20.6917 11.5634 20.5094 11.4212C20.327 11.2789 20.1011 11.2043 19.8699 11.21C18.6999 11.21 16.9499 11.21 16.3699 11.21C16.3323 11.2328 16.3014 11.2652 16.2803 11.3038C16.2593 11.3425 16.2488 11.386 16.2499 11.43C16.2499 15.43 16.2499 22.95 16.3299 24.34C16.4099 25.34 16.6099 25.62 17.1799 25.78C17.7351 25.9367 18.3046 26.0372 18.8799 26.08C18.9799 26.21 18.9299 26.8 18.7999 26.86Z" fill="#0A0203"/>
<path d="M24.3201 9.94006C24.9401 9.94006 26.2401 10.0501 27.6401 10.0501H32.5601C33.4849 10.06 34.4096 10.0199 35.3301 9.93005C35.3301 9.93005 35.4301 10.0401 35.4301 10.0701C35.2048 11.3031 35.0545 12.5488 34.9801 13.8001C34.8581 13.8509 34.7272 13.8771 34.5951 13.8771C34.4629 13.8771 34.332 13.8509 34.2101 13.8001C34.1589 13.2404 34.0653 12.6855 33.9301 12.1401C33.8813 11.8488 33.7268 11.5857 33.4962 11.4012C33.2655 11.2167 32.975 11.1237 32.6801 11.1401C32.2101 11.1401 29.1901 11.1401 28.8601 11.1401C28.7736 11.198 28.7016 11.275 28.6496 11.3652C28.5976 11.4553 28.5669 11.5562 28.5601 11.6601C28.5601 13.1801 28.5601 16.2001 28.5601 17.4201C28.5601 17.5101 28.6101 17.6101 28.6901 17.6101C29.6901 17.6101 31.6101 17.6101 32.5101 17.5601C33.0601 17.5001 33.2301 17.1801 33.3601 16.7401C33.477 16.3839 33.5673 16.0196 33.6301 15.6501C33.9067 15.5689 34.204 15.5976 34.4601 15.7301C34.3456 16.5787 34.2855 17.4338 34.2801 18.2901C34.2801 19.2901 34.2801 20.0901 34.3301 20.7601C34.1991 20.8292 34.0532 20.8654 33.9051 20.8654C33.7569 20.8654 33.611 20.8292 33.4801 20.7601C33.4508 20.3843 33.3838 20.0124 33.2801 19.6501C33.2563 19.4385 33.1575 19.2424 33.0015 19.0975C32.8456 18.9525 32.6428 18.8683 32.4301 18.8601C31.6801 18.7801 29.6101 18.7801 28.6901 18.8101C28.6401 18.8101 28.5601 18.9401 28.5601 19.0301C28.5601 20.2801 28.5601 23.1601 28.6201 24.4601C28.6087 24.6639 28.6564 24.8668 28.7575 25.0442C28.8586 25.2216 29.0088 25.366 29.1901 25.4601C30.4188 25.5905 31.6546 25.6439 32.8901 25.6201C33.2524 25.6647 33.6199 25.6035 33.9482 25.4438C34.2765 25.2841 34.5516 25.0327 34.7401 24.7201C35.2454 23.9746 35.6616 23.1725 35.9801 22.3301C36.2472 22.3504 36.5018 22.4515 36.7101 22.6201C36.492 23.8915 36.1572 25.1401 35.7101 26.3501C35.5601 26.6501 35.4101 26.7901 34.1601 26.7901C32.0601 26.7901 30.2701 26.6801 27.6701 26.6801C25.9901 26.6801 24.7501 26.7601 23.6701 26.7701C23.5693 26.5164 23.5693 26.2337 23.6701 25.9801C24.3063 25.9352 24.9382 25.8416 25.5601 25.7001C26.1601 25.5401 26.3401 25.1901 26.4101 24.2301C26.4101 23.7201 26.4101 20.7301 26.4101 17.6501C26.4101 15.1801 26.4101 12.7601 26.4101 12.2701C26.4101 11.2701 26.2601 11.0501 25.6601 10.8801C25.2279 10.7554 24.7865 10.6652 24.3401 10.6101C24.1701 10.5901 24.2201 10.0801 24.3201 9.94006Z" fill="#0A0203"/>
<path d="M53.32 26.84C52.8 26.84 51.45 26.73 49.73 26.76C48.23 26.76 47.08 26.84 46.68 26.84C46.5803 26.5861 46.5803 26.3039 46.68 26.05C47.0887 26.0041 47.4911 25.9136 47.88 25.78C48.18 25.7 48.26 25.45 48.08 25.13C47.68 24.2 46.18 21.43 45.15 19.66C45.15 19.61 45.03 19.58 45 19.66C43.48 22.1 42.26 24.2 41.86 25.04C41.8161 25.109 41.7898 25.1877 41.7834 25.2692C41.7769 25.3507 41.7906 25.4326 41.8232 25.5076C41.8558 25.5826 41.9062 25.6485 41.9702 25.6995C42.0341 25.7505 42.1096 25.785 42.19 25.8C42.6057 25.9228 43.0303 26.0131 43.46 26.07C43.5377 26.3327 43.5127 26.615 43.39 26.86C42.74 26.86 41.26 26.75 40.39 26.78C39.19 26.78 38.22 26.87 37.65 26.87C37.5503 26.6161 37.5503 26.3339 37.65 26.08C38.1666 26.0222 38.676 25.9116 39.17 25.75C39.89 25.51 40.32 25.04 40.99 24.09C42.11 22.49 43.49 20.26 44.51 18.65C44.5301 18.578 44.5301 18.5019 44.51 18.43C43.61 16.72 42.33 14.33 41.43 12.81C40.86 11.86 40.58 11.31 39.66 11.04C39.1873 10.8943 38.7018 10.7938 38.21 10.74C38.06 10.63 38.11 10.06 38.21 9.97997C39.21 9.97997 40.11 10.06 41.53 10.06C42.95 10.06 44.05 9.99997 44.38 9.97997C44.5 10.06 44.5 10.63 44.38 10.74C43.96 10.82 43.59 10.9 43.38 10.96C43.3354 10.9753 43.2945 10.9998 43.2598 11.0318C43.2252 11.0638 43.1976 11.1027 43.1787 11.1459C43.1599 11.1892 43.1503 11.2359 43.1506 11.2831C43.1508 11.3303 43.1608 11.3769 43.18 11.42C43.5 12.21 45.1 15.09 45.9 16.56C45.9 16.56 46.03 16.61 46.05 16.56C47.12 14.79 48.35 12.64 48.72 11.77C48.85 11.44 48.9 11.17 48.5 11.03C48.0464 10.905 47.5856 10.8082 47.12 10.74C47.0655 10.4794 47.1008 10.208 47.22 9.96997C47.85 9.96997 48.82 10.06 49.97 10.05C51.32 10.05 52.29 9.96997 52.72 9.96997C52.8054 10.2161 52.8054 10.4838 52.72 10.73C52.3149 10.7862 51.914 10.8698 51.52 10.98C50.79 11.2 50.32 11.52 49.22 13.26C48.32 14.65 47.45 16.07 46.58 17.51C46.5547 17.5391 46.5407 17.5764 46.5407 17.615C46.5407 17.6536 46.5547 17.6909 46.58 17.72C47.48 19.36 48.78 21.8 49.7 23.32C50.85 25.25 51.2 25.58 52.03 25.82C52.4812 25.9311 52.9387 26.0146 53.4 26.07C53.5 26.13 53.45 26.75 53.32 26.84Z" fill="#0A0203"/>
<path d="M55.8 23.52C57.07 20.23 59.41 13.29 59.96 11.52C60.1488 11.017 60.2926 10.4983 60.39 9.96997C60.49 9.96997 60.79 9.96997 61.21 9.96997C61.63 9.96997 61.96 9.96997 62.03 9.96997C62.14 10.38 62.26 10.87 62.44 11.38C62.94 12.93 65.71 21.55 66.59 23.81C67.32 25.63 67.4901 25.81 69.2901 26.01C69.3901 26.09 69.29 26.69 69.24 26.8C68.59 26.8 67.32 26.72 66.24 26.72C65.16 26.72 63.49 26.72 62.97 26.8C62.8801 26.5443 62.8801 26.2656 62.97 26.01C63.439 25.9567 63.9013 25.8562 64.35 25.71C64.4756 25.655 64.5743 25.5528 64.6249 25.4255C64.6754 25.2982 64.6737 25.156 64.6201 25.03C64.3201 23.86 63.5701 21.58 63.1201 20.36C63.0997 20.314 63.0694 20.2731 63.0314 20.2403C62.9933 20.2074 62.9485 20.1834 62.9001 20.17C62.5501 20.17 61.67 20.17 60.55 20.17C58.95 20.17 58.77 20.17 58.47 20.17C58.37 20.17 58.25 20.33 58.23 20.41C57.6591 21.8579 57.1815 23.341 56.8 24.85C56.8 25.31 56.8 25.61 57.6 25.85C57.9942 25.95 58.3953 26.0202 58.8 26.06C58.8697 26.3187 58.8697 26.5912 58.8 26.85C58.27 26.85 57 26.77 55.6 26.77C54.2 26.77 53.4001 26.86 52.9301 26.86C52.8303 26.6061 52.8303 26.3239 52.9301 26.07C54.7201 25.8 55.02 25.61 55.8 23.52ZM60.56 12.86C60.14 14.22 59.12 17.29 58.69 18.73C58.69 18.84 58.6901 18.89 58.7901 18.92C59.0401 18.92 59.8401 18.92 60.7901 18.92C61.3901 18.92 62.22 18.92 62.47 18.92C62.47 18.92 62.5901 18.81 62.5401 18.7C62.0401 17.02 61.09 14 60.69 12.83C60.7 12.83 60.63 12.8 60.6 12.86H60.56Z" fill="#0A0203"/>
<path d="M73 25.49C73.7033 26.0106 74.5665 26.2688 75.44 26.22C75.8099 26.2334 76.1782 26.1673 76.5204 26.0262C76.8625 25.8852 77.1704 25.6725 77.4234 25.4025C77.6764 25.1324 77.8686 24.8113 77.9871 24.4607C78.1055 24.1101 78.1474 23.7382 78.11 23.37C78.11 21.57 77.11 20.73 74.84 19.29C72.57 17.85 71.1201 16.57 71.1201 14.13C71.1201 11.22 73.31 9.53003 76.03 9.53003C77.3065 9.58676 78.5769 9.74054 79.83 9.99003C79.66 10.89 79.51 12.41 79.41 13.74C79.33 13.9 78.7601 13.9 78.6801 13.74C78.5301 12.13 78.3101 11.37 77.6801 10.94C77.0958 10.532 76.3917 10.3313 75.6801 10.37C75.3247 10.3751 74.9739 10.4513 74.6484 10.5942C74.323 10.737 74.0295 10.9437 73.7853 11.2019C73.541 11.4601 73.351 11.7647 73.2265 12.0976C73.1019 12.4304 73.0453 12.7849 73.06 13.14C73.0427 13.7611 73.1911 14.3757 73.4899 14.9205C73.7886 15.4653 74.227 15.9207 74.7601 16.24C75.7601 16.95 77.01 17.6 77.86 18.14C78.5743 18.5394 79.1716 19.1188 79.5926 19.8205C80.0136 20.5222 80.2438 21.3219 80.2601 22.14C80.2601 24.8 78.26 27.14 74.72 27.14C73.4731 27.1262 72.2443 26.8395 71.1201 26.3C70.7697 24.9627 70.5354 23.5977 70.42 22.22C70.42 22.06 71.07 21.9 71.2 21.98C71.3873 23.3195 72.0216 24.5563 73 25.49Z" fill="#0A0203"/>
<path d="M86.97 9.93005C87.57 9.93005 89.07 10.0101 89.84 10.0101C91.69 10.0101 93.01 9.95005 94.01 9.95005C94.5888 9.90165 95.1712 9.97645 95.7189 10.1695C96.2666 10.3626 96.7672 10.6696 97.1877 11.0702C97.6082 11.4708 97.9389 11.956 98.1582 12.4938C98.3776 13.0315 98.4804 13.6097 98.46 14.1901C98.4693 15.112 98.2042 16.016 97.6985 16.787C97.1928 17.5579 96.4694 18.1612 95.62 18.5201C95.6023 18.5486 95.5929 18.5815 95.5929 18.6151C95.5929 18.6486 95.6023 18.6815 95.62 18.7101C96.848 20.7784 98.2355 22.7477 99.77 24.6001C100.004 24.9283 100.307 25.2014 100.658 25.4001C101.008 25.5988 101.398 25.7182 101.8 25.7501C102.3 25.7501 102.58 25.5501 103.02 24.3901C104.3 21.0901 107.02 13.2901 107.54 11.5801C107.71 11.0515 107.85 10.5141 107.96 9.97005C108.06 9.97005 108.34 9.97005 108.76 9.97005C109.18 9.97005 109.51 9.97005 109.61 9.97005C109.69 10.3801 109.83 10.8901 109.99 11.4101C110.49 12.9601 113.26 21.5501 114.14 23.8101C114.89 25.6301 115.07 25.8101 116.84 26.0101C116.94 26.0901 116.84 26.7101 116.79 26.8001C116.16 26.8001 114.87 26.7201 113.79 26.7201C112.71 26.7201 111.01 26.7201 110.49 26.8001C110.4 26.5444 110.4 26.2657 110.49 26.0101C110.939 25.9533 111.38 25.839 111.8 25.6701C111.866 25.6469 111.926 25.6105 111.977 25.5632C112.028 25.5159 112.069 25.4586 112.097 25.3949C112.125 25.3312 112.14 25.2624 112.14 25.1928C112.141 25.1232 112.127 25.0542 112.1 24.9901C111.8 23.8201 111.02 21.5401 110.6 20.3201C110.577 20.2742 110.545 20.2336 110.505 20.2008C110.465 20.1681 110.419 20.144 110.37 20.1301C110 20.1301 109.12 20.1301 108 20.1301C106.42 20.1301 106.22 20.1301 105.95 20.1301C105.891 20.144 105.836 20.1736 105.792 20.2158C105.748 20.258 105.716 20.3113 105.7 20.3701C105.139 21.8037 104.688 23.278 104.35 24.7801C104.35 25.2401 104.35 25.5701 105.13 25.7801C105.45 25.8601 105.8 25.9101 106.33 25.9901C106.4 26.2488 106.4 26.5213 106.33 26.7801C105.83 26.7801 105.25 26.7001 103.46 26.7001C102.66 26.7001 100.86 26.7901 100.16 26.7901C99.5908 26.804 99.028 26.6681 98.5278 26.3961C98.0276 26.1241 97.6077 25.7254 97.31 25.2401C96.36 24.0201 94.71 21.2401 93.76 19.8001C93.7003 19.6895 93.6143 19.5952 93.5097 19.5255C93.4051 19.4558 93.2851 19.4127 93.16 19.4001C92.81 19.4001 91.74 19.4001 91.39 19.4001C91.34 19.4001 91.29 19.5401 91.29 19.5601C91.29 21.0601 91.29 23.5601 91.34 24.4801C91.39 25.4001 91.56 25.6501 92.14 25.7901C92.51 25.8701 92.96 25.9501 93.54 26.0301C93.5987 26.1535 93.6291 26.2884 93.6291 26.4251C93.6291 26.5617 93.5987 26.6966 93.54 26.8201C93.01 26.8201 91.84 26.7401 90.22 26.7401C88.6 26.7401 87.52 26.8301 87.04 26.8301C86.9807 26.7068 86.9498 26.5718 86.9498 26.4351C86.9498 26.2983 86.9807 26.1633 87.04 26.0401C87.59 25.9501 87.99 25.9001 88.32 25.8201C88.92 25.6801 89.12 25.3601 89.17 24.3201C89.17 23.7001 89.17 20.0001 89.17 18.5001C89.17 15.7301 89.17 13.0101 89.17 12.1701C89.17 11.3301 88.97 11.0801 88.35 10.9201C87.97 10.8401 87.5 10.7601 87 10.7001C86.9443 10.5801 86.913 10.4502 86.9079 10.3181C86.9027 10.1859 86.9238 10.054 86.97 9.93005ZM91.47 11.0101C91.3654 11.1225 91.302 11.267 91.29 11.4201C91.24 12.3501 91.24 16.0501 91.29 18.1701C91.29 18.1701 91.34 18.3001 91.39 18.3001C92.4678 18.4245 93.5592 18.3499 94.61 18.0801C95.1699 17.7747 95.6255 17.3085 95.9178 16.7416C96.2102 16.1748 96.3259 15.5333 96.25 14.9001C96.25 12.3701 95.05 10.9001 92.38 10.9001C92.0727 10.887 91.7654 10.9242 91.47 11.0101ZM106.23 18.6701C106.23 18.7801 106.23 18.8601 106.33 18.8901C106.58 18.8901 107.38 18.8901 108.33 18.8901C108.93 18.8901 109.73 18.8901 109.98 18.8901C109.98 18.8901 110.1 18.7801 110.07 18.6701C109.55 16.9801 108.62 13.9901 108.2 12.8501C108.18 12.8403 108.158 12.8352 108.135 12.8352C108.113 12.8352 108.09 12.8403 108.07 12.8501C107.68 14.2101 106.68 17.2601 106.23 18.6701Z" fill="#0A0203"/>
<path d="M117.04 9.91003C117.66 9.91003 118.91 9.99003 120.16 9.99003C120.533 10.0098 120.907 10.0098 121.28 9.99003C121.51 10.5196 121.813 11.0144 122.18 11.46C124.73 14.94 129.86 21.73 131.06 23.26C131.11 23.26 131.13 23.26 131.16 23.26C131.16 19.53 131.16 14.45 131.05 12.49C131 11.7 130.85 11.27 130.1 11.05C129.553 10.8948 128.995 10.7845 128.43 10.72C128.34 10.4747 128.34 10.2053 128.43 9.96003C129.08 9.96003 130.22 10.04 131.75 10.04C132.6 10.04 134.07 9.96003 134.4 9.96003C134.5 10.2035 134.5 10.4766 134.4 10.72C134.027 10.7805 133.659 10.8708 133.3 10.99C132.65 11.24 132.5 11.73 132.45 12.46C132.3 14.56 132.33 18.04 132.26 23.18C132.26 24.43 132.26 26 132.26 26.9C131.98 26.9 130.83 26.9 130.53 26.9C129.21 24.84 122.33 15.49 120.83 13.45H120.73C120.73 16.25 120.73 22.61 120.73 24.13C120.73 25.22 121.1 25.6 121.73 25.76C122.22 25.9004 122.722 25.9909 123.23 26.03C123.319 26.2858 123.319 26.5642 123.23 26.82C122.63 26.82 121.51 26.74 120.11 26.74C118.71 26.74 117.64 26.83 117.11 26.83C117.04 26.5714 117.04 26.2987 117.11 26.04C117.557 25.9979 117.999 25.9142 118.43 25.79C119.01 25.6 119.33 25.25 119.38 24.19C119.48 22.77 119.55 18.34 119.6 12.63C119.614 12.3681 119.558 12.1072 119.439 11.8737C119.319 11.6401 119.14 11.4423 118.92 11.3C118.321 10.9191 117.629 10.7115 116.92 10.7C116.86 10.4309 116.903 10.1493 117.04 9.91003Z" fill="#0A0203"/>
<path d="M147.6 11.06C146.632 10.6189 145.573 10.4133 144.51 10.46C140.89 10.46 138.81 13.38 138.82 17.97C138.82 22.32 141.05 25.97 145.49 25.97C146.492 26.0233 147.476 25.6905 148.24 25.04C149.004 24.2612 149.636 23.3627 150.11 22.38C150.234 22.4074 150.351 22.4597 150.454 22.5336C150.557 22.6075 150.644 22.7015 150.71 22.81C150.38 24.168 149.729 25.4268 148.81 26.4799C147.583 26.9191 146.293 27.1522 144.99 27.17C139.42 27.17 136.32 23.86 136.32 18.17C136.262 16.6802 136.602 15.2019 137.305 13.8872C138.008 12.5725 139.049 11.4689 140.32 10.69C141.862 9.81227 143.616 9.37632 145.39 9.42995C147.04 9.5118 148.683 9.69549 150.31 9.97995C150.099 11.3648 149.966 12.7603 149.91 14.16C149.81 14.27 149.16 14.35 149.14 14.22C148.85 12.09 148.53 11.55 147.6 11.06Z" fill="#0A0203"/>
<path d="M152.22 9.88998C152.82 9.88998 154.07 9.96997 155.42 9.96997C157.09 9.96997 157.84 9.87997 158.54 9.87997C158.631 10.1286 158.631 10.4014 158.54 10.65C158.09 10.73 157.61 10.81 157.34 10.89C156.84 11.05 156.66 11.27 156.64 12.14C156.62 13.01 156.64 14.54 156.64 17.2C156.637 17.2513 156.646 17.3027 156.667 17.3497C156.688 17.3967 156.72 17.4379 156.76 17.47C156.94 17.47 157.39 17.53 161.01 17.52C163.76 17.52 164.71 17.52 164.93 17.47C165.15 17.42 165.08 17.36 165.08 17.3C165.08 15.89 165.08 12.82 165.03 11.84C165.03 11.4 164.88 11.08 164.53 10.94C164.048 10.7892 163.552 10.6886 163.05 10.64C162.988 10.5174 162.956 10.3821 162.956 10.245C162.956 10.1078 162.988 9.97255 163.05 9.84998C163.62 9.84998 164.85 9.95998 166.17 9.95998C167.49 9.95998 168.87 9.87997 169.27 9.87997C169.355 10.1261 169.355 10.3938 169.27 10.64C168.83 10.6919 168.395 10.7823 167.97 10.91C167.42 11.1 167.32 11.4 167.27 12.38C167.22 13.36 167.22 14.94 167.22 18.17C167.22 20.54 167.22 23.53 167.28 24.45C167.35 25.21 167.5 25.51 167.98 25.68C168.5 25.8406 169.037 25.9379 169.58 25.97C169.65 26.08 169.58 26.68 169.48 26.76C168.73 26.76 167.4 26.68 166.13 26.68C164.86 26.68 163.61 26.74 162.96 26.77C162.86 26.5161 162.86 26.2339 162.96 25.98C163.441 25.938 163.917 25.8475 164.38 25.71C164.83 25.57 164.98 25.3 165.03 24.46C165.08 23.62 165.03 20.7 165.03 18.99C165.03 18.91 164.96 18.8 164.88 18.8C164.41 18.8 162.28 18.8 160.88 18.8C158.88 18.8 156.88 18.8 156.63 18.8C156.58 18.8 156.56 18.94 156.56 18.97C156.56 20.46 156.56 23.59 156.56 24.16C156.56 25.09 156.71 25.47 157.33 25.66C157.822 25.8005 158.323 25.9075 158.83 25.98C158.868 26.1115 158.879 26.2495 158.862 26.3854C158.845 26.5213 158.8 26.6522 158.73 26.77C158.26 26.77 157.08 26.69 155.48 26.69C153.88 26.69 152.66 26.77 152.16 26.77C152.07 26.5178 152.07 26.2422 152.16 25.99C152.76 25.9 153.16 25.82 153.51 25.74C154.23 25.5 154.3 25 154.38 23.74C154.38 22.82 154.38 20.51 154.38 18.14C154.38 15.51 154.38 12.62 154.33 12.14C154.33 11.38 154.13 11.08 153.63 10.95C153.14 10.8071 152.638 10.7067 152.13 10.65C152.058 10.3947 152.09 10.1214 152.22 9.88998Z" fill="#0A0203"/>
<path d="M171.22 9.84998C171.85 9.84998 173.15 9.95998 174.55 9.95998H179.47C180.395 9.97244 181.319 9.93572 182.24 9.84998C182.24 9.84998 182.34 9.95997 182.34 9.98997C182.115 11.2197 181.964 12.462 181.89 13.71C181.79 13.85 181.19 13.85 181.12 13.77C181.069 13.2104 180.975 12.6554 180.84 12.11C180.791 11.8187 180.637 11.5556 180.406 11.3711C180.175 11.1866 179.885 11.0936 179.59 11.11C179.12 11.11 176.1 11.11 175.77 11.11C175.6 11.16 175.47 11.49 175.47 11.63C175.47 13.15 175.47 16.17 175.47 17.39C175.47 17.47 175.52 17.58 175.6 17.58C176.6 17.58 178.52 17.58 179.42 17.52C179.97 17.47 180.14 17.14 180.27 16.71C180.387 16.3539 180.477 15.9895 180.54 15.62C180.813 15.5394 181.107 15.5681 181.36 15.7C181.255 16.5494 181.198 17.4041 181.19 18.26C181.19 19.26 181.19 20.05 181.24 20.73C181.109 20.7992 180.963 20.8353 180.815 20.8353C180.667 20.8353 180.521 20.7992 180.39 20.73C180.361 20.3542 180.294 19.9823 180.19 19.62C180.168 19.4076 180.07 19.2104 179.914 19.065C179.757 18.9197 179.553 18.8361 179.34 18.83C178.59 18.75 176.52 18.75 175.6 18.83C175.6 18.83 175.47 18.96 175.47 19.04C175.47 20.29 175.47 23.18 175.53 24.48C175.51 24.6851 175.555 24.8912 175.657 25.0702C175.759 25.2492 175.914 25.3923 176.1 25.48C177.328 25.6205 178.564 25.674 179.8 25.64C180.16 25.6901 180.527 25.6324 180.855 25.474C181.182 25.3155 181.456 25.0636 181.64 24.75C182.155 24.005 182.575 23.1987 182.89 22.35C183.157 22.3784 183.41 22.4825 183.62 22.65C183.385 23.9227 183.033 25.1713 182.57 26.38C182.42 26.68 182.27 26.81 181.02 26.81C178.92 26.81 177.12 26.71 174.53 26.71C172.85 26.71 171.6 26.79 170.58 26.79C170.526 26.6652 170.499 26.5308 170.499 26.395C170.499 26.2592 170.526 26.1248 170.58 26C171.216 25.9627 171.849 25.8724 172.47 25.73C173.07 25.57 173.25 25.21 173.32 24.26C173.32 23.75 173.32 20.75 173.32 17.68C173.32 15.21 173.32 12.79 173.32 12.3C173.27 11.3 173.17 11.07 172.57 10.91C172.139 10.7805 171.697 10.6901 171.25 10.64C171.07 10.5 171.13 9.98998 171.22 9.84998Z" fill="#0A0203"/>
<path d="M187.8 25.42C188.508 25.9389 189.374 26.1969 190.25 26.15C190.619 26.16 190.986 26.0917 191.326 25.9496C191.667 25.8074 191.974 25.5947 192.226 25.3253C192.478 25.056 192.671 24.7362 192.79 24.3871C192.91 24.038 192.954 23.6674 192.92 23.3C192.92 21.5 191.92 20.66 189.65 19.22C187.38 17.78 185.92 16.5 185.92 14.05C185.92 11.15 188.12 9.45996 190.84 9.45996C192.116 9.51735 193.387 9.67112 194.64 9.91996C194.432 11.1617 194.288 12.4134 194.21 13.67C194.14 13.83 193.56 13.83 193.49 13.67C193.34 12.06 193.11 11.3 192.49 10.87C191.907 10.4597 191.202 10.2589 190.49 10.3C190.135 10.305 189.784 10.3812 189.458 10.5241C189.133 10.667 188.839 10.8736 188.595 11.1318C188.351 11.3901 188.161 11.6946 188.036 12.0275C187.912 12.3604 187.855 12.7148 187.87 13.07C187.854 13.6909 188.003 14.305 188.301 14.8496C188.6 15.3943 189.038 15.8499 189.57 16.17C190.57 16.88 191.82 17.53 192.67 18.07C193.385 18.4686 193.983 19.0477 194.404 19.7496C194.825 20.4515 195.055 21.2516 195.07 22.07C195.07 24.74 193.07 27.07 189.53 27.07C188.284 27.0514 187.056 26.7649 185.93 26.23C185.572 24.8944 185.337 23.5286 185.23 22.15C185.23 21.99 185.88 21.82 186 21.9C186.185 23.243 186.82 24.4837 187.8 25.42Z" fill="#0A0203"/>
<path d="M201.87 9.86006C202.36 9.86006 203.61 9.94006 204.94 9.94006H210.8C211.602 9.95082 212.404 9.90739 213.2 9.81006C213.27 9.81006 213.3 9.91006 213.33 9.97006C213.095 11.2337 212.968 12.5149 212.95 13.8001C212.832 13.876 212.697 13.9213 212.558 13.9317C212.418 13.9422 212.278 13.9176 212.15 13.8601C212.079 13.2341 211.955 12.6152 211.78 12.0101C211.732 11.7471 211.592 11.5099 211.385 11.3412C211.178 11.1725 210.917 11.0834 210.65 11.0901C209.78 11.0901 207.03 11.0101 206.43 11.0901C206.26 11.0901 206.13 11.4101 206.13 11.5801C206.13 13.1501 206.08 15.8501 206.13 17.7201C206.135 17.752 206.149 17.7819 206.171 17.8066C206.192 17.8312 206.219 17.8497 206.25 17.8601C207.38 17.8601 209.5 17.8601 210.3 17.8001C210.544 17.8021 210.781 17.7148 210.965 17.5545C211.149 17.3943 211.268 17.1722 211.3 16.9301C211.435 16.5397 211.536 16.1381 211.6 15.7301C211.883 15.6778 212.175 15.7091 212.44 15.8201C212.37 16.4401 212.3 17.5801 212.3 18.5301C212.3 19.4801 212.3 20.3801 212.35 21.1401C212.228 21.2047 212.094 21.2435 211.956 21.2538C211.819 21.2641 211.68 21.2458 211.55 21.2001C211.479 20.7934 211.379 20.3923 211.25 20.0001C211.1 19.4301 210.82 19.1601 210.37 19.1301C209.47 19.0801 206.83 19.0501 206.25 19.0801C206.18 19.0801 206.13 19.1901 206.13 19.2201C206.13 20.8801 206.13 23.1301 206.18 24.2801C206.18 25.1701 206.33 25.5301 207.06 25.7201C207.56 25.8301 208.06 25.8801 208.73 25.9601C208.83 26.2139 208.83 26.4962 208.73 26.7501C207.93 26.7501 206.84 26.6701 205.01 26.6701C203.49 26.6701 202.66 26.7501 201.79 26.7501C201.69 26.4962 201.69 26.2139 201.79 25.9601C202.235 25.9265 202.676 25.8563 203.11 25.7501C203.81 25.5601 203.94 25.2801 203.99 24.3001C204.04 23.3201 203.99 21.3701 203.99 18.1001C203.99 15.1001 203.99 13.1001 203.93 12.2601C203.87 11.4201 203.83 11.1201 203.28 10.9001C202.795 10.7773 202.299 10.7003 201.8 10.6701C201.72 10.4009 201.745 10.1115 201.87 9.86006Z" fill="#0A0203"/>
<path d="M217.66 24.6699C216.194 22.8158 215.432 20.5023 215.51 18.1399C215.477 16.274 216.014 14.4425 217.05 12.8899C217.814 11.8328 218.816 10.9699 219.974 10.3707C221.133 9.77146 222.416 9.45265 223.72 9.43994C228.81 9.43994 231.39 13.4399 231.39 17.9099C231.48 19.9083 230.949 21.8857 229.87 23.5699C229.156 24.6619 228.181 25.5596 227.035 26.1826C225.888 26.8057 224.605 27.1346 223.3 27.1399C222.236 27.1681 221.179 26.9613 220.204 26.5344C219.23 26.1074 218.361 25.4709 217.66 24.6699ZM226.92 24.9899C228.47 23.6299 229.02 21.3699 229.02 18.8699C229.02 15.9299 228.12 13.0999 226.14 11.6099C225.203 10.8903 224.051 10.5065 222.87 10.5199C222.079 10.5071 221.3 10.7149 220.62 11.1199C218.8 12.2899 217.95 14.7399 217.95 17.5099C217.95 20.2799 218.95 23.5099 221.13 25.0199C222.046 25.6498 223.139 25.972 224.25 25.9399C225.227 25.9664 226.179 25.6276 226.92 24.9899Z" fill="#0A0203"/>
<path d="M233.55 9.83997C234.15 9.83997 235.65 9.91997 236.43 9.91997C238.28 9.91997 239.58 9.85997 240.57 9.85997C243.5 9.85997 245.05 11.76 245.05 14.04C245.062 14.9701 244.797 15.8829 244.29 16.6626C243.782 17.4423 243.055 18.0539 242.2 18.42C242.185 18.4494 242.177 18.482 242.177 18.515C242.177 18.548 242.185 18.5805 242.2 18.61C243.4 20.6764 244.764 22.6427 246.28 24.49C246.606 24.9478 247.037 25.3217 247.535 25.5807C248.034 25.8398 248.588 25.9766 249.15 25.98C249.2 26.06 249.15 26.69 249 26.74C247.646 26.8482 246.284 26.6746 245 26.23C244.519 25.9677 244.107 25.594 243.8 25.14C242.85 23.92 241.32 21.2 240.37 19.73C240.308 19.6166 240.218 19.52 240.111 19.4486C240.003 19.3772 239.879 19.333 239.75 19.32C239.4 19.32 238.32 19.32 237.97 19.32C237.92 19.32 237.87 19.45 237.87 19.48C237.87 20.98 237.87 23.48 237.93 24.4C237.99 25.32 238.15 25.57 238.73 25.71C239.1 25.79 239.55 25.87 240.12 25.95C240.184 26.0718 240.217 26.2074 240.217 26.345C240.217 26.4826 240.184 26.6181 240.12 26.74C239.65 26.74 238.45 26.66 236.8 26.66C235.15 26.66 234.1 26.74 233.63 26.74C233.571 26.6168 233.54 26.4817 233.54 26.345C233.54 26.2082 233.571 26.0732 233.63 25.95C234.18 25.87 234.58 25.82 234.9 25.74C235.5 25.6 235.7 25.27 235.75 24.24C235.75 23.61 235.8 19.92 235.8 18.42C235.8 15.65 235.8 12.93 235.8 12.09C235.8 11.25 235.6 11 234.97 10.84C234.529 10.7367 234.081 10.6632 233.63 10.62C233.565 10.5021 233.524 10.3722 233.51 10.2381C233.497 10.1041 233.51 9.96866 233.55 9.83997ZM238.05 10.92C237.95 11.0346 237.891 11.1785 237.88 11.33C237.83 12.25 237.83 15.95 237.83 18.07C237.83 18.1054 237.843 18.1396 237.867 18.1656C237.892 18.1916 237.925 18.2074 237.96 18.21C239.038 18.3259 240.128 18.2514 241.18 17.99C241.721 17.6707 242.161 17.2042 242.448 16.6448C242.735 16.0854 242.857 15.456 242.8 14.83C242.8 12.28 241.6 10.83 238.93 10.83C238.634 10.8097 238.336 10.8401 238.05 10.92Z" fill="#0A0203"/>
<path d="M256.42 25.38C257.126 25.8961 257.987 26.1538 258.86 26.11C259.23 26.1219 259.599 26.0545 259.941 25.9123C260.283 25.7701 260.591 25.5564 260.844 25.2856C261.097 25.0148 261.289 24.6931 261.407 24.342C261.525 23.991 261.567 23.6186 261.53 23.25C261.53 21.46 260.53 20.61 258.26 19.18C255.99 17.75 254.54 16.46 254.53 14.01C254.53 11.1 256.73 9.41003 259.45 9.41003C260.727 9.46677 261.997 9.62054 263.25 9.87003C263.034 11.1281 262.884 12.3964 262.8 13.67C262.72 13.83 262.15 13.83 262.07 13.67C261.92 12.07 261.7 11.31 261.07 10.87C260.484 10.4661 259.781 10.2659 259.07 10.3C258.714 10.3064 258.363 10.3838 258.038 10.5278C257.712 10.6718 257.419 10.8794 257.175 11.1384C256.931 11.3974 256.741 11.7026 256.616 12.036C256.492 12.3695 256.435 12.7244 256.45 13.08C256.434 13.701 256.583 14.3151 256.881 14.8597C257.18 15.4043 257.618 15.8599 258.15 16.18C259.15 16.88 260.4 17.54 261.25 18.08C261.965 18.4787 262.563 19.0578 262.984 19.7597C263.405 20.4616 263.635 21.2616 263.65 22.08C263.65 24.75 261.65 27.08 258.11 27.08C256.862 27.0638 255.633 26.7736 254.51 26.23C254.16 24.896 253.926 23.5343 253.81 22.16C253.81 21.99 254.46 21.83 254.58 21.91C254.787 23.2404 255.435 24.4626 256.42 25.38Z" fill="#0A0203"/>
<path d="M267.22 23.38C268.5 20.09 270.84 13.16 271.39 11.38C271.57 10.8895 271.707 10.3843 271.8 9.87C271.9 9.87 272.2 9.87 272.63 9.87C273.06 9.87 273.38 9.87 273.45 9.87C273.55 10.27 273.68 10.76 273.85 11.28C274.35 12.83 277.13 21.45 278.01 23.7C278.73 25.53 278.91 25.7 280.71 25.9C280.773 26.1624 280.755 26.4376 280.66 26.69C280.01 26.69 278.73 26.61 277.61 26.61C276.49 26.61 274.86 26.67 274.34 26.7C274.25 26.4443 274.25 26.1656 274.34 25.91C274.805 25.8532 275.264 25.7528 275.71 25.61C275.836 25.5549 275.935 25.4533 275.987 25.3265C276.039 25.1997 276.04 25.0575 275.99 24.93C275.69 23.76 274.94 21.48 274.49 20.25C274.44 20.16 274.358 20.0922 274.26 20.06C273.91 20.06 273.04 20.06 271.91 20.06C270.32 20.06 270.14 20.06 269.84 20.06C269.74 20.06 269.62 20.22 269.59 20.3C269.046 21.7396 268.595 23.2126 268.24 24.71C268.24 25.17 268.24 25.47 269.05 25.71C269.439 25.819 269.837 25.8927 270.24 25.93C270.303 26.1924 270.286 26.4677 270.19 26.72C269.67 26.72 268.4 26.64 267 26.64C265.6 26.64 264.8 26.67 264.3 26.67C264.2 26.4196 264.2 26.1404 264.3 25.89C266.1 25.67 266.4 25.48 267.22 23.38ZM271.99 12.72C271.57 14.08 270.54 17.16 270.12 18.6C270.12 18.71 270.12 18.76 270.22 18.79C270.47 18.79 271.27 18.79 272.22 18.79C272.82 18.79 273.64 18.79 273.89 18.79C273.91 18.7825 273.928 18.7709 273.943 18.7559C273.958 18.7409 273.97 18.7229 273.977 18.703C273.985 18.6832 273.988 18.6619 273.987 18.6407C273.986 18.6195 273.98 18.5988 273.97 18.58C273.47 16.89 272.51 13.87 272.11 12.71C272.09 12.67 272.01 12.67 271.99 12.72Z" fill="#0A0203"/>
<path d="M281.13 9.81005C281.85 9.81005 282.68 9.89005 284.32 9.89005C285.96 9.89005 286.92 9.80005 287.42 9.80005C287.484 9.91651 287.517 10.0472 287.517 10.18C287.517 10.3129 287.484 10.4436 287.42 10.56C286.992 10.619 286.568 10.7025 286.15 10.81C285.55 10.97 285.5 11.33 285.47 11.9C285.42 12.9 285.47 15.22 285.4 17.77C285.4 21.14 285.4 23.4 285.48 24.57C285.487 24.7274 285.535 24.8802 285.62 25.0135C285.704 25.1467 285.821 25.2558 285.96 25.3301C287.339 25.5456 288.736 25.6193 290.13 25.55C290.442 25.5309 290.744 25.428 291.002 25.252C291.261 25.076 291.467 24.8335 291.6 24.55C292.199 23.6074 292.692 22.6012 293.07 21.55C293.21 21.5389 293.35 21.5602 293.48 21.6123C293.61 21.6643 293.726 21.7457 293.82 21.85C293.538 23.4017 293.106 24.9222 292.53 26.39C292.43 26.6 292.18 26.74 291.53 26.74C289.93 26.74 285.64 26.6101 284.36 26.6101C283.08 26.6101 281.26 26.67 280.8 26.67C280.746 26.5453 280.719 26.4109 280.719 26.2751C280.719 26.1392 280.746 26.0048 280.8 25.88C281.355 25.8353 281.906 25.7551 282.45 25.64C283 25.48 283.17 25.18 283.22 24.52C283.27 23.86 283.32 21.12 283.32 17.59C283.32 14.71 283.32 13.08 283.27 12.37C283.27 11.25 283.14 10.96 282.46 10.79C282.008 10.6844 281.551 10.6043 281.09 10.55C281.042 10.4312 281.021 10.3034 281.028 10.1756C281.035 10.0478 281.07 9.92306 281.13 9.81005Z" fill="#0A0203"/>
<path d="M294.99 9.77002C295.61 9.77002 296.91 9.88002 298.31 9.88002H303.23C304.155 9.89755 305.08 9.86082 306 9.77002C306 9.77002 306.1 9.88002 306.1 9.91002C305.875 11.1431 305.724 12.3887 305.65 13.64C305.528 13.6909 305.397 13.7171 305.265 13.7171C305.133 13.7171 305.002 13.6909 304.88 13.64C304.829 13.0804 304.735 12.5255 304.6 11.98C304.551 11.6887 304.397 11.4256 304.166 11.2411C303.935 11.0566 303.645 10.9637 303.35 10.98C302.88 10.98 299.86 10.98 299.53 10.98C299.444 11.038 299.372 11.115 299.319 11.2051C299.267 11.2953 299.237 11.3962 299.23 11.5C299.23 13.02 299.23 16.04 299.23 17.26C299.23 17.35 299.23 17.45 299.36 17.45C300.36 17.45 302.28 17.45 303.18 17.45C303.73 17.39 303.9 17.07 304.03 16.63C304.147 16.2739 304.237 15.9096 304.3 15.54C304.573 15.4584 304.868 15.4871 305.12 15.62C305.015 16.4694 304.958 17.3241 304.95 18.18C304.95 19.18 304.95 19.97 305 20.65C304.869 20.7192 304.723 20.7554 304.575 20.7554C304.427 20.7554 304.281 20.7192 304.15 20.65C304.121 20.2742 304.054 19.9024 303.95 19.54C303.926 19.3284 303.827 19.1324 303.671 18.9874C303.515 18.8425 303.313 18.7583 303.1 18.75C302.35 18.67 300.28 18.67 299.36 18.75C299.31 18.75 299.23 18.88 299.23 18.96C299.23 20.22 299.23 23.1 299.29 24.4C299.279 24.6039 299.326 24.8067 299.427 24.9841C299.529 25.1615 299.679 25.306 299.86 25.4C301.089 25.5305 302.325 25.5839 303.56 25.56C303.921 25.6053 304.287 25.5442 304.614 25.3844C304.941 25.2245 305.214 24.9728 305.4 24.66C305.918 23.9173 306.339 23.1106 306.65 22.26C306.917 22.2885 307.17 22.3926 307.38 22.56C307.151 23.8342 306.799 25.0833 306.33 26.29C306.18 26.59 306.03 26.72 304.78 26.73C302.68 26.73 300.89 26.62 298.29 26.62C296.61 26.62 295.36 26.7 294.29 26.7C294.238 26.5766 294.211 26.444 294.211 26.31C294.211 26.176 294.238 26.0434 294.29 25.92C294.926 25.8752 295.558 25.7816 296.18 25.64C296.78 25.48 296.96 25.13 297.03 24.17C297.03 23.66 297.03 20.67 297.03 17.59C297.03 15.12 297.03 12.7 297.03 12.21C296.98 11.21 296.88 10.99 296.28 10.82C295.848 10.6944 295.407 10.6041 294.96 10.55C294.8 10.42 294.89 9.91002 294.99 9.77002Z" fill="#0A0203"/>
<path d="M9.92991 37.25C10.2499 37.25 10.6099 37.25 11.3299 37.25C12.0499 37.25 12.4799 37.25 12.6999 37.25C12.7246 37.2997 12.7374 37.3545 12.7374 37.41C12.7374 37.4655 12.7246 37.5203 12.6999 37.57C12.5108 37.5929 12.3236 37.6297 12.1399 37.68C11.8699 37.75 11.8499 37.9 11.8399 38.14C11.8399 38.55 11.8399 39.55 11.8399 40.63C11.8399 42.06 11.8399 43.02 11.8399 43.52C11.8424 43.5874 11.8633 43.6529 11.9003 43.7093C11.9373 43.7657 11.9891 43.8109 12.0499 43.84C12.6588 43.93 13.2751 43.9602 13.8899 43.93C14.027 43.9237 14.1598 43.8804 14.2742 43.8047C14.3887 43.729 14.4805 43.6237 14.5399 43.5C14.7994 43.1051 15.014 42.6825 15.1799 42.24C15.2405 42.2328 15.3019 42.2399 15.3592 42.2608C15.4165 42.2816 15.4681 42.3156 15.5099 42.36C15.3892 43.0218 15.1981 43.6688 14.9399 44.29C14.9399 44.38 14.7899 44.44 14.4899 44.44C13.7899 44.44 11.8999 44.38 11.3299 44.38C10.7599 44.38 9.97991 44.38 9.75991 44.38C9.71545 44.271 9.71545 44.149 9.75991 44.04C10.0049 44.0199 10.2486 43.9865 10.4899 43.94C10.7299 43.87 10.8099 43.74 10.8299 43.46C10.8499 43.18 10.8299 42.02 10.8299 40.52C10.8299 39.3 10.8299 38.61 10.8299 38.31C10.8299 37.84 10.8299 37.71 10.4799 37.64C10.3399 37.64 10.0699 37.56 9.86991 37.53C9.86081 37.4817 9.86142 37.432 9.87173 37.384C9.88203 37.3359 9.9018 37.2903 9.92991 37.25Z" fill="#0A0203"/>
<path d="M15.9601 37.25C16.1901 37.25 16.8201 37.25 17.3901 37.25C17.9601 37.25 18.4801 37.25 18.7501 37.25C18.7902 37.3529 18.7902 37.4671 18.7501 37.57C18.5618 37.5936 18.3749 37.627 18.1901 37.67C17.9401 37.74 17.9001 37.89 17.8701 38.24C17.8401 38.59 17.8701 39.7 17.8701 40.7C17.8701 41.7 17.8701 42.95 17.8701 43.35C17.8701 43.75 17.9301 43.88 18.2601 43.97C18.4739 44.0216 18.6911 44.0584 18.9101 44.08C18.9498 44.1899 18.9498 44.3101 18.9101 44.42C18.6401 44.42 18.0301 44.42 17.4901 44.42C16.9501 44.42 16.3101 44.42 15.9601 44.42C15.9329 44.3675 15.9187 44.3092 15.9187 44.25C15.9187 44.1908 15.9329 44.1325 15.9601 44.08C16.149 44.0662 16.3363 44.0361 16.5201 43.99C16.8401 43.92 16.8801 43.76 16.9001 43.49C16.9201 43.22 16.9001 41.98 16.9001 40.49C16.9001 39.49 16.9001 38.79 16.9001 38.25C16.9001 37.96 16.9001 37.79 16.6301 37.72C16.4102 37.6604 16.1863 37.617 15.9601 37.59C15.9001 37.53 15.9301 37.29 15.9601 37.25Z" fill="#0A0203"/>
<path d="M19.0098 37.25C19.2698 37.25 19.8798 37.25 20.3498 37.25C21.0098 37.25 21.5898 37.25 21.7598 37.25C21.9298 37.25 21.8198 37.54 21.7598 37.57L21.1898 37.7C20.9998 37.7 20.9798 37.9 21.0298 38.06C21.3598 39.06 22.6198 42.57 22.8298 43.06C23.0998 42.42 24.2598 39.34 24.5698 38.34C24.6998 37.91 24.6498 37.74 24.3198 37.67L23.7198 37.55C23.7198 37.55 23.7198 37.25 23.7198 37.23C23.7198 37.21 24.3298 37.23 25.0098 37.23C25.6898 37.23 25.8998 37.23 26.1698 37.23C26.21 37.3328 26.21 37.4471 26.1698 37.55C26.0448 37.5845 25.9213 37.6245 25.7998 37.67C25.4598 37.79 25.3598 38.02 25.0998 38.67C24.7598 39.49 24.0198 41.42 23.4698 42.85C23.2098 43.54 23.0098 44.12 22.8998 44.47C22.6809 44.4399 22.4588 44.4399 22.2398 44.47C22.1298 44.02 21.9798 43.47 21.7698 42.91C21.2198 41.35 20.5298 39.45 20.2198 38.59C19.9598 37.96 19.8398 37.77 19.5098 37.67C19.3698 37.67 19.1998 37.6 18.9898 37.56C18.9298 37.53 18.9498 37.27 19.0098 37.25Z" fill="#0A0203"/>
<path d="M26.44 37.24C26.71 37.24 27.28 37.29 27.9 37.29H30.07C30.49 37.29 31.07 37.29 31.29 37.24V37.3C31.1911 37.8221 31.1243 38.3497 31.09 38.88C31.09 38.94 30.79 38.94 30.75 38.88C30.7338 38.6432 30.6936 38.4087 30.63 38.18C30.6125 38.05 30.5456 37.9317 30.4431 37.8498C30.3407 37.7679 30.2107 37.7285 30.08 37.74C29.87 37.74 28.54 37.74 28.4 37.74C28.26 37.74 28.27 37.9 28.27 37.96C28.27 38.6 28.27 39.89 28.27 40.4V40.48C28.8296 40.5103 29.3904 40.5103 29.95 40.48C30.2 40.48 30.27 40.32 30.33 40.14C30.3807 39.9863 30.4208 39.8292 30.45 39.67C30.52 39.67 30.77 39.67 30.81 39.67C30.766 40.0284 30.7426 40.3889 30.74 40.75C30.74 41.18 30.74 41.51 30.74 41.75C30.6811 41.7799 30.616 41.7954 30.55 41.7954C30.484 41.7954 30.4189 41.7799 30.36 41.75C30.3468 41.5913 30.3201 41.4341 30.28 41.28C30.2658 41.189 30.2199 41.1059 30.1503 41.0455C30.0808 40.9851 29.9921 40.9513 29.9 40.95C29.57 40.95 28.66 40.95 28.25 40.95C28.25 40.95 28.25 41.01 28.25 41.05C28.25 41.58 28.25 42.8 28.25 43.35C28.2413 43.4401 28.2607 43.5308 28.3054 43.6095C28.3501 43.6883 28.4181 43.7513 28.5 43.79C29.0412 43.8486 29.5857 43.872 30.13 43.86C30.2874 43.8832 30.4482 43.8596 30.5922 43.792C30.7363 43.7244 30.8572 43.6159 30.94 43.48C31.1647 43.1712 31.3495 42.8352 31.49 42.48C31.6076 42.4803 31.7212 42.5229 31.81 42.6C31.7152 43.142 31.5609 43.6718 31.35 44.18C31.29 44.31 31.22 44.37 30.67 44.37C29.74 44.37 28.95 44.32 27.81 44.32C27.07 44.32 26.52 44.32 26.07 44.32C26.0294 44.2103 26.0294 44.0897 26.07 43.98C26.3522 43.9625 26.6328 43.9257 26.91 43.87C27.17 43.8 27.25 43.65 27.28 43.24C27.28 43.02 27.28 41.75 27.28 40.45C27.28 39.45 27.28 38.37 27.28 38.17C27.28 37.75 27.21 37.65 26.95 37.58C26.7603 37.5241 26.5663 37.4839 26.37 37.46C26.37 37.52 26.39 37.3 26.44 37.24Z" fill="#0A0203"/>
<path d="M36.1 37.24C36.5 37.24 37.03 37.29 37.58 37.29H38.9C38.9 37.29 38.95 37.58 38.9 37.61L38.35 37.75C38.17 37.81 38.14 37.96 38.18 38.2C38.4 39.2 39.01 41.46 39.38 42.82C39.86 41.45 40.76 38.82 41.06 37.66C41.2528 37.68 41.4472 37.68 41.64 37.66C41.9 38.66 43 41.94 43.36 42.91C43.36 42.91 43.36 42.91 43.41 42.91C43.71 41.91 44.41 39.46 44.63 38.51C44.72 38.12 44.73 37.85 44.4 37.76C44.23 37.76 44.06 37.68 43.75 37.63C43.728 37.5795 43.7166 37.5251 43.7166 37.47C43.7166 37.4149 43.728 37.3605 43.75 37.31C44.02 37.31 44.58 37.31 45.03 37.31C45.75 37.31 46.03 37.31 46.29 37.31C46.3147 37.3597 46.3275 37.4145 46.3275 37.47C46.3275 37.5255 46.3147 37.5803 46.29 37.63L45.81 37.76C45.55 37.87 45.4 38.02 45.24 38.48C44.76 39.83 43.79 43.1 43.39 44.48H42.83C42.58 43.48 41.51 40.31 41.1 39.18C40.6 40.62 39.7 43.27 39.35 44.45C39.1636 44.4351 38.9764 44.4351 38.79 44.45C38.46 43.03 37.57 39.57 37.21 38.45C37.05 37.94 36.94 37.78 36.65 37.7C36.4601 37.6423 36.2663 37.5989 36.07 37.57C36.07 37.57 36.05 37.27 36.1 37.24Z" fill="#0A0203"/>
<path d="M46.49 43.01C47.05 41.61 48.09 38.67 48.33 37.93C48.4164 37.7173 48.4801 37.4961 48.52 37.27C48.52 37.27 48.69 37.27 48.88 37.27C48.9999 37.2762 49.1201 37.2762 49.24 37.27C49.29 37.45 49.34 37.66 49.42 37.88C49.64 38.53 50.86 42.19 51.25 43.15C51.56 43.92 51.64 43.98 52.43 44.08C52.48 44.08 52.43 44.37 52.43 44.42C52.15 44.42 51.58 44.42 51.09 44.42C50.6 44.42 49.88 44.42 49.65 44.42C49.65 44.42 49.59 44.13 49.65 44.08C49.8543 44.0596 50.0556 44.016 50.25 43.95C50.2777 43.9415 50.3032 43.927 50.3247 43.9076C50.3462 43.8882 50.3633 43.8644 50.3747 43.8377C50.3861 43.8111 50.3916 43.7823 50.3908 43.7534C50.39 43.7244 50.3829 43.696 50.37 43.67C50.24 43.17 49.91 42.2 49.71 41.67C49.6997 41.6505 49.6856 41.6333 49.6683 41.6196C49.6511 41.6058 49.6313 41.5957 49.61 41.59C49.46 41.59 49.08 41.59 48.61 41.59C47.91 41.59 47.83 41.59 47.7 41.59C47.57 41.59 47.6 41.66 47.59 41.69C47.3556 42.3018 47.1553 42.9261 46.99 43.56C46.99 43.76 46.99 43.89 47.35 43.98C47.5211 44.0217 47.6948 44.0518 47.87 44.07C47.9046 44.1807 47.9046 44.2993 47.87 44.41C47.64 44.41 47.08 44.41 46.46 44.41C45.84 44.41 45.46 44.41 45.29 44.41C45.265 44.3568 45.2521 44.2988 45.2521 44.24C45.2521 44.1813 45.265 44.1232 45.29 44.07C46 43.98 46.13 43.9 46.49 43.01ZM48.59 38.49C48.41 39.06 47.96 40.37 47.77 40.98C47.77 40.98 47.77 41.05 47.77 41.06H49.39C49.3964 41.0544 49.4015 41.0475 49.405 41.0397C49.4085 41.032 49.4103 41.0235 49.4103 41.015C49.4103 41.0065 49.4085 40.9981 49.405 40.9903C49.4015 40.9826 49.3964 40.9757 49.39 40.97C49.17 40.25 48.76 38.97 48.58 38.47C48.582 38.4773 48.5854 38.484 48.59 38.49Z" fill="#0A0203"/>
<path d="M56.4601 44.42C56.1401 44.42 55.4601 44.42 54.8201 44.42C54.1801 44.42 53.45 44.42 53.16 44.42C53.1248 44.3094 53.1248 44.1906 53.16 44.08C53.4223 44.0612 53.6829 44.0245 53.94 43.97C54.3 43.9 54.35 43.67 54.36 43.13C54.36 42.24 54.41 39.77 54.41 37.85C54.4069 37.8288 54.3977 37.809 54.3835 37.793C54.3692 37.7771 54.3507 37.7656 54.33 37.76C54.14 37.76 53.33 37.76 52.91 37.76C52.8108 37.7638 52.7148 37.796 52.6333 37.8527C52.5517 37.9094 52.4882 37.9883 52.45 38.08C52.2772 38.4275 52.1334 38.7887 52.0201 39.16C52.0201 39.16 51.7001 39.16 51.6801 39.06C51.789 38.4313 51.8624 37.7969 51.9001 37.16C51.9001 37.16 52.0001 37.1 52.0201 37.16C52.2969 37.2938 52.603 37.3557 52.91 37.34H56.98C57.3462 37.3707 57.7141 37.3088 58.05 37.16C58.0922 37.1677 58.1308 37.1887 58.16 37.22C58.0322 37.8806 57.9454 38.5486 57.9001 39.22C57.9001 39.28 57.59 39.28 57.55 39.22C57.5373 38.8806 57.4801 38.5445 57.3801 38.22C57.3558 38.1239 57.3005 38.0384 57.2228 37.9769C57.145 37.9155 57.0492 37.8814 56.95 37.88H55.41C55.3925 37.8876 55.3775 37.9002 55.3668 37.9162C55.3562 37.9321 55.3504 37.9508 55.3501 37.97C55.3501 39.67 55.3501 42.86 55.3501 43.45C55.3501 43.86 55.47 43.99 55.72 44.06C55.9654 44.1267 56.2165 44.1702 56.47 44.19C56.54 44.14 56.5201 44.39 56.4601 44.42Z" fill="#0A0203"/>
<path d="M58.9 37.24C59.17 37.24 59.7499 37.29 60.3599 37.29H62.5299C62.9499 37.29 63.5299 37.29 63.7499 37.24V37.3C63.6548 37.8223 63.5914 38.35 63.5599 38.88C63.5066 38.9043 63.4486 38.9169 63.3899 38.9169C63.3313 38.9169 63.2733 38.9043 63.2199 38.88C63.1964 38.6434 63.1529 38.4092 63.0899 38.18C63.0724 38.05 63.0055 37.9317 62.9031 37.8498C62.8007 37.7679 62.6706 37.7285 62.54 37.74C62.34 37.74 60.9999 37.74 60.8599 37.74C60.7199 37.74 60.7299 37.9 60.7299 37.96C60.7299 38.6 60.7299 39.89 60.7299 40.4V40.48C61.2929 40.5102 61.857 40.5102 62.4199 40.48C62.5118 40.476 62.5993 40.4397 62.667 40.3775C62.7347 40.3153 62.7783 40.2312 62.79 40.14C62.8407 39.9863 62.8807 39.8292 62.91 39.67C62.98 39.67 63.23 39.67 63.27 39.67C63.2259 40.0284 63.2026 40.3889 63.1999 40.75C63.1999 41.18 63.1999 41.51 63.1999 41.75C63.1428 41.7798 63.0794 41.7953 63.0149 41.7953C62.9505 41.7953 62.8871 41.7798 62.8299 41.75C62.8094 41.5917 62.7793 41.4347 62.74 41.28C62.7258 41.189 62.6799 41.1059 62.6103 41.0455C62.5407 40.9851 62.4521 40.9513 62.3599 40.95C62.0299 40.95 61.12 40.95 60.71 40.95C60.71 40.95 60.71 41.01 60.71 41.05C60.71 41.58 60.71 42.8 60.71 43.35C60.7013 43.4401 60.7206 43.5308 60.7654 43.6095C60.8101 43.6883 60.8781 43.7513 60.96 43.79C61.5012 43.8486 62.0457 43.872 62.5899 43.86C62.7486 43.8814 62.9101 43.857 63.0554 43.7897C63.2007 43.7223 63.3237 43.6149 63.41 43.48C63.6273 43.1666 63.8117 42.8314 63.96 42.48C64.0743 42.4818 64.1842 42.5243 64.27 42.6C64.1751 43.142 64.0208 43.6718 63.8099 44.18C63.7499 44.31 63.68 44.37 63.13 44.37C62.21 44.37 61.41 44.32 60.27 44.32C59.53 44.32 58.9799 44.32 58.5299 44.32C58.4894 44.2103 58.4894 44.0897 58.5299 43.98C58.8121 43.9625 59.0928 43.9257 59.37 43.87C59.63 43.8 59.71 43.65 59.74 43.24C59.74 43.02 59.74 41.75 59.74 40.45C59.74 39.45 59.74 38.37 59.74 38.17C59.74 37.75 59.68 37.65 59.41 37.58C59.2203 37.5241 59.0263 37.4839 58.8299 37.46C58.7999 37.52 58.85 37.3 58.9 37.24Z" fill="#0A0203"/>
<path d="M64.9799 37.25C65.2399 37.25 65.8999 37.25 66.2399 37.25C67.0499 37.25 67.6299 37.25 68.0699 37.25C68.3215 37.2186 68.5768 37.2414 68.8188 37.3167C69.0609 37.392 69.284 37.5182 69.4734 37.6867C69.6627 37.8552 69.8139 38.0622 69.9168 38.2939C70.0197 38.5255 70.0719 38.7765 70.0699 39.03C70.0715 39.4334 69.9511 39.8279 69.7245 40.1616C69.4978 40.4953 69.1755 40.7527 68.7999 40.9C68.7929 40.9121 68.7892 40.9259 68.7892 40.94C68.7892 40.954 68.7929 40.9678 68.7999 40.98C69.3285 41.8569 69.9271 42.6896 70.5899 43.47C70.739 43.6655 70.9311 43.8241 71.1513 43.9333C71.3716 44.0426 71.6141 44.0996 71.8599 44.1C71.8599 44.1 71.8599 44.4 71.7899 44.43C71.1945 44.4744 70.5961 44.3996 70.0299 44.21C69.8216 44.0975 69.6406 43.9404 69.4999 43.75C69.0899 43.23 68.4099 42.07 67.9999 41.45C67.9689 41.4026 67.9276 41.3627 67.8792 41.3333C67.8307 41.3039 67.7763 41.2856 67.7199 41.28C67.4602 41.265 67.1997 41.265 66.9399 41.28C66.9399 41.28 66.9399 41.33 66.9399 41.35C66.9399 41.98 66.9399 43.05 66.9399 43.43C66.9399 43.81 67.0399 43.93 67.2899 43.99C67.5399 44.05 67.6499 44.06 67.9099 44.09C67.9371 44.1425 67.9513 44.2008 67.9513 44.26C67.9513 44.3191 67.9371 44.3774 67.9099 44.43C67.7099 44.43 67.1799 44.43 66.4499 44.43C65.7199 44.43 65.2599 44.43 65.0499 44.43C65.025 44.3768 65.012 44.3187 65.012 44.26C65.012 44.2012 65.025 44.1432 65.0499 44.09L65.6199 44C65.8799 43.94 65.9699 43.8 65.9899 43.36C65.9899 43.1 65.9899 41.53 65.9899 40.9C65.9899 39.72 65.9899 38.56 65.9899 38.21C65.9899 37.86 65.8999 37.75 65.6299 37.68C65.3599 37.61 65.2499 37.61 65.0299 37.58C64.9099 37.53 64.9299 37.27 64.9799 37.25ZM66.9799 37.71C66.9315 37.7578 66.903 37.822 66.8999 37.89C66.8999 38.28 66.8999 39.89 66.8999 40.75C66.9075 40.7544 66.9162 40.7567 66.9249 40.7567C66.9337 40.7567 66.9423 40.7544 66.9499 40.75C67.4249 40.803 67.9055 40.7725 68.3699 40.66C68.6063 40.5298 68.8001 40.334 68.9278 40.0963C69.0555 39.8586 69.1118 39.589 69.0899 39.32C69.1126 39.0889 69.0821 38.8556 69.0006 38.6381C68.9191 38.4206 68.7889 38.2247 68.62 38.0654C68.451 37.9061 68.2477 37.7876 68.0259 37.7191C67.804 37.6505 67.5693 37.6337 67.3399 37.67C67.2139 37.6518 67.086 37.6518 66.9599 37.67L66.9799 37.71Z" fill="#0A0203"/>
<path d="M77.4901 36.1899V47.9599H76.8V36.1899H77.4901Z" fill="#0A0203"/>
<path d="M83.24 37.25C83.5 37.25 84.05 37.25 84.64 37.25C85.38 37.25 85.71 37.25 86.02 37.25C86.0558 37.3537 86.0558 37.4663 86.02 37.57C85.82 37.57 85.61 37.64 85.49 37.68C85.37 37.72 85.19 37.84 85.18 38.21C85.17 38.58 85.18 39.21 85.18 40.35C85.18 40.35 85.18 40.46 85.24 40.47C85.3 40.48 85.51 40.47 87.11 40.47H88.83C88.83 40.47 88.9 40.47 88.9 40.4C88.9 39.8 88.9 38.5 88.9 38.08C88.9057 38.0019 88.8878 37.9239 88.8486 37.8561C88.8093 37.7883 88.7506 37.7339 88.68 37.7C88.4682 37.6353 88.2504 37.5917 88.03 37.57C87.97 37.57 88.03 37.3 88.03 37.24C88.28 37.24 88.82 37.29 89.41 37.29C90 37.29 90.59 37.29 90.77 37.29C90.8051 37.3938 90.8051 37.5062 90.77 37.61C90.5771 37.6348 90.3865 37.6749 90.2 37.73C89.96 37.81 89.91 37.94 89.89 38.35C89.87 38.76 89.89 39.44 89.89 40.81C89.89 41.81 89.89 43.08 89.89 43.47C89.89 43.86 89.99 43.92 90.2 43.99C90.4261 44.0658 90.6618 44.1096 90.9 44.12C90.9 44.12 90.9 44.42 90.9 44.46C90.57 44.46 89.98 44.46 89.42 44.46C88.86 44.46 88.31 44.46 88.03 44.46C88.005 44.4068 87.9921 44.3488 87.9921 44.29C87.9921 44.2312 88.005 44.1732 88.03 44.12C88.2397 44.1029 88.4473 44.066 88.65 44.01C88.85 43.95 88.92 43.83 88.94 43.47C88.96 43.11 88.94 41.88 88.94 41.16C88.9402 41.1404 88.9331 41.1214 88.9202 41.1067C88.9073 41.0919 88.8895 41.0824 88.87 41.08C88.67 41.08 87.73 41.08 87.13 41.08C86.27 41.08 85.36 41.08 85.25 41.08C85.14 41.08 85.25 41.08 85.25 41.14C85.25 41.78 85.25 43.14 85.25 43.35C85.25 43.74 85.32 43.9 85.59 43.98C85.8061 44.0433 86.0268 44.0901 86.25 44.12C86.2726 44.1738 86.2842 44.2316 86.2842 44.29C86.2842 44.3484 86.2726 44.4062 86.25 44.46C86.04 44.46 85.52 44.46 84.82 44.46C84.12 44.46 83.58 44.46 83.36 44.46C83.3156 44.351 83.3156 44.229 83.36 44.12C83.62 44.12 83.8 44.05 83.95 44.02C84.27 43.91 84.3 43.71 84.33 43.17C84.33 42.78 84.33 41.8 84.33 40.8C84.33 39.8 84.33 38.46 84.33 38.25C84.33 38.04 84.25 37.8 84.03 37.74C83.8136 37.6803 83.593 37.6368 83.37 37.61C83.3167 37.5683 83.2762 37.5124 83.2532 37.4487C83.2302 37.385 83.2256 37.3162 83.24 37.25Z" fill="#0A0203"/>
<path d="M91.38 37.25C91.58 37.25 92.26 37.25 92.78 37.25C93.3 37.25 93.78 37.25 94.08 37.25C94.115 37.3538 94.115 37.4662 94.08 37.57C93.9012 37.5954 93.7242 37.6322 93.55 37.68C93.3 37.76 93.23 37.89 93.22 38.29C93.22 39.42 93.22 40.98 93.22 41.59C93.221 41.9925 93.2921 42.3918 93.43 42.77C93.5792 43.1424 93.8449 43.4566 94.1873 43.6656C94.5297 43.8747 94.9305 43.9674 95.33 43.93C96.25 43.93 97.14 43.64 97.24 41.82C97.24 40.94 97.3 39.65 97.24 38.47C97.24 37.9 97.11 37.75 96.74 37.68C96.59 37.63 96.42 37.62 96.18 37.57C96.1398 37.4671 96.1398 37.3529 96.18 37.25C96.38 37.25 96.87 37.25 97.5 37.25C98.13 37.25 98.5 37.25 98.68 37.25C98.68 37.25 98.68 37.55 98.68 37.57C98.68 37.59 98.34 37.64 98.22 37.69C97.9 37.78 97.83 37.99 97.82 38.54C97.8627 39.8772 97.7891 41.2156 97.6 42.54C97.4899 43.147 97.1548 43.6902 96.6617 44.061C96.1686 44.4317 95.5537 44.6028 94.94 44.54C93.2 44.54 92.43 43.71 92.29 42.45C92.2 41.72 92.22 38.79 92.2 38.2C92.2 37.91 92.12 37.72 91.89 37.64C91.7029 37.5871 91.5125 37.547 91.32 37.52C91.3105 37.4259 91.3315 37.3312 91.38 37.25Z" fill="#0A0203"/>
<path d="M99.04 37.25C99.32 37.25 99.87 37.25 100.42 37.25C100.583 37.2634 100.747 37.2634 100.91 37.25C101.012 37.4782 101.147 37.6904 101.31 37.88C102.43 39.35 104.69 42.24 105.22 42.88C105.22 41.3 105.22 39.15 105.22 38.31C105.22 37.98 105.13 37.8 104.8 37.7C104.556 37.6393 104.309 37.5925 104.06 37.56C104.025 37.4562 104.025 37.3438 104.06 37.24C104.35 37.24 104.85 37.24 105.52 37.24C105.9 37.24 106.52 37.24 106.69 37.24C106.73 37.3429 106.73 37.4571 106.69 37.56C106.527 37.5881 106.367 37.6282 106.21 37.68C105.92 37.78 105.85 37.99 105.83 38.3C105.77 39.19 105.78 40.67 105.74 42.85C105.74 43.38 105.74 44.05 105.74 44.43H104.98C104.39 43.55 101.37 39.58 100.71 38.72H100.66C100.66 39.91 100.66 42.61 100.66 43.25C100.66 43.71 100.83 43.88 101.12 43.95C101.336 44.0064 101.557 44.0432 101.78 44.06C101.82 44.1698 101.82 44.2901 101.78 44.4C101.52 44.4 101.02 44.4 100.41 44.4C99.8 44.4 99.3199 44.4 99.0899 44.4C99.0598 44.2887 99.0598 44.1713 99.0899 44.06C99.2858 44.0433 99.4798 44.0098 99.67 43.96C99.92 43.88 100.07 43.73 100.09 43.28C100.11 42.83 100.17 40.8 100.19 38.37C100.194 38.2584 100.168 38.1478 100.116 38.0494C100.063 37.951 99.9851 37.8684 99.89 37.81C99.6246 37.6475 99.3211 37.5578 99.01 37.55C98.9895 37.4492 99 37.3447 99.04 37.25Z" fill="#0A0203"/>
<path d="M112.01 44.42C111.69 44.42 111.01 44.42 110.37 44.42C109.73 44.42 108.99 44.42 108.71 44.42C108.687 44.3661 108.676 44.3083 108.676 44.25C108.676 44.1916 108.687 44.1338 108.71 44.08C108.972 44.0604 109.233 44.0237 109.49 43.97C109.84 43.9 109.9 43.67 109.91 43.13C109.91 42.24 109.91 39.77 109.91 37.85C109.908 37.8283 109.9 37.8078 109.885 37.7916C109.871 37.7753 109.851 37.7642 109.83 37.76C109.65 37.76 108.83 37.76 108.41 37.76C108.311 37.765 108.216 37.7976 108.134 37.8542C108.053 37.9108 107.989 37.989 107.95 38.08C107.782 38.4294 107.638 38.7903 107.52 39.16C107.52 39.16 107.2 39.16 107.18 39.06C107.289 38.4313 107.362 37.7969 107.4 37.16C107.4 37.16 107.5 37.1 107.52 37.16C107.797 37.293 108.103 37.3548 108.41 37.34H112.48C112.846 37.3707 113.214 37.3088 113.55 37.16C113.592 37.1677 113.631 37.1887 113.66 37.22C113.531 37.8801 113.447 38.5484 113.41 39.22C113.41 39.28 113.09 39.28 113.06 39.22C113.04 38.8807 112.979 38.545 112.88 38.22C112.856 38.1239 112.801 38.0384 112.723 37.9769C112.645 37.9155 112.549 37.8814 112.45 37.88H110.91C110.895 37.8898 110.883 37.9031 110.874 37.9188C110.865 37.9344 110.86 37.952 110.86 37.97C110.86 39.67 110.86 42.86 110.86 43.45C110.86 43.86 110.98 43.99 111.23 44.06C111.476 44.1258 111.727 44.1693 111.98 44.19C112.08 44.14 112.06 44.39 112.01 44.42Z" fill="#0A0203"/>
<path d="M114.37 37.25C114.6 37.25 115.22 37.25 115.8 37.25C116.38 37.25 116.88 37.25 117.16 37.25C117.19 37.3546 117.19 37.4654 117.16 37.57C116.972 37.5936 116.785 37.627 116.6 37.67C116.35 37.74 116.3 37.89 116.28 38.24C116.26 38.59 116.28 39.7 116.28 40.7C116.28 41.7 116.28 42.95 116.28 43.35C116.28 43.75 116.34 43.88 116.67 43.97C116.881 44.0209 117.094 44.0576 117.31 44.08C117.335 44.1332 117.348 44.1912 117.348 44.25C117.348 44.3088 117.335 44.3668 117.31 44.42C117.05 44.42 116.43 44.42 115.89 44.42C115.35 44.42 114.72 44.42 114.36 44.42C114.316 44.311 114.316 44.189 114.36 44.08C114.549 44.0678 114.737 44.0376 114.92 43.99C115.24 43.92 115.29 43.76 115.31 43.49C115.33 43.22 115.31 41.98 115.31 40.49C115.31 39.49 115.31 38.79 115.31 38.25C115.31 37.96 115.31 37.79 115.04 37.72C114.817 37.6596 114.59 37.6161 114.36 37.59C114.339 37.5355 114.329 37.4774 114.331 37.419C114.333 37.3606 114.346 37.3032 114.37 37.25Z" fill="#0A0203"/>
<path d="M117.8 37.25C118.08 37.25 118.63 37.25 119.18 37.25C119.343 37.2631 119.507 37.2631 119.67 37.25C119.772 37.4782 119.907 37.6904 120.07 37.88C121.19 39.35 123.45 42.24 123.97 42.88C123.97 41.3 123.97 39.15 123.97 38.31C123.97 37.98 123.89 37.8 123.56 37.7C123.316 37.6393 123.069 37.5925 122.82 37.56C122.77 37.56 122.82 37.28 122.82 37.24C123.1 37.24 123.61 37.24 124.28 37.24C124.66 37.24 125.28 37.24 125.45 37.24C125.49 37.3429 125.49 37.4571 125.45 37.56C125.284 37.5894 125.121 37.6295 124.96 37.68C124.68 37.78 124.61 37.99 124.59 38.3C124.52 39.19 124.53 40.67 124.5 42.85C124.5 43.38 124.5 44.05 124.5 44.43H123.8C123.22 43.55 120.2 39.58 119.54 38.72H119.49C119.49 39.91 119.49 42.61 119.49 43.25C119.49 43.71 119.66 43.88 119.94 43.95C120.157 44.0046 120.377 44.0414 120.6 44.06C120.65 44.06 120.6 44.35 120.6 44.4C120.34 44.4 119.84 44.4 119.23 44.4C118.62 44.4 118.14 44.4 117.91 44.4C117.87 44.2901 117.87 44.1698 117.91 44.06C118.106 44.0424 118.3 44.009 118.49 43.96C118.74 43.88 118.89 43.73 118.91 43.28C118.93 42.83 118.98 40.8 119.01 38.37C119.014 38.2584 118.988 38.1478 118.936 38.0494C118.883 37.951 118.805 37.8684 118.71 37.81C118.445 37.6475 118.141 37.5578 117.83 37.55C117.79 37.4553 117.78 37.3507 117.8 37.25Z" fill="#0A0203"/>
<path d="M132.63 44.15C131.858 44.4099 131.054 44.558 130.24 44.59C127.66 44.59 126.31 43.23 126.31 40.79C126.278 40.1162 126.443 39.4476 126.786 38.8666C127.129 38.2856 127.634 37.8176 128.24 37.52C128.912 37.2072 129.649 37.0565 130.39 37.08C131.121 37.1154 131.85 37.199 132.57 37.33C132.459 37.9377 132.392 38.5527 132.37 39.17C132.313 39.1948 132.252 39.2076 132.19 39.2076C132.128 39.2076 132.067 39.1948 132.01 39.17C131.92 38.31 131.79 37.98 131.47 37.79C131.012 37.5387 130.491 37.4242 129.97 37.46C128.26 37.46 127.43 38.74 127.43 40.64C127.43 42.54 128.43 44.15 130.43 44.15C130.686 44.1709 130.942 44.1189 131.17 44C131.246 43.9459 131.308 43.8737 131.35 43.79C131.392 43.7063 131.412 43.6136 131.41 43.52C131.44 43.1273 131.44 42.7328 131.41 42.34C131.41 41.96 131.33 41.82 131.01 41.73C130.69 41.64 130.61 41.66 130.27 41.62C130.22 41.62 130.27 41.32 130.27 41.28C130.61 41.28 131.14 41.28 131.81 41.28C132.48 41.28 132.81 41.28 133.01 41.28C133.045 41.3941 133.045 41.5159 133.01 41.63C132.887 41.6439 132.767 41.6707 132.65 41.71C132.44 41.78 132.38 41.93 132.37 42.26C132.36 42.59 132.37 43.32 132.37 43.54C132.37 43.76 132.37 43.77 132.65 43.88C132.668 43.9702 132.661 44.0635 132.63 44.15Z" fill="#0A0203"/>
<path d="M139.58 36.1899V47.9599H138.87V36.1899H139.58Z" fill="#0A0203"/>
<path d="M145.36 37.25C145.68 37.25 146.04 37.25 146.77 37.25C147.5 37.25 147.91 37.25 148.13 37.25C148.159 37.2983 148.175 37.3536 148.175 37.41C148.175 37.4664 148.159 37.5217 148.13 37.57C147.941 37.595 147.754 37.6318 147.57 37.68C147.31 37.75 147.29 37.9 147.28 38.14C147.28 38.55 147.28 39.55 147.28 40.63C147.28 42.06 147.28 43.02 147.28 43.52C147.283 43.5874 147.303 43.6529 147.34 43.7093C147.377 43.7657 147.429 43.8109 147.49 43.84C148.096 43.9301 148.709 43.9602 149.32 43.93C149.457 43.9237 149.59 43.8804 149.704 43.8047C149.819 43.729 149.911 43.6237 149.97 43.5C150.233 43.1057 150.451 42.683 150.62 42.24C150.681 42.2328 150.742 42.2399 150.799 42.2608C150.857 42.2816 150.908 42.3156 150.95 42.36C150.825 43.0207 150.634 43.6672 150.38 44.29C150.38 44.38 150.22 44.44 149.93 44.44C149.22 44.44 147.33 44.38 146.77 44.38C146.21 44.38 145.42 44.38 145.2 44.38C145.15 44.38 145.14 44.08 145.2 44.04C145.442 44.02 145.682 43.9866 145.92 43.94C146.17 43.87 146.24 43.74 146.26 43.46C146.28 43.18 146.26 42.02 146.26 40.52C146.26 39.3 146.26 38.61 146.26 38.31C146.26 37.84 146.2 37.71 145.9 37.64C145.702 37.5932 145.502 37.5565 145.3 37.53C145.285 37.4325 145.306 37.3327 145.36 37.25Z" fill="#0A0203"/>
<path d="M151.47 37.24C151.75 37.24 152.32 37.29 152.93 37.29H155.1C155.52 37.29 156.1 37.29 156.32 37.24V37.3C156.216 37.8213 156.149 38.3493 156.12 38.88C156.12 38.94 155.81 38.94 155.78 38.88C155.759 38.6438 155.719 38.4097 155.66 38.18C155.64 38.051 155.573 37.9342 155.471 37.8527C155.369 37.7712 155.24 37.731 155.11 37.74C154.9 37.74 153.57 37.74 153.42 37.74C153.27 37.74 153.29 37.9 153.29 37.96C153.29 38.6 153.29 39.89 153.29 40.4C153.29 40.4 153.29 40.48 153.35 40.48C153.91 40.5102 154.47 40.5102 155.03 40.48C155.122 40.476 155.209 40.4397 155.277 40.3775C155.345 40.3153 155.388 40.2312 155.4 40.14C155.455 39.9876 155.495 39.8302 155.52 39.67C155.639 39.6246 155.771 39.6246 155.89 39.67C155.837 40.0275 155.81 40.3885 155.81 40.75C155.81 41.18 155.81 41.51 155.81 41.75C155.753 41.7798 155.689 41.7953 155.625 41.7953C155.561 41.7953 155.497 41.7798 155.44 41.75C155.424 41.5909 155.394 41.4336 155.35 41.28C155.338 41.1898 155.294 41.1069 155.226 41.0463C155.158 40.9858 155.071 40.9516 154.98 40.95C154.65 40.95 153.73 40.95 153.33 40.95C153.33 40.95 153.27 41.01 153.27 41.05C153.27 41.58 153.27 42.8 153.27 43.35C153.262 43.4413 153.283 43.5327 153.33 43.6116C153.376 43.6905 153.446 43.7529 153.53 43.79C154.068 43.8486 154.609 43.872 155.15 43.86C155.309 43.8827 155.471 43.8588 155.616 43.7914C155.762 43.7239 155.885 43.6158 155.97 43.48C156.191 43.1687 156.375 42.8332 156.52 42.48C156.637 42.4836 156.749 42.5258 156.84 42.6C156.736 43.1397 156.582 43.6687 156.38 44.18C156.31 44.31 156.24 44.37 155.69 44.37C154.77 44.37 153.98 44.32 152.83 44.32C152.1 44.32 151.55 44.32 151.1 44.32C151.077 44.2662 151.066 44.2084 151.066 44.15C151.066 44.0916 151.077 44.0338 151.1 43.98C151.382 43.9632 151.663 43.9264 151.94 43.87C152.2 43.8 152.28 43.65 152.31 43.24C152.31 43.02 152.31 41.75 152.31 40.45C152.31 39.45 152.31 38.37 152.31 38.17C152.31 37.75 152.25 37.65 151.98 37.58C151.79 37.5241 151.596 37.4839 151.4 37.46C151.4 37.46 151.43 37.3 151.47 37.24Z" fill="#0A0203"/>
<path d="M163.91 44.15C163.135 44.4096 162.327 44.5577 161.51 44.59C158.93 44.59 157.58 43.23 157.58 40.79C157.548 40.1148 157.714 39.445 158.059 38.8636C158.404 38.2823 158.912 37.815 159.52 37.52C160.189 37.2062 160.922 37.0554 161.66 37.08C162.391 37.1154 163.12 37.1989 163.84 37.33C163.729 37.9377 163.662 38.5526 163.64 39.17C163.583 39.1954 163.522 39.2085 163.46 39.2085C163.398 39.2085 163.337 39.1954 163.28 39.17C163.19 38.31 163.06 37.98 162.74 37.79C162.282 37.5387 161.761 37.4242 161.24 37.46C159.53 37.46 158.7 38.74 158.7 40.64C158.7 42.54 159.7 44.15 161.7 44.15C161.953 44.1695 162.206 44.1175 162.43 44C162.506 43.9452 162.569 43.8731 162.612 43.7898C162.656 43.7064 162.679 43.614 162.68 43.52C162.7 43.1269 162.7 42.7331 162.68 42.34C162.68 41.96 162.59 41.82 162.27 41.73C161.95 41.64 161.87 41.66 161.53 41.62C161.53 41.62 161.53 41.32 161.53 41.28C161.88 41.28 162.4 41.28 163.07 41.28C163.74 41.28 164.07 41.28 164.27 41.28C164.315 41.3923 164.315 41.5177 164.27 41.63C164.148 41.6438 164.027 41.6706 163.91 41.71C163.7 41.78 163.65 41.93 163.63 42.26C163.61 42.59 163.63 43.32 163.63 43.54C163.63 43.76 163.63 43.77 163.91 43.88C163.929 43.969 163.929 44.0609 163.91 44.15Z" fill="#0A0203"/>
<path d="M165.96 43.01C166.52 41.61 167.55 38.67 167.8 37.93C167.879 37.7157 167.939 37.4948 167.98 37.27C167.98 37.27 168.16 37.27 168.34 37.27C168.52 37.27 168.68 37.27 168.71 37.27C168.71 37.45 168.81 37.66 168.88 37.88C169.1 38.53 170.33 42.19 170.71 43.15C171.03 43.92 171.11 43.98 171.9 44.08C171.935 44.1907 171.935 44.3093 171.9 44.42C171.61 44.42 171.05 44.42 170.55 44.42C170.05 44.42 169.34 44.42 169.11 44.42C169.075 44.3094 169.075 44.1906 169.11 44.08C169.317 44.0584 169.522 44.0149 169.72 43.95C169.767 43.9227 169.801 43.8783 169.816 43.8261C169.831 43.7739 169.825 43.718 169.8 43.67C169.67 43.17 169.34 42.2 169.14 41.67C169.117 41.6326 169.082 41.6043 169.04 41.59C168.88 41.59 168.5 41.59 168.04 41.59C167.34 41.59 167.26 41.59 167.13 41.59C167 41.59 167.03 41.66 167.02 41.69C166.783 42.3 166.586 42.9246 166.43 43.56C166.43 43.76 166.43 43.89 166.78 43.98C166.954 44.0216 167.132 44.0516 167.31 44.07C167.34 44.1814 167.34 44.2986 167.31 44.41C167.07 44.41 166.51 44.41 165.9 44.41C165.29 44.41 164.9 44.41 164.72 44.41C164.68 44.3002 164.68 44.1799 164.72 44.07C165.46 43.98 165.59 43.9 165.96 43.01ZM168.06 38.49C167.87 39.06 167.42 40.37 167.23 40.98C167.23 40.98 167.23 41.05 167.23 41.06H168.84C168.84 41.06 168.9 41.06 168.84 40.97C168.62 40.25 168.2 38.97 168.02 38.47C168.1 38.47 168.07 38.46 168.06 38.49Z" fill="#0A0203"/>
<path d="M177.12 37.75C176.69 37.5569 176.221 37.4678 175.75 37.49C174.16 37.49 173.24 38.73 173.24 40.68C173.24 42.63 174.24 44.08 176.18 44.08C176.618 44.1033 177.048 43.9645 177.39 43.69C177.729 43.3635 178.01 42.9813 178.22 42.56C178.27 42.56 178.46 42.66 178.48 42.74C178.335 43.322 178.046 43.8583 177.64 44.3C177.099 44.4863 176.532 44.5842 175.96 44.59C175.446 44.6449 174.926 44.5842 174.438 44.4123C173.95 44.2404 173.507 43.9617 173.141 43.5965C172.775 43.2313 172.495 42.7888 172.322 42.3015C172.148 41.8142 172.086 41.2943 172.14 40.78C172.118 40.1428 172.269 39.5116 172.578 38.9535C172.886 38.3954 173.339 37.9311 173.89 37.61C174.575 37.2349 175.349 37.0518 176.13 37.08C176.854 37.1126 177.575 37.1894 178.29 37.31C178.203 37.9 178.146 38.4941 178.12 39.09C178.07 39.09 177.79 39.17 177.78 39.09C177.67 38.19 177.52 37.96 177.12 37.75Z" fill="#0A0203"/>
<path d="M178.96 37.25C179.23 37.25 179.82 37.25 180.32 37.25C180.82 37.25 181.41 37.25 181.54 37.25C181.67 37.25 181.61 37.53 181.54 37.57C181.47 37.61 181.23 37.63 181.15 37.66C181.07 37.69 180.99 37.82 181.07 37.98C181.36 38.62 182.23 40.38 182.46 40.78H182.52C183.021 39.9203 183.478 39.0358 183.89 38.13C183.99 37.91 183.98 37.75 183.67 37.68C183.52 37.68 183.39 37.68 183.15 37.58C183.15 37.53 183.15 37.28 183.15 37.26C183.48 37.26 183.98 37.26 184.36 37.26C184.74 37.26 185.16 37.26 185.53 37.26C185.59 37.26 185.59 37.55 185.53 37.58L185.07 37.68C184.74 37.77 184.58 37.94 184.3 38.42C183.83 39.19 183.01 40.7 182.76 41.22C182.707 41.3469 182.676 41.4824 182.67 41.62C182.67 42.07 182.67 42.62 182.67 43.24C182.67 43.86 182.74 43.93 183.04 44C183.261 44.048 183.485 44.0814 183.71 44.1C183.75 44.2064 183.75 44.3236 183.71 44.43C183.44 44.43 182.83 44.43 182.2 44.43C181.41 44.43 180.92 44.43 180.61 44.43C180.57 44.3236 180.57 44.2064 180.61 44.1C180.9 44.1 181.17 44.03 181.36 43.99C181.55 43.95 181.72 43.71 181.73 43.35C181.73 42.79 181.73 42.35 181.73 41.86C181.729 41.6738 181.702 41.4887 181.65 41.31C181.42 40.76 180.77 39.49 180.33 38.65C179.89 37.81 179.8 37.77 179.4 37.65C179.235 37.6111 179.068 37.5811 178.9 37.56C178.888 37.507 178.888 37.4521 178.898 37.3988C178.908 37.3455 178.93 37.2949 178.96 37.25Z" fill="#0A0203"/>
<path d="M191.47 36.1899V47.9599H190.8V36.1899H191.47Z" fill="#0A0203"/>
<path d="M197.22 37.25C197.48 37.25 198.03 37.25 198.63 37.25C199.23 37.25 199.69 37.25 200 37.25C200 37.31 200 37.54 200 37.57C200 37.6 199.59 37.64 199.47 37.68C199.35 37.72 199.18 37.84 199.17 38.21C199.16 38.58 199.17 39.21 199.17 40.35C199.169 40.3734 199.174 40.3967 199.185 40.4176C199.195 40.4386 199.211 40.4566 199.23 40.47C199.31 40.47 199.5 40.47 201.1 40.47H202.83C202.83 40.47 202.89 40.47 202.89 40.4C202.89 39.8 202.89 38.5 202.89 38.08C202.896 38.0019 202.878 37.9239 202.838 37.8561C202.799 37.7883 202.741 37.7339 202.67 37.7C202.458 37.6342 202.241 37.5906 202.02 37.57C201.995 37.5185 201.982 37.4621 201.982 37.405C201.982 37.3479 201.995 37.2915 202.02 37.24C202.28 37.24 202.81 37.29 203.4 37.29C203.99 37.29 204.59 37.29 204.76 37.29C204.93 37.29 204.81 37.57 204.76 37.61C204.567 37.6348 204.376 37.6749 204.19 37.73C203.95 37.81 203.9 37.94 203.88 38.35C203.86 38.76 203.88 39.44 203.88 40.81C203.88 41.81 203.88 43.08 203.88 43.47C203.88 43.86 203.98 43.92 204.19 43.99C204.416 44.0658 204.652 44.1096 204.89 44.12C204.89 44.12 204.89 44.42 204.89 44.46C204.56 44.46 203.98 44.46 203.42 44.46C202.86 44.46 202.3 44.46 202.02 44.46C201.995 44.4068 201.982 44.3488 201.982 44.29C201.982 44.2312 201.995 44.1732 202.02 44.12C202.233 44.1018 202.444 44.065 202.65 44.01C202.84 43.95 202.91 43.83 202.93 43.47C202.95 43.11 202.93 41.88 202.93 41.16C202.93 41.16 202.93 41.08 202.87 41.08C202.66 41.08 201.72 41.08 201.12 41.08C200.26 41.08 199.36 41.08 199.25 41.08C199.14 41.08 199.25 41.08 199.25 41.14C199.25 41.78 199.25 43.14 199.25 43.35C199.25 43.74 199.31 43.9 199.59 43.98C199.806 44.0444 200.027 44.0913 200.25 44.12C200.265 44.1771 200.268 44.2367 200.26 44.2951C200.251 44.3535 200.231 44.4096 200.2 44.46C199.99 44.46 199.48 44.46 198.77 44.46C198.06 44.46 197.53 44.46 197.31 44.46C197.275 44.3494 197.275 44.2306 197.31 44.12C197.57 44.12 197.75 44.05 197.9 44.02C198.22 43.91 198.25 43.71 198.29 43.17C198.29 42.78 198.29 41.8 198.29 40.8C198.29 39.8 198.29 38.46 198.29 38.25C198.29 38.04 198.2 37.8 197.98 37.74C197.764 37.6792 197.543 37.6358 197.32 37.61C197.16 37.53 197.18 37.3 197.22 37.25Z" fill="#0A0203"/>
<path d="M206.67 43.54C206.028 42.7627 205.694 41.7772 205.73 40.77C205.721 39.9743 205.958 39.1952 206.41 38.54C206.757 38.0891 207.202 37.7232 207.711 37.4702C208.221 37.2172 208.781 37.0838 209.35 37.08C209.815 37.0715 210.277 37.1605 210.706 37.3414C211.134 37.5223 211.52 37.791 211.839 38.1301C212.157 38.4693 212.401 38.8715 212.554 39.3106C212.708 39.7498 212.768 40.2163 212.73 40.68C212.769 41.5326 212.531 42.3748 212.05 43.08C211.726 43.5468 211.294 43.928 210.791 44.191C210.288 44.454 209.728 44.5909 209.16 44.59C208.694 44.6026 208.231 44.5154 207.801 44.3343C207.372 44.1532 206.986 43.8824 206.67 43.54ZM210.8 43.67C211.132 43.3287 211.386 42.9195 211.545 42.4707C211.703 42.022 211.763 41.5441 211.72 41.07C211.758 40.4946 211.664 39.9181 211.446 39.3843C211.228 38.8506 210.89 38.3737 210.46 37.99C210.04 37.6829 209.53 37.5213 209.01 37.53C208.66 37.5246 208.316 37.6107 208.01 37.78C207.595 38.0942 207.266 38.5085 207.054 38.9841C206.843 39.4598 206.755 39.9813 206.8 40.5C206.77 41.101 206.881 41.7006 207.124 42.251C207.367 42.8014 207.736 43.2873 208.2 43.67C208.61 43.9353 209.091 44.0712 209.58 44.06C210.02 44.0812 210.454 43.9427 210.8 43.67Z" fill="#0A0203"/>
<path d="M213.8 37.25C214.17 37.25 214.68 37.25 215.8 37.25C215.833 37.4834 215.904 37.7097 216.01 37.92C216.65 39.4 217.92 42.24 218.1 42.56C218.29 42.21 219.76 39.01 220.24 37.87C220.33 37.6767 220.391 37.4711 220.42 37.26C221.5 37.26 221.9 37.26 222.37 37.26C222.42 37.26 222.42 37.54 222.37 37.58C222.03 37.64 221.82 37.67 221.66 37.71C221.56 37.7339 221.473 37.7944 221.415 37.8796C221.358 37.9648 221.335 38.0684 221.35 38.17C221.35 38.89 221.41 42.55 221.47 43.34C221.47 43.74 221.57 43.91 221.9 44L222.5 44.09C222.524 44.1434 222.537 44.2013 222.537 44.26C222.537 44.3186 222.524 44.3766 222.5 44.43C222.24 44.43 221.72 44.43 221.05 44.43C220.38 44.43 219.87 44.43 219.59 44.43C219.546 44.321 219.546 44.199 219.59 44.09C219.789 44.0596 219.986 44.0162 220.18 43.96C220.42 43.89 220.48 43.71 220.48 43.47C220.48 42.71 220.48 39.71 220.43 38.67C220.43 38.67 220.43 38.67 220.38 38.67C220.08 39.37 218.28 43.3 217.9 44.4C217.798 44.4202 217.692 44.4202 217.59 44.4C217.31 43.4 215.66 39.57 215.27 38.62C215.27 38.62 215.27 38.62 215.22 38.62C215.15 39.62 215.01 42.21 215 43.16C215 43.59 215 43.82 215.36 43.91C215.589 43.972 215.824 44.0155 216.06 44.04C216.084 44.0934 216.097 44.1513 216.097 44.21C216.097 44.2687 216.084 44.3266 216.06 44.38C215.85 44.38 215.33 44.38 214.76 44.38C214.19 44.38 213.62 44.38 213.43 44.38C213.395 44.2694 213.395 44.1506 213.43 44.04L213.97 43.95C214.31 43.84 214.39 43.69 214.46 43.13C214.57 42.25 214.79 39.28 214.85 38.2C214.863 38.0938 214.839 37.9864 214.783 37.8955C214.727 37.8046 214.641 37.7356 214.54 37.7C214.296 37.6199 214.045 37.563 213.79 37.53C213.74 37.54 213.8 37.27 213.8 37.25Z" fill="#0A0203"/>
<path d="M223.14 37.24C223.42 37.24 223.99 37.29 224.6 37.29H226.8C227.22 37.29 227.8 37.29 228.02 37.24L228.07 37.3C227.966 37.8213 227.899 38.3493 227.87 38.88C227.87 38.94 227.56 38.94 227.53 38.88C227.509 38.6438 227.469 38.4097 227.41 38.18C227.39 38.051 227.323 37.9342 227.221 37.8527C227.119 37.7712 226.99 37.731 226.86 37.74C226.65 37.74 225.32 37.74 225.17 37.74C225.02 37.74 225.04 37.9 225.04 37.96C225.04 38.6 225.04 39.89 225.04 40.4C225.04 40.4 225.04 40.48 225.1 40.48C225.66 40.5102 226.22 40.5102 226.78 40.48C226.872 40.476 226.959 40.4397 227.027 40.3775C227.095 40.3153 227.138 40.2312 227.15 40.14C227.205 39.9876 227.246 39.8302 227.27 39.67C227.389 39.6246 227.521 39.6246 227.64 39.67C227.587 40.0275 227.56 40.3885 227.56 40.75C227.56 41.18 227.56 41.51 227.56 41.75C227.503 41.7798 227.439 41.7953 227.375 41.7953C227.311 41.7953 227.247 41.7798 227.19 41.75C227.174 41.5909 227.144 41.4336 227.1 41.28C227.088 41.1898 227.044 41.1069 226.976 41.0463C226.908 40.9858 226.821 40.9516 226.73 40.95C226.4 40.95 225.48 40.95 225.08 40.95C225.08 40.95 225.02 41.01 225.02 41.05C225.02 41.58 225.02 42.8 225.02 43.35C225.012 43.4413 225.033 43.5327 225.08 43.6116C225.126 43.6905 225.196 43.7529 225.28 43.79C225.818 43.8486 226.359 43.872 226.9 43.86C227.059 43.8827 227.221 43.8588 227.366 43.7914C227.512 43.7239 227.635 43.6158 227.72 43.48C227.941 43.1687 228.125 42.8332 228.27 42.48C228.387 42.4836 228.5 42.5258 228.59 42.6C228.486 43.1397 228.332 43.6687 228.13 44.18C228.06 44.31 227.99 44.37 227.44 44.37C226.52 44.37 225.73 44.32 224.58 44.32C223.85 44.32 223.3 44.32 222.84 44.32C222.799 44.2103 222.799 44.0897 222.84 43.98C223.122 43.9632 223.403 43.9264 223.68 43.87C223.94 43.8 224.02 43.65 224.05 43.24C224.05 43.02 224.05 41.75 224.05 40.45C224.05 39.45 224.05 38.37 224.05 38.17C224.05 37.75 223.99 37.65 223.72 37.58C223.53 37.5241 223.336 37.4839 223.14 37.46C223.08 37.52 223.1 37.3 223.14 37.24Z" fill="#0A0203"/>
<path d="M230.46 43.85C230.775 44.0706 231.155 44.1797 231.54 44.16C231.699 44.1674 231.859 44.141 232.007 44.0825C232.156 44.0239 232.29 43.9345 232.402 43.8201C232.513 43.7058 232.599 43.5691 232.654 43.4192C232.709 43.2692 232.731 43.1093 232.72 42.95C232.72 42.19 232.27 41.83 231.28 41.22C230.29 40.61 229.64 40.07 229.64 39.03C229.639 38.7533 229.696 38.4795 229.806 38.2258C229.916 37.9721 230.078 37.744 230.281 37.556C230.484 37.3681 230.724 37.2243 230.985 37.1337C231.247 37.0432 231.524 37.0078 231.8 37.03C232.363 37.0568 232.925 37.1203 233.48 37.22C233.386 37.7493 233.323 38.2835 233.29 38.82C233.29 38.89 233 38.89 232.97 38.82C232.9 38.14 232.8 37.82 232.54 37.63C232.277 37.4566 231.965 37.3725 231.65 37.39C231.487 37.3875 231.324 37.4199 231.174 37.485C231.025 37.5501 230.89 37.6465 230.78 37.7676C230.671 37.8887 230.588 38.0319 230.538 38.1875C230.488 38.3431 230.471 38.5076 230.49 38.67C230.485 38.937 230.552 39.2004 230.684 39.4327C230.816 39.6649 231.008 39.8574 231.24 39.99C231.68 40.29 232.24 40.57 232.61 40.8C232.919 40.9664 233.178 41.2111 233.362 41.5094C233.547 41.8078 233.649 42.1494 233.66 42.5C233.652 42.8047 233.581 43.1044 233.452 43.3804C233.322 43.6564 233.137 43.9026 232.908 44.1036C232.679 44.3045 232.411 44.4559 232.12 44.5483C231.83 44.6406 231.523 44.6718 231.22 44.64C230.674 44.6343 230.135 44.5116 229.64 44.28C229.482 43.7145 229.378 43.1352 229.33 42.55C229.33 42.48 229.61 42.41 229.67 42.45C229.777 42.9889 230.054 43.4793 230.46 43.85Z" fill="#0A0203"/>
<path d="M239.92 43.54C239.276 42.7637 238.938 41.7784 238.97 40.77C238.961 39.9743 239.198 39.1952 239.65 38.54C239.997 38.0891 240.442 37.7232 240.951 37.4702C241.461 37.2172 242.021 37.0838 242.59 37.08C243.055 37.0715 243.517 37.1605 243.946 37.3414C244.374 37.5223 244.76 37.791 245.079 38.1301C245.397 38.4693 245.641 38.8715 245.795 39.3106C245.948 39.7498 246.008 40.2163 245.97 40.68C246.008 41.531 245.773 42.3718 245.3 43.08C244.974 43.5463 244.54 43.927 244.035 44.1899C243.53 44.4527 242.969 44.59 242.4 44.59C241.936 44.6024 241.474 44.5151 241.046 44.334C240.618 44.1529 240.234 43.8821 239.92 43.54ZM244 43.68C244.332 43.3387 244.586 42.9295 244.745 42.4807C244.903 42.032 244.963 41.5541 244.92 41.08C244.96 40.5044 244.868 39.9271 244.649 39.393C244.431 38.8589 244.092 38.3823 243.66 38C243.243 37.6943 242.737 37.5328 242.22 37.54C241.87 37.5301 241.524 37.6166 241.22 37.79C240.81 38.1053 240.487 38.5192 240.281 38.9931C240.075 39.467 239.992 39.9854 240.04 40.5C240.005 41.1045 240.114 41.7085 240.357 42.2629C240.601 42.8173 240.972 43.3063 241.44 43.69C241.846 43.9568 242.324 44.0929 242.81 44.08C243.243 44.0884 243.664 43.9431 244 43.67V43.68Z" fill="#0A0203"/>
<path d="M246.8 37.25C247.08 37.25 247.63 37.25 248.18 37.25C248.343 37.2634 248.507 37.2634 248.67 37.25C248.772 37.4782 248.907 37.6904 249.07 37.88C250.19 39.35 252.45 42.24 252.98 42.88C252.98 41.3 252.98 39.15 252.98 38.31C252.98 37.98 252.89 37.8 252.56 37.7C252.316 37.6393 252.069 37.5925 251.82 37.56C251.785 37.4562 251.785 37.3438 251.82 37.24C252.11 37.24 252.61 37.24 253.28 37.24C253.66 37.24 254.28 37.24 254.45 37.24C254.49 37.3429 254.49 37.4571 254.45 37.56C254.287 37.5881 254.127 37.6282 253.97 37.68C253.68 37.78 253.61 37.99 253.59 38.3C253.53 39.19 253.54 40.67 253.5 42.85C253.5 43.38 253.5 44.05 253.5 44.43H252.74C252.15 43.55 249.13 39.58 248.47 38.72H248.42C248.42 39.91 248.42 42.61 248.42 43.25C248.42 43.71 248.58 43.88 248.87 43.95C249.086 44.0064 249.307 44.0432 249.53 44.06C249.57 44.1698 249.57 44.2901 249.53 44.4C249.27 44.4 248.78 44.4 248.16 44.4C247.54 44.4 247.07 44.4 246.84 44.4C246.81 44.2887 246.81 44.1713 246.84 44.06C247.036 44.0433 247.23 44.0098 247.42 43.96C247.68 43.88 247.82 43.73 247.84 43.28C247.86 42.83 247.92 40.8 247.94 38.37C247.944 38.2584 247.918 38.1478 247.866 38.0494C247.813 37.951 247.735 37.8684 247.64 37.81C247.375 37.6475 247.071 37.5578 246.76 37.55C246.743 37.4482 246.757 37.3436 246.8 37.25Z" fill="#0A0203"/>
<path d="M259.88 43.01C260.45 41.61 261.48 38.67 261.72 37.93C261.806 37.7173 261.87 37.4961 261.91 37.27C261.91 37.27 262.08 37.27 262.27 37.27C262.39 37.2762 262.51 37.2762 262.63 37.27C262.68 37.45 262.73 37.66 262.81 37.88C263.03 38.53 264.25 42.19 264.64 43.15C264.96 43.92 265.03 43.98 265.83 44.08C265.869 44.19 265.869 44.31 265.83 44.42C265.55 44.42 264.99 44.42 264.49 44.42C263.99 44.42 263.28 44.42 263.05 44.42C263.015 44.3094 263.015 44.1906 263.05 44.08C263.254 44.0596 263.456 44.016 263.65 43.95C263.678 43.9415 263.703 43.927 263.725 43.9076C263.746 43.8882 263.763 43.8644 263.775 43.8377C263.786 43.8111 263.792 43.7823 263.791 43.7534C263.79 43.7244 263.783 43.696 263.77 43.67C263.64 43.17 263.31 42.2 263.11 41.67C263.091 41.6333 263.059 41.6048 263.02 41.59C262.86 41.59 262.48 41.59 262.02 41.59C261.32 41.59 261.24 41.59 261.11 41.59C260.98 41.59 261.01 41.66 261 41.69C260.766 42.3018 260.565 42.9261 260.4 43.56C260.4 43.76 260.4 43.89 260.76 43.98C260.931 44.0208 261.105 44.0509 261.28 44.07C261.32 44.1799 261.32 44.3002 261.28 44.41C261.05 44.41 260.49 44.41 259.87 44.41C259.25 44.41 258.87 44.41 258.7 44.41C258.675 44.3568 258.662 44.2988 258.662 44.24C258.662 44.1813 258.675 44.1232 258.7 44.07C259.39 43.98 259.52 43.9 259.88 43.01ZM261.99 38.49C261.8 39.06 261.35 40.37 261.16 40.98C261.16 40.98 261.16 41.05 261.16 41.06H262.8C262.806 41.0544 262.812 41.0475 262.815 41.0397C262.819 41.032 262.82 41.0235 262.82 41.015C262.82 41.0065 262.819 40.9981 262.815 40.9903C262.812 40.9826 262.806 40.9757 262.8 40.97C262.58 40.25 262.17 38.97 261.99 38.47C262.03 38.47 262 38.46 261.99 38.49Z" fill="#0A0203"/>
<path d="M271.04 37.75C270.613 37.5585 270.147 37.4694 269.68 37.49C268.08 37.49 267.17 38.73 267.17 40.68C267.17 42.63 268.17 44.08 270.11 44.08C270.547 44.1006 270.977 43.962 271.32 43.69C271.656 43.3627 271.933 42.9806 272.14 42.56C272.2 42.56 272.39 42.66 272.41 42.74C272.265 43.322 271.976 43.8583 271.57 44.3C271.029 44.4855 270.462 44.5834 269.89 44.59C269.376 44.6449 268.856 44.5843 268.368 44.4124C267.88 44.2405 267.437 43.9617 267.071 43.5965C266.705 43.2313 266.425 42.7889 266.252 42.3016C266.078 41.8142 266.016 41.2944 266.07 40.78C266.046 40.1448 266.194 39.515 266.499 38.957C266.803 38.3991 267.253 37.9337 267.8 37.61C268.482 37.2348 269.252 37.0517 270.03 37.08C270.757 37.1122 271.482 37.189 272.2 37.31C272.108 37.8994 272.051 38.4938 272.03 39.09C271.98 39.09 271.7 39.17 271.68 39.09C271.59 38.19 271.45 37.96 271.04 37.75Z" fill="#0A0203"/>
<path d="M273.11 37.25C273.37 37.25 274.03 37.25 274.37 37.25C275.18 37.25 275.76 37.25 276.2 37.25C276.452 37.2186 276.707 37.2414 276.949 37.3167C277.191 37.392 277.414 37.5182 277.603 37.6867C277.793 37.8552 277.944 38.0622 278.047 38.2939C278.15 38.5255 278.202 38.7765 278.2 39.03C278.2 39.4305 278.081 39.822 277.856 40.1536C277.631 40.4852 277.312 40.7418 276.94 40.89C276.933 40.9021 276.929 40.9159 276.929 40.93C276.929 40.944 276.933 40.9578 276.94 40.97C277.469 41.8469 278.067 42.6796 278.73 43.46C278.879 43.6555 279.071 43.8141 279.291 43.9233C279.512 44.0326 279.754 44.0896 280 44.09C280 44.09 280 44.39 279.93 44.42C279.335 44.4644 278.736 44.3896 278.17 44.2C277.962 44.0875 277.781 43.9304 277.64 43.74C277.23 43.22 276.56 42.06 276.14 41.44C276.109 41.3926 276.068 41.3527 276.019 41.3233C275.971 41.2938 275.916 41.2756 275.86 41.27C275.6 41.255 275.34 41.255 275.08 41.27C275.08 41.27 275.08 41.32 275.08 41.34C275.08 41.97 275.08 43.04 275.08 43.42C275.08 43.8 275.18 43.92 275.43 43.98C275.68 44.04 275.79 44.05 276.05 44.08C276.077 44.1325 276.091 44.1908 276.091 44.25C276.091 44.3091 276.077 44.3674 276.05 44.42C275.85 44.42 275.32 44.42 274.59 44.42C273.86 44.42 273.4 44.42 273.19 44.42C273.165 44.3668 273.152 44.3087 273.152 44.25C273.152 44.1912 273.165 44.1332 273.19 44.08L273.76 43.99C274.02 43.93 274.11 43.79 274.13 43.35C274.13 43.09 274.13 41.52 274.13 40.89C274.13 39.71 274.13 38.55 274.13 38.2C274.13 37.85 274.04 37.74 273.77 37.67C273.5 37.6 273.39 37.6 273.17 37.57C273.04 37.53 273.06 37.27 273.11 37.25ZM275.11 37.71C275.062 37.7578 275.033 37.822 275.03 37.89C275.03 38.28 275.03 39.89 275.03 40.75C275.038 40.7544 275.046 40.7567 275.055 40.7567C275.064 40.7567 275.072 40.7544 275.08 40.75C275.555 40.803 276.036 40.7725 276.5 40.66C276.736 40.5298 276.93 40.334 277.058 40.0963C277.186 39.8586 277.242 39.589 277.22 39.32C277.243 39.0889 277.212 38.8556 277.131 38.6381C277.049 38.4206 276.919 38.2247 276.75 38.0654C276.581 37.9061 276.378 37.7876 276.156 37.7191C275.934 37.6505 275.699 37.6337 275.47 37.67C275.344 37.6518 275.216 37.6518 275.09 37.67L275.11 37.71Z" fill="#0A0203"/>
<path d="M279.99 37.24C280.26 37.24 280.83 37.29 281.45 37.29H283.62C284.03 37.29 284.62 37.29 284.84 37.24V37.3C284.741 37.8221 284.674 38.3497 284.64 38.88C284.64 38.94 284.34 38.94 284.3 38.88C284.279 38.6438 284.239 38.4097 284.18 38.18C284.16 38.051 284.093 37.9342 283.991 37.8527C283.889 37.7712 283.76 37.731 283.63 37.74C283.42 37.74 282.09 37.74 281.95 37.74C281.81 37.74 281.82 37.9 281.82 37.96C281.82 38.6 281.82 39.89 281.82 40.4C281.82 40.4 281.82 40.48 281.88 40.48C282.44 40.5103 283 40.5103 283.56 40.48C283.81 40.48 283.88 40.32 283.94 40.14C283.991 39.9863 284.031 39.8292 284.06 39.67C284.12 39.67 284.38 39.67 284.42 39.67C284.372 40.0281 284.345 40.3887 284.34 40.75C284.34 41.18 284.34 41.51 284.34 41.75C284.281 41.7799 284.216 41.7954 284.15 41.7954C284.084 41.7954 284.019 41.7799 283.96 41.75C283.949 41.5903 283.919 41.4325 283.87 41.28C283.858 41.1898 283.814 41.1069 283.746 41.0463C283.678 40.9858 283.591 40.9516 283.5 40.95C283.17 40.95 282.26 40.95 281.85 40.95C281.85 40.95 281.79 41.01 281.79 41.05C281.79 41.58 281.79 42.8 281.79 43.35C281.781 43.4401 281.801 43.5308 281.845 43.6095C281.89 43.6883 281.958 43.7513 282.04 43.79C282.581 43.8486 283.126 43.872 283.67 43.86C283.827 43.8819 283.988 43.8577 284.131 43.7902C284.275 43.7227 284.396 43.615 284.48 43.48C284.705 43.1712 284.89 42.8352 285.03 42.48C285.148 42.4803 285.261 42.5229 285.35 42.6C285.25 43.1408 285.096 43.6702 284.89 44.18C284.82 44.31 284.76 44.37 284.21 44.37C283.28 44.37 282.49 44.32 281.35 44.32C280.61 44.32 280.06 44.32 279.61 44.32C279.585 44.2668 279.572 44.2088 279.572 44.15C279.572 44.0912 279.585 44.0332 279.61 43.98C279.889 43.9633 280.166 43.9265 280.44 43.87C280.71 43.8 280.78 43.65 280.82 43.24C280.82 43.02 280.82 41.75 280.82 40.45C280.82 39.45 280.82 38.37 280.82 38.17C280.82 37.75 280.75 37.65 280.49 37.58C280.297 37.5242 280.1 37.4841 279.9 37.46C279.92 37.52 279.94 37.3 279.99 37.24Z" fill="#0A0203"/>
<path d="M287.02 43.01C287.58 41.61 288.61 38.67 288.86 37.93C288.939 37.7157 288.999 37.4948 289.04 37.27C289.09 37.27 289.22 37.27 289.41 37.27C289.53 37.2762 289.65 37.2762 289.77 37.27C289.817 37.477 289.877 37.6807 289.95 37.88C290.17 38.53 291.39 42.19 291.77 43.15C292.09 43.92 292.17 43.98 292.96 44.08C292.995 44.1907 292.995 44.3093 292.96 44.42C292.67 44.42 292.11 44.42 291.62 44.42C291.13 44.42 290.41 44.42 290.17 44.42C290.135 44.3094 290.135 44.1906 290.17 44.08C290.378 44.0595 290.582 44.0159 290.78 43.95C290.807 43.9401 290.831 43.9249 290.852 43.9053C290.873 43.8856 290.889 43.862 290.9 43.8358C290.911 43.8096 290.917 43.7814 290.917 43.7529C290.917 43.7244 290.911 43.6962 290.9 43.67C290.77 43.17 290.44 42.2 290.24 41.67C290.217 41.6326 290.182 41.6043 290.14 41.59C289.99 41.59 289.6 41.59 289.14 41.59C288.43 41.59 288.36 41.59 288.22 41.59C288.08 41.59 288.12 41.66 288.11 41.69C287.873 42.3 287.676 42.9246 287.52 43.56C287.52 43.76 287.52 43.89 287.87 43.98C288.045 44.0216 288.222 44.0516 288.4 44.07C288.43 44.1814 288.43 44.2986 288.4 44.41C288.17 44.41 287.6 44.41 286.99 44.41C286.38 44.41 285.99 44.41 285.81 44.41C285.77 44.3002 285.77 44.1799 285.81 44.07C286.52 43.98 286.66 43.9 287.02 43.01ZM289.12 38.49C288.93 39.06 288.48 40.37 288.3 40.98C288.3 40.98 288.3 41.05 288.3 41.06H289.92C289.92 41.06 289.92 41.06 289.92 40.97C289.7 40.25 289.28 38.97 289.11 38.47C289.16 38.47 289.13 38.46 289.12 38.49Z" fill="#0A0203"/>
<path d="M299.53 44.15C298.755 44.4107 297.947 44.5588 297.13 44.59C294.56 44.59 293.21 43.23 293.21 40.79C293.175 40.1157 293.34 39.4461 293.683 38.8646C294.026 38.2831 294.533 37.8155 295.14 37.52C295.812 37.2072 296.549 37.0565 297.29 37.08C298.021 37.116 298.75 37.1995 299.47 37.33C299.359 37.9377 299.292 38.5527 299.27 39.17C299.212 39.1951 299.149 39.208 299.085 39.208C299.021 39.208 298.958 39.1951 298.9 39.17C298.82 38.31 298.68 37.98 298.36 37.79C297.905 37.5396 297.388 37.425 296.87 37.46C295.15 37.46 294.33 38.74 294.33 40.64C294.33 42.54 295.33 44.15 297.33 44.15C297.586 44.1693 297.842 44.1173 298.07 44C298.145 43.9447 298.206 43.8723 298.248 43.7889C298.289 43.7054 298.311 43.6133 298.31 43.52C298.33 43.1269 298.33 42.7331 298.31 42.34C298.31 41.96 298.22 41.82 297.9 41.73C297.58 41.64 297.51 41.66 297.17 41.62C297.11 41.62 297.17 41.32 297.17 41.28C297.51 41.28 298.04 41.28 298.71 41.28C299.38 41.28 299.71 41.28 299.91 41.28C299.945 41.3941 299.945 41.5159 299.91 41.63C299.784 41.644 299.66 41.6708 299.54 41.71C299.33 41.78 299.28 41.93 299.27 42.26C299.26 42.59 299.27 43.32 299.27 43.54C299.27 43.76 299.27 43.77 299.54 43.88C299.555 43.9697 299.552 44.0617 299.53 44.15Z" fill="#0A0203"/>
<path d="M300.8 37.24C301.07 37.24 301.65 37.29 302.26 37.29H304.43C304.85 37.29 305.43 37.29 305.65 37.24V37.3C305.555 37.8223 305.491 38.35 305.46 38.88C305.405 38.9045 305.345 38.9172 305.285 38.9172C305.225 38.9172 305.165 38.9045 305.11 38.88C305.094 38.6432 305.054 38.4087 304.99 38.18C304.972 38.05 304.906 37.9317 304.803 37.8498C304.701 37.7679 304.571 37.7285 304.44 37.74C304.23 37.74 302.9 37.74 302.76 37.74C302.62 37.74 302.63 37.9 302.63 37.96C302.63 38.6 302.63 39.89 302.63 40.4C302.63 40.4 302.63 40.48 302.68 40.48C303.243 40.5102 303.807 40.5102 304.37 40.48C304.61 40.48 304.68 40.32 304.74 40.14C304.791 39.9863 304.831 39.8292 304.86 39.67C304.93 39.67 305.18 39.67 305.22 39.67C305.176 40.0284 305.153 40.3889 305.15 40.75C305.15 41.18 305.15 41.51 305.15 41.75C305.091 41.7799 305.026 41.7954 304.96 41.7954C304.894 41.7954 304.829 41.7799 304.77 41.75C304.757 41.5913 304.73 41.4341 304.69 41.28C304.676 41.189 304.63 41.1059 304.56 41.0455C304.491 40.9851 304.402 40.9513 304.31 40.95C303.98 40.95 303.07 40.95 302.66 40.95C302.66 40.95 302.61 41.01 302.61 41.05C302.61 41.58 302.61 42.8 302.61 43.35C302.601 43.4401 302.621 43.5308 302.665 43.6095C302.71 43.6883 302.778 43.7513 302.86 43.79C303.401 43.8486 303.946 43.872 304.49 43.86C304.647 43.8832 304.808 43.8596 304.952 43.792C305.096 43.7244 305.217 43.6159 305.3 43.48C305.525 43.1712 305.71 42.8352 305.85 42.48C305.968 42.4803 306.081 42.5229 306.17 42.6C306.075 43.142 305.921 43.6718 305.71 44.18C305.65 44.31 305.58 44.37 305.03 44.37C304.11 44.37 303.31 44.32 302.17 44.32C301.43 44.32 300.88 44.32 300.43 44.32C300.389 44.2103 300.389 44.0897 300.43 43.98C300.712 43.9625 300.993 43.9257 301.27 43.87C301.53 43.8 301.61 43.65 301.64 43.24C301.64 43.02 301.64 41.75 301.64 40.45C301.64 39.45 301.64 38.37 301.64 38.17C301.64 37.75 301.57 37.65 301.31 37.58C301.12 37.5241 300.926 37.4839 300.73 37.46C300.7 37.52 300.72 37.3 300.8 37.24Z" fill="#0A0203"/>
</svg>
