<svg width="28" height="27" viewBox="0 0 28 27" fill="none" xmlns="http://www.w3.org/2000/svg">
<path fill-rule="evenodd" clip-rule="evenodd" d="M14.0001 0C6.51237 0 0.442383 6.04416 0.442383 13.5C0.442383 20.9558 6.51237 27 14.0001 27C21.4878 27 27.5578 20.9558 27.5578 13.5C27.5578 6.04416 21.4878 0 14.0001 0ZM13.6225 11.4401L13.594 10.973C13.5087 9.76224 14.2579 8.65638 15.4433 8.22739C15.8795 8.07485 16.6192 8.05579 17.1029 8.18925C17.2925 8.24645 17.6529 8.43712 17.9089 8.60872L18.3736 8.92332L18.8857 8.76125C19.1702 8.67545 19.5496 8.53245 19.7203 8.43712C19.8815 8.35132 20.0237 8.30365 20.0237 8.33225C20.0237 8.49432 19.6728 9.04725 19.3789 9.35231C18.9806 9.78131 19.0944 9.81944 19.9004 9.53345C20.3841 9.37138 20.3936 9.37138 20.2987 9.55251C20.2418 9.64784 19.9479 9.98151 19.6349 10.2866C19.1038 10.8109 19.0754 10.8681 19.0754 11.3066C19.0754 11.9835 18.753 13.3944 18.4305 14.1666C17.8331 15.6157 16.5528 17.1124 15.2726 17.8655C13.4707 18.9237 11.0715 19.1907 9.05151 18.571C8.3782 18.3613 7.22123 17.8274 7.22123 17.7321C7.22123 17.7035 7.57212 17.6653 7.99887 17.6558C8.8903 17.6367 9.78173 17.3889 10.5404 16.9503L11.0525 16.6453L10.4645 16.4451C9.63 16.1591 8.88082 15.5013 8.69115 14.8816C8.63425 14.6814 8.65322 14.6719 9.18428 14.6719L9.73431 14.6623L9.26963 14.4431C8.7196 14.1666 8.21698 13.6995 7.97042 13.2228C7.79023 12.8796 7.56263 12.0121 7.62902 11.9454C7.64798 11.9168 7.84713 11.974 8.07473 12.0502C8.72908 12.2886 8.81443 12.2314 8.4351 11.831C7.72385 11.1064 7.50573 10.0292 7.84713 9.00912L8.00835 8.55152L8.63425 9.17118C9.9145 10.42 11.4223 11.1636 13.1483 11.3829L13.6225 11.4401Z" fill="white"/>
</svg>
