<svg width="27" height="27" viewBox="0 0 27 27" fill="none" xmlns="http://www.w3.org/2000/svg">
<path fill-rule="evenodd" clip-rule="evenodd" d="M13.5 0C6.04416 0 0 6.04416 0 13.5C0 20.9558 6.04416 27 13.5 27C20.9558 27 27 20.9558 27 13.5C27 6.04416 20.9558 0 13.5 0ZM19.126 8.85903C19.7456 9.02905 20.2336 9.53003 20.3992 10.1662C20.7001 11.3192 20.7001 13.725 20.7001 13.725C20.7001 13.725 20.7001 16.1307 20.3992 17.2838C20.2336 17.92 19.7456 18.421 19.126 18.5911C18.0031 18.9 13.5001 18.9 13.5001 18.9C13.5001 18.9 8.99708 18.9 7.87413 18.5911C7.25452 18.421 6.76656 17.92 6.60096 17.2838C6.30011 16.1307 6.30011 13.725 6.30011 13.725C6.30011 13.725 6.30011 11.3192 6.60096 10.1662C6.76656 9.53003 7.25452 9.02905 7.87413 8.85903C8.99708 8.55003 13.5001 8.55003 13.5001 8.55003C13.5001 8.55003 18.0031 8.55003 19.126 8.85903Z" fill="#887E7E"/>
<path fill-rule="evenodd" clip-rule="evenodd" d="M12.1499 16.2V11.7L15.7499 13.95L12.1499 16.2Z" fill="#887E7E"/>
</svg>
